<svg xmlns="http://www.w3.org/2000/svg" xmlns:xlink="http://www.w3.org/1999/xlink" width="1200" zoomAndPan="magnify" viewBox="0 0 900 899.99999" height="1200" preserveAspectRatio="xMidYMid meet" version="1.0"><defs><clipPath id="41564e3ebe"><path d="M 302 90 L 584 90 L 584 433 L 302 433 Z M 302 90 " clip-rule="nonzero"/></clipPath><clipPath id="b312234252"><path d="M 124.269531 694 L 188 694 L 188 771.75 L 124.269531 771.75 Z M 124.269531 694 " clip-rule="nonzero"/></clipPath><clipPath id="2439f9a611"><path d="M 197 694 L 265 694 L 265 771.75 L 197 771.75 Z M 197 694 " clip-rule="nonzero"/></clipPath></defs><path fill="#000000" d="M 418.917969 219.28125 C 418.898438 216.671875 418.882812 214.078125 418.9375 211.484375 C 419.132812 200.949219 426.503906 193.613281 437.019531 193.46875 C 440.820312 193.417969 444.625 193.398438 448.425781 193.488281 C 458.054688 193.683594 465.265625 200.449219 465.886719 210.078125 C 466.082031 213.117188 466.03125 216.171875 466.011719 219.230469 C 472.089844 221.414062 477.773438 224.433594 482.941406 228.144531 C 483.011719 220.0625 483.617188 212.390625 482.214844 204.820312 C 479.160156 188.335938 465.140625 176.769531 448.390625 176.539062 C 442.902344 176.46875 437.394531 176.09375 431.941406 176.914062 C 415.773438 179.292969 403.339844 192.207031 402.238281 208.480469 C 401.808594 214.945312 401.988281 221.449219 402.078125 228.199219 C 407.210938 224.503906 412.878906 221.484375 418.917969 219.28125 " fill-opacity="1" fill-rule="nonzero"/><path fill="#000000" d="M 451.871094 282.117188 C 451.871094 282.152344 451.855469 282.167969 451.835938 282.1875 C 451.410156 282.828125 450.929688 283.429688 450.363281 283.980469 C 450.363281 284 450.34375 284 450.34375 284 C 449.347656 284.976562 448.921875 285.917969 448.941406 287.179688 C 448.941406 287.179688 448.941406 287.195312 448.941406 287.195312 C 448.941406 287.304688 448.941406 287.429688 448.957031 287.535156 C 449.046875 288.742188 449.011719 289.949219 448.976562 291.160156 L 448.976562 291.246094 C 449.03125 293.042969 449.011719 294.816406 448.976562 296.59375 C 448.921875 299.722656 447.554688 301.996094 445.335938 302.988281 C 445.246094 303.023438 445.15625 303.0625 445.066406 303.097656 C 444.960938 303.148438 444.871094 303.167969 444.765625 303.203125 C 444.695312 303.238281 444.605469 303.257812 444.515625 303.292969 C 444.234375 303.378906 443.949219 303.433594 443.648438 303.46875 C 443.558594 303.488281 443.46875 303.503906 443.378906 303.503906 C 443.273438 303.523438 443.167969 303.539062 443.042969 303.539062 C 442.953125 303.558594 442.863281 303.558594 442.777344 303.558594 C 442.652344 303.558594 442.507812 303.558594 442.386719 303.558594 C 442.367188 303.558594 442.351562 303.558594 442.3125 303.558594 C 442.226562 303.558594 442.136719 303.558594 442.046875 303.539062 C 441.921875 303.539062 441.816406 303.523438 441.710938 303.503906 C 441.605469 303.503906 441.53125 303.488281 441.445312 303.46875 C 441.125 303.433594 440.839844 303.378906 440.574219 303.292969 C 440.484375 303.257812 440.394531 303.238281 440.324219 303.203125 C 440.21875 303.167969 440.128906 303.148438 440.023438 303.097656 C 439.933594 303.078125 439.84375 303.023438 439.757812 302.988281 C 437.535156 301.996094 436.167969 299.722656 436.113281 296.59375 C 436.078125 294.890625 436.0625 293.164062 436.097656 291.441406 C 436.078125 290.144531 436.042969 288.832031 436.132812 287.535156 C 436.148438 287.429688 436.148438 287.320312 436.148438 287.214844 C 436.167969 285.933594 435.742188 284.992188 434.765625 284.015625 C 434.746094 284.015625 434.730469 284 434.730469 283.980469 C 434.160156 283.449219 433.679688 282.84375 433.273438 282.222656 C 433.183594 282.097656 433.113281 281.992188 433.039062 281.867188 C 430.324219 277.585938 431.246094 271.757812 435.207031 268.1875 C 437.039062 266.554688 439.257812 265.628906 441.496094 265.417969 C 442.191406 265.347656 442.882812 265.347656 443.59375 265.417969 C 446.082031 265.664062 448.515625 266.785156 450.433594 268.773438 C 453.984375 272.453125 454.5 278.011719 451.871094 282.117188 Z M 442.546875 246.195312 C 421.40625 246.195312 404.226562 263.390625 404.226562 284.515625 C 404.226562 305.65625 421.40625 322.851562 442.546875 322.851562 C 463.667969 322.851562 480.863281 305.65625 480.863281 284.515625 C 480.863281 263.390625 463.667969 246.195312 442.546875 246.195312 " fill-opacity="1" fill-rule="nonzero"/><path fill="#000000" d="M 442.546875 331.09375 C 416.875 331.09375 395.984375 310.203125 395.984375 284.515625 C 395.984375 258.84375 416.875 237.953125 442.546875 237.953125 C 468.214844 237.953125 489.105469 258.84375 489.105469 284.515625 C 489.105469 310.203125 468.214844 331.09375 442.546875 331.09375 Z M 503.675781 284.515625 C 503.675781 250.8125 476.261719 223.386719 442.546875 223.386719 C 408.828125 223.386719 381.398438 250.8125 381.398438 284.515625 C 381.398438 318.230469 408.828125 345.660156 442.546875 345.660156 C 476.261719 345.660156 503.675781 318.230469 503.675781 284.515625 " fill-opacity="1" fill-rule="nonzero"/><g clip-path="url(#41564e3ebe)"><path fill="#000000" d="M 447.769531 403.449219 C 445.972656 404.230469 444.285156 404.746094 442.527344 404.765625 C 440.785156 404.746094 439.097656 404.230469 437.285156 403.449219 C 434.851562 402.382812 432.472656 401.28125 430.128906 400.128906 C 429.878906 400.019531 429.648438 399.898438 429.398438 399.773438 C 413.515625 391.886719 399.484375 382.078125 387.296875 370.300781 C 386.871094 369.890625 386.445312 369.484375 386.035156 369.074219 C 385.625 368.683594 385.234375 368.277344 384.828125 367.867188 C 384.4375 367.476562 384.0625 367.085938 383.691406 366.695312 C 383.441406 366.445312 383.210938 366.214844 382.980469 365.964844 C 382.695312 365.664062 382.410156 365.378906 382.144531 365.078125 C 381.878906 364.792969 381.59375 364.507812 381.34375 364.226562 C 373.171875 355.46875 365.941406 345.695312 359.636719 334.949219 C 359.460938 334.628906 359.261719 334.328125 359.085938 334.007812 C 358.800781 333.507812 358.515625 333.011719 358.234375 332.53125 C 358.039062 332.175781 357.84375 331.839844 357.648438 331.484375 C 356.296875 329.050781 355 326.582031 353.738281 324.058594 C 348.65625 313.878906 344.449219 303.46875 341.035156 292.847656 C 340.894531 292.402344 340.753906 291.941406 340.609375 291.496094 C 340.484375 291.085938 340.363281 290.695312 340.238281 290.289062 C 340.113281 289.878906 339.988281 289.46875 339.863281 289.0625 C 339.757812 288.671875 339.632812 288.296875 339.527344 287.90625 C 331.851562 261.882812 328.992188 235.09375 329.402344 207.789062 C 329.578125 195.601562 330.039062 183.449219 331.335938 170.925781 C 331.355469 170.820312 331.371094 170.730469 331.371094 170.625 C 331.390625 170.515625 331.410156 170.394531 331.410156 170.285156 C 331.480469 169.628906 331.550781 168.988281 331.621094 168.332031 C 331.640625 168.296875 331.640625 168.261719 331.640625 168.226562 C 335.261719 168.011719 338.816406 167.675781 342.351562 167.25 C 364.609375 164.40625 385.289062 157.90625 404.511719 147.8125 C 404.617188 147.742188 404.722656 147.691406 404.847656 147.636719 C 414.777344 142.378906 424.335938 136.179688 433.484375 129.035156 C 433.539062 129 433.589844 128.949219 433.644531 128.914062 C 436.648438 126.585938 439.613281 124.167969 442.527344 121.644531 C 445.457031 124.167969 448.425781 126.585938 451.425781 128.914062 C 451.480469 128.949219 451.535156 128.984375 451.585938 129.035156 C 460.71875 136.179688 470.242188 142.359375 480.171875 147.601562 C 480.296875 147.671875 480.417969 147.742188 480.5625 147.8125 C 499.765625 157.886719 520.460938 164.40625 542.722656 167.25 C 546.238281 167.675781 549.808594 168.011719 553.433594 168.226562 C 553.433594 168.261719 553.433594 168.296875 553.433594 168.332031 C 553.503906 168.988281 553.574219 169.628906 553.644531 170.285156 C 553.664062 170.394531 553.683594 170.515625 553.683594 170.625 C 553.699219 170.730469 553.71875 170.820312 553.71875 170.925781 C 555.015625 183.449219 555.492188 195.601562 555.671875 207.789062 C 556.082031 235.09375 553.203125 261.882812 545.546875 287.90625 C 545.421875 288.296875 545.316406 288.671875 545.191406 289.0625 C 545.082031 289.46875 544.960938 289.878906 544.816406 290.289062 C 544.710938 290.695312 544.585938 291.085938 544.460938 291.496094 C 544.320312 291.941406 544.179688 292.402344 544.019531 292.847656 C 540.605469 303.46875 536.398438 313.878906 531.316406 324.058594 C 530.054688 326.582031 528.757812 329.050781 527.40625 331.484375 C 527.210938 331.839844 527.015625 332.175781 526.820312 332.53125 C 526.609375 332.921875 526.378906 333.332031 526.148438 333.722656 C 526.09375 333.828125 526.039062 333.917969 525.988281 334.007812 C 519.183594 345.714844 511.242188 356.390625 502.09375 365.964844 C 501.863281 366.214844 501.632812 366.445312 501.382812 366.695312 C 501.007812 367.085938 500.617188 367.476562 500.226562 367.867188 C 487.527344 380.691406 472.691406 391.296875 455.796875 399.71875 C 455.585938 399.824219 455.371094 399.914062 455.160156 400.019531 C 452.742188 401.210938 450.289062 402.347656 447.769531 403.449219 Z M 456.027344 429.582031 C 456.027344 429.5625 456.027344 429.5625 456.027344 429.5625 C 474.769531 421.890625 491.183594 412.101562 505.503906 400.394531 C 505.789062 400.164062 506.070312 399.933594 506.339844 399.703125 C 506.425781 399.628906 506.5 399.558594 506.585938 399.488281 C 515.96875 391.691406 524.457031 383.039062 532.078125 373.621094 C 532.398438 373.230469 533.625 371.703125 533.910156 371.332031 C 534.371094 370.746094 535.988281 368.628906 536.34375 368.152344 C 536.519531 367.921875 536.714844 367.652344 536.894531 367.421875 C 537.230469 366.960938 538.707031 364.953125 539.097656 364.402344 C 539.222656 364.226562 539.347656 364.066406 539.46875 363.886719 C 539.613281 363.675781 539.773438 363.460938 539.914062 363.25 C 540.109375 362.980469 540.554688 362.359375 540.570312 362.304688 C 540.855469 361.914062 541.121094 361.523438 541.390625 361.132812 C 541.460938 361.027344 541.53125 360.921875 541.601562 360.8125 C 551.105469 346.992188 559.046875 331.769531 565.550781 315.246094 C 568.339844 308.140625 570.789062 300.945312 572.902344 293.714844 C 572.921875 293.679688 572.921875 293.644531 572.9375 293.59375 C 577.308594 278.792969 580.242188 263.675781 581.714844 248.308594 C 581.714844 248.273438 581.714844 248.238281 581.734375 248.183594 C 582.746094 238.078125 583.1875 227.863281 583.066406 217.558594 C 583.242188 198.871094 582.390625 180.179688 580.292969 161.582031 C 580.0625 159.414062 579.707031 157.476562 579.246094 155.703125 C 577.097656 146.746094 570.398438 141.757812 560.734375 141.328125 C 556.878906 141.152344 553.007812 140.851562 549.152344 140.53125 C 546.574219 140.300781 544.035156 140.03125 541.511719 139.675781 C 528.507812 137.882812 516.339844 134.347656 504.847656 129.390625 C 492.429688 124.132812 480.722656 117.1875 469.671875 108.695312 C 469.671875 108.695312 469.65625 108.679688 469.65625 108.660156 C 463.722656 104.21875 457.984375 99.421875 452.367188 94.304688 C 449.402344 91.589844 446.417969 90.042969 443.167969 89.863281 C 443.058594 89.863281 442.953125 89.847656 442.828125 89.847656 C 442.632812 89.847656 442.4375 89.847656 442.226562 89.847656 C 442.117188 89.847656 442.011719 89.863281 441.886719 89.863281 C 438.65625 90.042969 435.652344 91.589844 432.6875 94.304688 C 427.089844 99.421875 421.351562 104.21875 415.417969 108.660156 C 415.417969 108.679688 415.402344 108.695312 415.382812 108.695312 C 404.332031 117.1875 392.625 124.132812 380.207031 129.390625 C 368.625 134.3125 356.421875 137.777344 343.542969 139.675781 C 341.035156 140.03125 338.496094 140.300781 335.902344 140.53125 C 332.046875 140.851562 328.191406 141.152344 324.320312 141.328125 C 314.675781 141.757812 307.957031 146.746094 305.828125 155.703125 C 305.667969 156.410156 305.523438 157.140625 305.402344 157.886719 C 302.71875 176.132812 302.257812 194.535156 302.078125 212.921875 C 302.042969 214.414062 302.023438 215.925781 302.007812 217.417969 C 302.0625 223.617188 302.222656 229.796875 302.488281 236 C 302.683594 240.101562 302.96875 244.207031 303.359375 248.292969 C 303.359375 248.292969 303.359375 248.308594 303.359375 248.308594 C 304.832031 263.710938 307.761719 278.863281 312.167969 293.714844 C 312.222656 293.910156 312.277344 294.105469 312.328125 294.320312 C 313.519531 298.246094 314.78125 302.15625 316.167969 306.027344 C 324.851562 330.5625 336.382812 352.519531 351.234375 371.4375 C 351.484375 371.738281 352.691406 373.265625 352.9375 373.570312 C 360.792969 383.269531 369.53125 392.132812 379.25 400.128906 C 379.355469 400.214844 379.460938 400.304688 379.570312 400.394531 C 393.886719 412.101562 410.300781 421.90625 429.027344 429.5625 C 429.1875 429.636719 429.347656 429.6875 429.503906 429.742188 C 433.644531 431.054688 437.871094 431.910156 442.191406 432.195312 C 442.421875 432.210938 442.652344 432.210938 442.863281 432.195312 C 447.199219 431.910156 451.410156 431.054688 455.566406 429.742188 C 455.726562 429.6875 455.867188 429.636719 456.027344 429.582031 " fill-opacity="1" fill-rule="nonzero"/></g><path fill="#000000" d="M 253.03125 493.464844 C 240.238281 483.355469 222.472656 478.3125 199.789062 478.3125 C 178.027344 478.3125 160.441406 484.902344 147.042969 498.082031 C 133.648438 511.246094 126.953125 528.195312 126.953125 548.855469 L 126.953125 582.554688 C 126.953125 603.320312 133.828125 620.25 147.558594 633.34375 C 161.292969 646.453125 179.339844 652.992188 201.707031 652.992188 C 223.648438 652.992188 240.824219 647.859375 253.296875 637.609375 C 265.75 627.339844 271.808594 613.164062 271.46875 595.042969 L 271.222656 594.332031 L 234.980469 594.332031 C 234.980469 605.382812 232.226562 613.574219 226.738281 618.882812 C 221.230469 624.214844 212.882812 626.878906 201.707031 626.878906 C 189.929688 626.878906 180.726562 622.757812 174.117188 614.515625 C 167.511719 606.269531 164.207031 595.628906 164.207031 582.554688 L 164.207031 548.625 C 164.207031 535.636719 167.332031 525.050781 173.601562 516.859375 C 179.875 508.652344 188.613281 504.550781 199.789062 504.550781 C 211.816406 504.550781 220.714844 507.214844 226.472656 512.542969 C 232.226562 517.875 235.121094 525.972656 235.121094 536.847656 L 271.46875 536.847656 L 271.71875 536.152344 C 272.054688 517.800781 265.839844 503.574219 253.03125 493.464844 " fill-opacity="1" fill-rule="nonzero"/><path fill="#000000" d="M 438.246094 595.042969 L 437.996094 594.332031 L 401.773438 594.332031 C 401.773438 605.382812 399.019531 613.574219 393.515625 618.882812 C 388.007812 624.214844 379.675781 626.878906 368.5 626.878906 C 356.722656 626.878906 347.519531 622.757812 340.914062 614.515625 C 334.304688 606.269531 330.980469 595.628906 330.980469 582.554688 L 330.980469 548.625 C 330.980469 535.636719 334.125 525.050781 340.398438 516.859375 C 346.667969 508.652344 355.390625 504.550781 366.566406 504.550781 C 378.609375 504.550781 387.507812 507.214844 393.265625 512.542969 C 399.019531 517.875 401.898438 525.972656 401.898438 536.847656 L 438.246094 536.847656 L 438.511719 536.152344 C 438.851562 517.800781 432.632812 503.574219 419.824219 493.464844 C 407.015625 483.355469 389.269531 478.3125 366.566406 478.3125 C 344.820312 478.3125 327.234375 484.902344 313.839844 498.082031 C 300.445312 511.246094 293.746094 528.195312 293.746094 548.855469 L 293.746094 582.554688 C 293.746094 603.320312 300.605469 620.25 314.355469 633.34375 C 328.085938 646.453125 346.136719 652.992188 368.5 652.992188 C 390.421875 652.992188 407.621094 647.859375 420.074219 637.609375 C 432.542969 627.339844 438.601562 613.164062 438.246094 595.042969 " fill-opacity="1" fill-rule="nonzero"/><path fill="#000000" d="M 559.988281 554.984375 C 554.605469 560.152344 546.71875 562.730469 536.308594 562.730469 L 502.378906 562.730469 L 502.378906 507 L 536.308594 507 C 546.808594 507 554.710938 509.664062 560.058594 514.976562 C 565.390625 520.308594 568.054688 527.058594 568.054688 535.210938 C 568.054688 543.222656 565.371094 549.8125 559.988281 554.984375 Z M 605.304688 534.980469 C 605.304688 518.726562 599.160156 505.632812 586.867188 495.683594 C 574.574219 485.738281 557.714844 480.761719 536.308594 480.761719 L 465 480.761719 L 465 650.539062 L 502.378906 650.539062 L 502.378906 588.984375 L 536.308594 588.984375 C 557.714844 588.984375 574.574219 584.046875 586.867188 574.171875 C 599.160156 564.292969 605.304688 551.234375 605.304688 534.980469 " fill-opacity="1" fill-rule="nonzero"/><path fill="#000000" d="M 675.957031 527.414062 L 676.722656 527.414062 L 697.328125 587.226562 L 655.226562 587.226562 Z M 633.464844 650.539062 L 646.003906 613.925781 L 706.425781 613.925781 L 719.089844 650.539062 L 758.136719 650.539062 L 695.550781 480.761719 L 657.269531 480.761719 L 594.417969 650.539062 L 633.464844 650.539062 " fill-opacity="1" fill-rule="nonzero"/><g clip-path="url(#b312234252)"><path fill="#000000" d="M 143.066406 710.621094 C 146.296875 706.625 150.703125 704.597656 156.246094 704.597656 C 162.003906 704.597656 166.355469 705.933594 169.304688 708.578125 C 172.269531 711.226562 173.761719 715.046875 173.761719 720.035156 L 186.980469 720.035156 L 187.085938 719.734375 C 187.246094 711.9375 184.546875 705.808594 179.023438 701.332031 C 173.480469 696.855469 165.894531 694.597656 156.246094 694.597656 C 146.832031 694.597656 139.191406 697.566406 133.347656 703.445312 C 127.503906 709.34375 124.574219 716.839844 124.574219 725.933594 L 124.574219 740.128906 C 124.574219 749.261719 127.539062 756.757812 133.453125 762.621094 C 139.386719 768.480469 147.117188 771.414062 156.65625 771.414062 C 166.035156 771.414062 173.480469 769.085938 178.984375 764.46875 C 184.511719 759.832031 187.195312 753.753906 187.035156 746.238281 L 186.925781 745.9375 L 173.761719 745.9375 C 173.761719 750.949219 172.304688 754.804688 169.394531 757.46875 C 166.480469 760.132812 162.234375 761.464844 156.65625 761.464844 C 150.953125 761.464844 146.441406 759.457031 143.136719 755.441406 C 139.832031 751.425781 138.199219 746.328125 138.199219 740.128906 L 138.199219 725.828125 C 138.199219 719.71875 139.816406 714.652344 143.066406 710.621094 " fill-opacity="1" fill-rule="nonzero"/></g><g clip-path="url(#2439f9a611)"><path fill="#000000" d="M 250.914062 739.71875 C 250.914062 746.042969 249.105469 751.214844 245.480469 755.210938 C 241.855469 759.207031 236.917969 761.214844 230.664062 761.214844 C 224.660156 761.214844 219.898438 759.207031 216.417969 755.175781 C 212.933594 751.160156 211.175781 746.007812 211.175781 739.71875 L 211.175781 726.183594 C 211.175781 719.964844 212.917969 714.851562 216.398438 710.851562 C 219.863281 706.855469 224.625 704.867188 230.664062 704.867188 C 236.882812 704.867188 241.820312 706.855469 245.460938 710.851562 C 249.105469 714.851562 250.914062 719.964844 250.914062 726.183594 Z M 230.664062 694.597656 C 220.824219 694.597656 212.847656 697.617188 206.71875 703.621094 C 200.570312 709.644531 197.515625 717.195312 197.515625 726.289062 L 197.515625 739.71875 C 197.515625 748.851562 200.589844 756.417969 206.734375 762.425781 C 212.898438 768.410156 220.859375 771.414062 230.664062 771.414062 C 240.699219 771.414062 248.871094 768.410156 255.160156 762.425781 C 261.449219 756.417969 264.59375 748.851562 264.59375 739.71875 L 264.59375 726.289062 C 264.59375 717.195312 261.433594 709.644531 255.125 703.621094 C 248.835938 697.617188 240.664062 694.597656 230.664062 694.597656 " fill-opacity="1" fill-rule="nonzero"/></g><path fill="#000000" d="M 320.925781 753.113281 L 320.589844 753.113281 L 297.070312 695.679688 L 279.109375 695.679688 L 279.109375 770.328125 L 292.789062 770.328125 L 292.789062 715.738281 L 293.125 715.632812 L 316.09375 770.328125 L 325.492188 770.328125 L 348.054688 716.660156 L 348.390625 716.695312 L 348.390625 770.328125 L 362.070312 770.328125 L 362.070312 695.679688 L 344.625 695.679688 L 320.925781 753.113281 " fill-opacity="1" fill-rule="nonzero"/><path fill="#000000" d="M 422.167969 728.351562 C 419.628906 730.800781 415.808594 732.027344 410.746094 732.027344 L 393.015625 732.027344 L 393.015625 705.683594 L 410.746094 705.683594 C 415.808594 705.683594 419.628906 706.945312 422.167969 709.484375 C 424.726562 712.007812 426.007812 715.167969 426.007812 718.953125 C 426.007812 722.753906 424.726562 725.882812 422.167969 728.351562 Z M 431.992188 702.078125 C 426.875 697.8125 419.789062 695.679688 410.746094 695.679688 L 379.339844 695.679688 L 379.339844 770.328125 L 393.015625 770.328125 L 393.015625 742.03125 L 410.746094 742.03125 C 419.789062 742.03125 426.875 739.914062 431.992188 735.707031 C 437.109375 731.476562 439.667969 725.863281 439.667969 718.863281 C 439.667969 711.917969 437.109375 706.324219 431.992188 702.078125 " fill-opacity="1" fill-rule="nonzero"/><path fill="#000000" d="M 466.402344 695.679688 L 452.722656 695.679688 L 452.722656 770.328125 L 504.792969 770.328125 L 504.792969 760.398438 L 466.402344 760.398438 L 466.402344 695.679688 " fill-opacity="1" fill-rule="nonzero"/><path fill="#000000" d="M 517.511719 770.328125 L 531.175781 770.328125 L 531.175781 695.679688 L 517.511719 695.679688 L 517.511719 770.328125 " fill-opacity="1" fill-rule="nonzero"/><path fill="#000000" d="M 567.929688 742.492188 L 578.625 713.074219 L 578.960938 713.074219 L 589.496094 742.492188 Z M 572.316406 695.679688 L 543.734375 770.328125 L 557.855469 770.328125 L 564.164062 752.902344 L 593.207031 752.902344 L 599.445312 770.328125 L 613.566406 770.328125 L 585.320312 695.679688 L 572.316406 695.679688 " fill-opacity="1" fill-rule="nonzero"/><path fill="#000000" d="M 674.019531 749.367188 L 673.683594 749.472656 L 637.390625 695.679688 L 623.710938 695.679688 L 623.710938 770.328125 L 637.390625 770.328125 L 637.390625 716.660156 L 637.710938 716.554688 L 674.019531 770.328125 L 687.699219 770.328125 L 687.699219 695.679688 L 674.019531 695.679688 L 674.019531 749.367188 " fill-opacity="1" fill-rule="nonzero"/><path fill="#000000" d="M 696.582031 695.679688 L 696.582031 705.683594 L 721.523438 705.683594 L 721.523438 770.328125 L 735.183594 770.328125 L 735.183594 705.683594 L 760.519531 705.683594 L 760.519531 695.679688 L 696.582031 695.679688 " fill-opacity="1" fill-rule="nonzero"/></svg>