<svg xmlns="http://www.w3.org/2000/svg" xmlns:xlink="http://www.w3.org/1999/xlink" width="1200" zoomAndPan="magnify" viewBox="0 0 900 899.99999" height="1200" preserveAspectRatio="xMidYMid meet" version="1.0"><defs><clipPath id="4c5f07d372"><path d="M 259.355469 307.015625 L 640.355469 307.015625 L 640.355469 592.765625 L 259.355469 592.765625 Z M 259.355469 307.015625 " clip-rule="nonzero"/></clipPath><clipPath id="b4bc4f8f42"><path d="M 399 45.484375 L 507 45.484375 L 507 148 L 399 148 Z M 399 45.484375 " clip-rule="nonzero"/></clipPath><clipPath id="976f1c7f5c"><path d="M 399 757 L 507 757 L 507 859.984375 L 399 859.984375 Z M 399 757 " clip-rule="nonzero"/></clipPath><clipPath id="1df7b9724f"><path d="M 42.429688 402 L 150 402 L 150 505 L 42.429688 505 Z M 42.429688 402 " clip-rule="nonzero"/></clipPath><clipPath id="ad0af45d1d"><path d="M 755 402 L 862.929688 402 L 862.929688 505 L 755 505 Z M 755 402 " clip-rule="nonzero"/></clipPath></defs><path fill="#000000" d="M 344.761719 495.707031 C 341.058594 500.144531 335.824219 503.582031 329.058594 506.027344 C 321.777344 508.570312 314.277344 509.792969 306.5625 509.699219 C 297.921875 509.699219 290.34375 507.8125 283.828125 504.039062 C 277.3125 500.269531 272.285156 494.792969 268.742188 487.617188 C 265.195312 480.4375 263.378906 472.003906 263.289062 462.308594 L 263.289062 455.519531 C 263.289062 445.554688 264.96875 436.925781 268.332031 429.632812 C 271.691406 422.339844 276.539062 416.761719 282.871094 412.898438 C 289.203125 409.035156 296.621094 407.105469 305.125 407.105469 C 316.964844 407.105469 326.222656 409.925781 332.898438 415.574219 C 339.574219 421.21875 343.53125 429.4375 344.761719 440.226562 L 324.738281 440.226562 C 323.824219 434.511719 321.800781 430.332031 318.667969 427.679688 C 315.535156 425.027344 311.226562 423.699219 305.742188 423.699219 C 298.746094 423.699219 293.417969 426.328125 289.761719 431.585938 C 286.105469 436.84375 284.253906 444.664062 284.207031 455.039062 L 284.207031 461.417969 C 284.207031 471.886719 286.195312 479.796875 290.171875 485.144531 C 294.152344 490.496094 299.980469 493.167969 307.660156 493.171875 C 315.386719 493.171875 320.894531 491.523438 324.1875 488.234375 L 324.1875 471.019531 L 305.46875 471.019531 L 305.46875 455.863281 L 344.761719 455.863281 Z M 344.761719 495.707031 " fill-opacity="1" fill-rule="nonzero"/><path fill="#000000" d="M 365.640625 508.328125 L 365.640625 408.476562 L 396.363281 408.476562 C 405.144531 408.476562 412.996094 410.453125 419.921875 414.40625 C 423.378906 416.378906 426.488281 418.800781 429.25 421.671875 C 432.007812 424.542969 434.304688 427.742188 436.140625 431.277344 C 440.027344 438.570312 441.96875 446.855469 441.96875 456.136719 L 441.96875 460.730469 C 441.96875 470.011719 440.058594 478.265625 436.242188 485.488281 C 434.421875 489.011719 432.132812 492.203125 429.386719 495.0625 C 426.636719 497.921875 423.539062 500.332031 420.09375 502.292969 C 413.140625 506.269531 405.300781 508.28125 396.570312 508.328125 Z M 386.214844 425.140625 L 386.214844 491.800781 L 396.160156 491.800781 C 404.207031 491.800781 410.355469 489.171875 414.605469 483.914062 C 418.859375 478.65625 421.03125 471.132812 421.121094 461.351562 L 421.121094 456.070312 C 421.121094 445.917969 419.019531 438.226562 414.8125 432.992188 C 410.605469 427.757812 404.457031 425.140625 396.363281 425.140625 Z M 386.214844 425.140625 " fill-opacity="1" fill-rule="nonzero"/><path fill="#000000" d="M 481.710938 473.144531 L 481.710938 508.328125 L 461.136719 508.328125 L 461.136719 408.476562 L 500.089844 408.476562 C 507.585938 408.476562 514.183594 409.847656 519.875 412.589844 C 522.59375 413.847656 525.070312 415.472656 527.304688 417.464844 C 529.542969 419.457031 531.441406 421.726562 533.003906 424.28125 C 534.558594 426.886719 535.726562 429.65625 536.503906 432.585938 C 537.285156 435.515625 537.652344 438.496094 537.601562 441.53125 C 537.601562 451.3125 534.25 459.027344 527.554688 464.675781 C 520.855469 470.320312 511.585938 473.144531 499.746094 473.144531 Z M 481.710938 456.480469 L 500.089844 456.480469 C 505.53125 456.480469 509.679688 455.199219 512.535156 452.640625 C 515.394531 450.078125 516.824219 446.421875 516.824219 441.664062 C 516.824219 436.773438 515.382812 432.820312 512.5 429.800781 C 509.621094 426.78125 505.644531 425.226562 500.570312 425.136719 L 481.710938 425.136719 Z M 481.710938 456.480469 " fill-opacity="1" fill-rule="nonzero"/><path fill="#000000" d="M 592.90625 471.773438 L 576.515625 471.773438 L 576.515625 508.324219 L 555.941406 508.324219 L 555.941406 408.476562 L 593.042969 408.476562 C 604.835938 408.476562 613.9375 411.105469 620.335938 416.363281 C 626.738281 421.621094 629.9375 429.050781 629.9375 438.652344 C 629.9375 445.464844 628.464844 451.144531 625.515625 455.695312 C 622.566406 460.242188 618.097656 463.867188 612.105469 466.5625 L 633.710938 507.367188 L 633.710938 508.332031 L 611.628906 508.332031 Z M 576.515625 455.109375 L 593.109375 455.109375 C 598.273438 455.109375 602.277344 453.792969 605.109375 451.164062 C 607.945312 448.535156 609.363281 444.914062 609.363281 440.296875 C 609.363281 435.585938 608.023438 431.882812 605.351562 429.1875 C 602.675781 426.488281 598.570312 425.136719 593.039062 425.140625 L 576.511719 425.140625 Z M 576.515625 455.109375 " fill-opacity="1" fill-rule="nonzero"/><g clip-path="url(#4c5f07d372)"><path fill="#000000" d="M 448.5 789.824219 C 375.097656 789.824219 303.886719 775.445312 236.84375 747.089844 C 228.796875 743.679688 220.835938 740.074219 212.960938 736.28125 C 205.085938 732.488281 197.308594 728.503906 189.625 724.335938 C 181.941406 720.167969 174.363281 715.816406 166.890625 711.285156 C 159.417969 706.753906 152.054688 702.042969 144.808594 697.15625 C 137.5625 692.269531 130.433594 687.214844 123.429688 681.984375 C 116.425781 676.753906 109.550781 671.363281 102.804688 665.800781 C 96.0625 660.242188 89.453125 654.527344 82.984375 648.648438 C 76.511719 642.773438 70.1875 636.742188 64.007812 630.5625 C 57.824219 624.382812 51.796875 618.058594 45.917969 611.585938 C 40.042969 605.117188 34.324219 598.507812 28.765625 591.761719 C 23.207031 585.015625 17.8125 578.144531 12.585938 571.136719 C 7.355469 564.132812 2.296875 557.007812 -2.589844 549.761719 C -7.472656 542.511719 -12.183594 535.152344 -16.714844 527.679688 C -21.25 520.203125 -25.597656 512.625 -29.769531 504.945312 C -33.9375 497.261719 -37.917969 489.480469 -41.710938 481.609375 C -45.507812 473.734375 -49.109375 465.773438 -52.523438 457.726562 C -80.878906 390.683594 -95.257812 319.472656 -95.257812 246.070312 C -95.257812 172.664062 -80.878906 101.453125 -52.523438 34.410156 C -49.109375 26.363281 -45.507812 18.402344 -41.710938 10.527344 C -37.917969 2.65625 -33.9375 -5.125 -29.769531 -12.808594 C -25.597656 -20.488281 -21.25 -28.066406 -16.714844 -35.542969 C -12.183594 -43.015625 -7.472656 -50.375 -2.589844 -57.625 C 2.296875 -64.871094 7.355469 -71.996094 12.585938 -79 C 17.8125 -86.007812 23.207031 -92.882812 28.765625 -99.625 C 34.324219 -106.371094 40.042969 -112.980469 45.921875 -119.449219 C 51.796875 -125.921875 57.824219 -132.246094 64.007812 -138.425781 C 70.1875 -144.605469 76.511719 -150.636719 82.984375 -156.511719 C 89.453125 -162.390625 96.0625 -168.105469 102.804688 -173.667969 C 109.550781 -179.226562 116.425781 -184.621094 123.429688 -189.847656 C 130.433594 -195.078125 137.5625 -200.132812 144.808594 -205.019531 C 152.054688 -209.90625 159.417969 -214.617188 166.890625 -219.148438 C 174.363281 -223.679688 181.941406 -228.03125 189.625 -232.199219 C 197.308594 -236.367188 205.085938 -240.351562 212.960938 -244.144531 C 220.835938 -247.9375 228.796875 -251.542969 236.84375 -254.953125 C 303.886719 -283.3125 375.097656 -297.6875 448.5 -297.6875 C 521.902344 -297.6875 593.113281 -283.3125 660.15625 -254.953125 C 668.203125 -251.542969 676.164062 -247.9375 684.039062 -244.144531 C 691.914062 -240.351562 699.691406 -236.367188 707.375 -232.199219 C 715.058594 -228.03125 722.636719 -223.679688 730.109375 -219.148438 C 737.585938 -214.617188 744.945312 -209.90625 752.191406 -205.019531 C 759.441406 -200.132812 766.566406 -195.078125 773.570312 -189.847656 C 780.574219 -184.621094 787.449219 -179.226562 794.195312 -173.667969 C 800.941406 -168.105469 807.546875 -162.390625 814.019531 -156.511719 C 820.488281 -150.636719 826.8125 -144.605469 832.996094 -138.425781 C 839.175781 -132.246094 845.203125 -125.921875 851.082031 -119.449219 C 856.957031 -112.980469 862.675781 -106.371094 868.234375 -99.625 C 873.792969 -92.882812 879.1875 -86.007812 884.417969 -79.003906 C 889.644531 -71.996094 894.703125 -64.871094 899.589844 -57.625 C 904.476562 -50.375 909.183594 -43.015625 913.71875 -35.542969 C 918.25 -28.070312 922.601562 -20.492188 926.769531 -12.808594 C 930.9375 -5.125 934.917969 2.652344 938.714844 10.527344 C 942.507812 18.402344 946.109375 26.363281 949.523438 34.410156 C 977.878906 101.453125 992.257812 172.664062 992.257812 246.066406 C 992.257812 319.46875 977.878906 390.683594 949.523438 457.726562 C 946.109375 465.773438 942.507812 473.734375 938.714844 481.605469 C 934.917969 489.480469 930.9375 497.261719 926.769531 504.941406 C 922.601562 512.625 918.25 520.203125 913.71875 527.679688 C 909.183594 535.152344 904.476562 542.511719 899.589844 549.761719 C 894.703125 557.007812 889.644531 564.132812 884.417969 571.136719 C 879.1875 578.140625 873.792969 585.015625 868.234375 591.761719 C 862.675781 598.507812 856.957031 605.117188 851.082031 611.585938 C 845.203125 618.054688 839.175781 624.382812 832.996094 630.5625 C 826.8125 636.742188 820.488281 642.773438 814.019531 648.648438 C 807.546875 654.523438 800.941406 660.242188 794.195312 665.800781 C 787.449219 671.363281 780.574219 676.753906 773.570312 681.984375 C 766.566406 687.210938 759.441406 692.269531 752.191406 697.15625 C 744.945312 702.042969 737.585938 706.753906 730.109375 711.285156 C 722.636719 715.816406 715.058594 720.167969 707.375 724.335938 C 699.691406 728.503906 691.914062 732.484375 684.039062 736.28125 C 676.164062 740.074219 668.203125 743.679688 660.15625 747.089844 C 593.113281 775.449219 521.902344 789.824219 448.5 789.824219 Z M 448.5 -280.714844 C 377.382812 -280.714844 308.394531 -266.789062 243.453125 -239.320312 C 235.65625 -236.015625 227.945312 -232.523438 220.316406 -228.847656 C 212.6875 -225.171875 205.152344 -221.3125 197.710938 -217.277344 C 190.265625 -213.238281 182.925781 -209.023438 175.683594 -204.628906 C 168.441406 -200.238281 161.3125 -195.675781 154.289062 -190.941406 C 147.269531 -186.207031 140.363281 -181.308594 133.578125 -176.242188 C 126.792969 -171.175781 120.132812 -165.949219 113.597656 -160.566406 C 107.0625 -155.179688 100.660156 -149.640625 94.390625 -143.945312 C 88.125 -138.253906 81.996094 -132.410156 76.007812 -126.425781 C 70.019531 -120.4375 64.179688 -114.308594 58.484375 -108.039062 C 52.792969 -101.769531 47.253906 -95.367188 41.867188 -88.832031 C 36.480469 -82.300781 31.253906 -75.636719 26.1875 -68.851562 C 21.121094 -62.066406 16.222656 -55.164062 11.488281 -48.140625 C 6.753906 -41.121094 2.191406 -33.988281 -2.199219 -26.75 C -6.589844 -19.507812 -10.804688 -12.164062 -14.84375 -4.722656 C -18.882812 2.722656 -22.738281 10.257812 -26.417969 17.886719 C -30.09375 25.515625 -33.585938 33.226562 -36.890625 41.023438 C -64.359375 105.960938 -78.285156 174.949219 -78.285156 246.070312 C -78.285156 317.1875 -64.355469 386.175781 -36.890625 451.113281 C -33.585938 458.910156 -30.09375 466.625 -26.417969 474.25 C -22.738281 481.878906 -18.882812 489.417969 -14.84375 496.859375 C -10.804688 504.304688 -6.589844 511.644531 -2.199219 518.886719 C 2.191406 526.125 6.753906 533.257812 11.488281 540.277344 C 16.222656 547.300781 21.125 554.203125 26.1875 560.988281 C 31.253906 567.777344 36.480469 574.4375 41.867188 580.972656 C 47.253906 587.507812 52.792969 593.90625 58.484375 600.175781 C 64.179688 606.445312 70.019531 612.574219 76.007812 618.5625 C 81.996094 624.550781 88.125 630.390625 94.394531 636.082031 C 100.660156 641.777344 107.0625 647.316406 113.597656 652.703125 C 120.132812 658.089844 126.792969 663.3125 133.578125 668.378906 C 140.367188 673.445312 147.269531 678.347656 154.289062 683.078125 C 161.3125 687.8125 168.441406 692.375 175.683594 696.769531 C 182.925781 701.160156 190.265625 705.375 197.710938 709.414062 C 205.152344 713.453125 212.6875 717.308594 220.316406 720.984375 C 227.945312 724.664062 235.660156 728.152344 243.453125 731.460938 C 308.394531 758.925781 377.382812 772.851562 448.5 772.851562 C 519.621094 772.851562 588.609375 758.925781 653.546875 731.460938 C 661.34375 728.152344 669.054688 724.664062 676.683594 720.984375 C 684.3125 717.308594 691.847656 713.453125 699.292969 709.414062 C 706.734375 705.375 714.078125 701.160156 721.316406 696.769531 C 728.558594 692.375 735.691406 687.8125 742.710938 683.078125 C 749.734375 678.347656 756.636719 673.445312 763.421875 668.378906 C 770.207031 663.3125 776.867188 658.089844 783.402344 652.703125 C 789.9375 647.316406 796.339844 641.777344 802.609375 636.082031 C 808.878906 630.390625 815.003906 624.550781 820.992188 618.5625 C 826.980469 612.574219 832.824219 606.445312 838.515625 600.175781 C 844.210938 593.90625 849.75 587.507812 855.136719 580.972656 C 860.519531 574.4375 865.746094 567.777344 870.8125 560.988281 C 875.878906 554.203125 880.777344 547.300781 885.511719 540.277344 C 890.246094 533.257812 894.808594 526.125 899.199219 518.886719 C 903.59375 511.644531 907.808594 504.304688 911.84375 496.859375 C 915.882812 489.417969 919.742188 481.878906 923.417969 474.25 C 927.09375 466.625 930.585938 458.910156 933.890625 451.113281 C 961.359375 386.175781 975.285156 317.1875 975.285156 246.070312 C 975.285156 174.949219 961.359375 105.960938 933.890625 41.023438 C 930.585938 33.226562 927.09375 25.515625 923.417969 17.886719 C 919.742188 10.257812 915.882812 2.722656 911.84375 -4.722656 C 907.808594 -12.164062 903.59375 -19.507812 899.199219 -26.75 C 894.808594 -33.988281 890.246094 -41.121094 885.511719 -48.140625 C 880.777344 -55.164062 875.878906 -62.066406 870.8125 -68.851562 C 865.746094 -75.636719 860.519531 -82.300781 855.136719 -88.832031 C 849.75 -95.367188 844.210938 -101.769531 838.515625 -108.039062 C 832.824219 -114.308594 826.980469 -120.4375 820.992188 -126.425781 C 815.007812 -132.410156 808.878906 -138.253906 802.609375 -143.945312 C 796.339844 -149.640625 789.9375 -155.179688 783.402344 -160.566406 C 776.867188 -165.953125 770.207031 -171.175781 763.421875 -176.242188 C 756.636719 -181.308594 749.734375 -186.207031 742.710938 -190.941406 C 735.691406 -195.675781 728.558594 -200.238281 721.316406 -204.632812 C 714.078125 -209.023438 706.734375 -213.238281 699.292969 -217.277344 C 691.847656 -221.316406 684.3125 -225.171875 676.683594 -228.847656 C 669.054688 -232.523438 661.34375 -236.015625 653.546875 -239.320312 C 588.605469 -266.792969 519.621094 -280.714844 448.5 -280.714844 Z M 448.5 -280.714844 " fill-opacity="1" fill-rule="nonzero"/></g><g clip-path="url(#b4bc4f8f42)"><path fill="#000000" d="M 452.679688 45.691406 L 438.402344 83.761719 L 399.015625 84.582031 L 430.359375 108.539062 L 419.53125 147.761719 L 452.679688 123.636719 L 485.824219 147.761719 L 474.996094 108.539062 L 506.339844 84.582031 L 466.953125 83.761719 Z M 452.679688 45.691406 " fill-opacity="1" fill-rule="nonzero"/></g><g clip-path="url(#976f1c7f5c)"><path fill="#000000" d="M 466.953125 795.628906 L 452.679688 757.554688 L 438.402344 795.628906 L 399.015625 796.613281 L 430.359375 820.570312 L 419.53125 859.625 L 452.679688 835.503906 L 485.824219 859.625 L 474.996094 820.570312 L 506.339844 796.613281 Z M 466.953125 795.628906 " fill-opacity="1" fill-rule="nonzero"/></g><path fill="#000000" d="M 289.890625 747.382812 L 275.449219 709.476562 L 261.171875 747.382812 L 221.789062 748.367188 L 253.132812 772.324219 L 242.300781 811.546875 L 275.449219 787.421875 L 308.597656 811.546875 L 297.929688 772.324219 L 329.109375 748.367188 Z M 289.890625 747.382812 " fill-opacity="1" fill-rule="nonzero"/><path fill="#000000" d="M 159.101562 617.414062 L 144.828125 579.34375 L 130.386719 617.414062 L 91.164062 618.234375 L 122.507812 642.195312 L 111.679688 681.414062 L 144.828125 657.292969 L 177.972656 681.414062 L 167.144531 642.195312 L 198.488281 618.234375 Z M 159.101562 617.414062 " fill-opacity="1" fill-rule="nonzero"/><g clip-path="url(#1df7b9724f)"><path fill="#000000" d="M 96.089844 480.554688 L 129.238281 504.679688 L 118.40625 465.621094 L 149.75 441.664062 L 110.367188 440.679688 L 96.089844 402.609375 L 81.648438 440.679688 L 42.429688 441.664062 L 73.769531 465.621094 L 62.941406 504.679688 Z M 96.089844 480.554688 " fill-opacity="1" fill-rule="nonzero"/></g><path fill="#000000" d="M 144.828125 223.410156 L 130.386719 261.480469 L 91.164062 262.300781 L 122.507812 286.261719 L 111.679688 325.480469 L 144.828125 301.359375 L 177.972656 325.480469 L 167.144531 286.261719 L 198.488281 262.300781 L 159.101562 261.480469 Z M 144.828125 223.410156 " fill-opacity="1" fill-rule="nonzero"/><path fill="#000000" d="M 240.496094 194.695312 L 273.644531 170.570312 L 306.792969 194.695312 L 295.960938 155.636719 L 327.304688 131.679688 L 287.921875 130.695312 L 273.644531 92.625 L 259.203125 130.695312 L 219.984375 131.679688 L 251.164062 155.636719 Z M 240.496094 194.695312 " fill-opacity="1" fill-rule="nonzero"/><path fill="#000000" d="M 644.183594 747.382812 L 629.90625 709.476562 L 615.464844 747.382812 L 576.246094 748.367188 L 607.425781 772.324219 L 596.757812 811.546875 L 629.90625 787.421875 L 663.054688 811.546875 L 652.222656 772.324219 L 683.566406 748.367188 Z M 644.183594 747.382812 " fill-opacity="1" fill-rule="nonzero"/><path fill="#000000" d="M 774.96875 617.414062 L 760.53125 579.34375 L 746.253906 617.414062 L 706.867188 618.234375 L 738.210938 642.195312 L 727.382812 681.414062 L 760.53125 657.292969 L 793.675781 681.414062 L 782.847656 642.195312 L 814.191406 618.234375 Z M 774.96875 617.414062 " fill-opacity="1" fill-rule="nonzero"/><g clip-path="url(#ad0af45d1d)"><path fill="#000000" d="M 862.929688 441.664062 L 823.707031 440.679688 L 809.265625 402.609375 L 794.992188 440.679688 L 755.605469 441.664062 L 786.949219 465.621094 L 776.117188 504.679688 L 809.265625 480.554688 L 842.414062 504.679688 L 831.585938 465.621094 Z M 862.929688 441.664062 " fill-opacity="1" fill-rule="nonzero"/></g><path fill="#000000" d="M 727.382812 325.480469 L 760.53125 301.359375 L 793.675781 325.480469 L 782.847656 286.261719 L 814.191406 262.300781 L 774.96875 261.480469 L 760.53125 223.410156 L 746.253906 261.480469 L 706.867188 262.300781 L 738.210938 286.261719 Z M 727.382812 325.480469 " fill-opacity="1" fill-rule="nonzero"/><path fill="#000000" d="M 631.710938 92.625 L 617.433594 130.695312 L 578.050781 131.679688 L 609.394531 155.636719 L 598.5625 194.695312 L 631.710938 170.570312 L 664.859375 194.695312 L 654.191406 155.636719 L 685.371094 131.679688 L 646.152344 130.695312 Z M 631.710938 92.625 " fill-opacity="1" fill-rule="nonzero"/></svg>