<svg xmlns="http://www.w3.org/2000/svg" xmlns:xlink="http://www.w3.org/1999/xlink" width="1200" zoomAndPan="magnify" viewBox="0 0 900 899.99999" height="1200" preserveAspectRatio="xMidYMid meet" version="1.0"><defs><g/></defs><path fill="#4a4a4a" d="M 165.683594 434.289062 C 170.597656 433.273438 175.726562 431.042969 180.570312 427.550781 C 194.488281 417.480469 200.667969 400.945312 194.355469 390.601562 C 187.488281 379.351562 168.714844 380.105469 154.285156 392.914062 C 140.488281 404.824219 137.542969 417.273438 137.542969 430.355469 C 137.542969 439.601562 140.5 456.105469 158.5625 470.441406 C 167.089844 463.851562 177.253906 458.429688 188.796875 454.511719 L 188.949219 454.453125 C 180.082031 450.761719 168.523438 443.464844 165.683594 434.289062 Z M 326.957031 430.371094 C 326.914062 417.273438 323.984375 404.824219 310.175781 392.914062 C 295.757812 380.121094 276.96875 379.335938 270.101562 390.601562 C 263.804688 400.945312 269.964844 417.480469 283.886719 427.550781 C 288.726562 431.042969 293.859375 433.269531 298.769531 434.289062 C 297.0625 439.804688 291.878906 445.417969 283.96875 450.148438 C 273.09375 456.640625 267.21875 457.441406 197.636719 480.550781 C 171.886719 489.296875 156.566406 506.683594 156.566406 527.058594 C 156.566406 541.570312 163.980469 552.765625 174.28125 560.964844 C 180.761719 554.292969 188.851562 548.503906 198.300781 543.867188 C 187.417969 538.363281 184.0625 534.195312 184.0625 527.058594 C 184.0625 515.273438 207.613281 508.535156 218.480469 504.953125 L 218.480469 534.773438 L 245.992188 522.503906 L 245.992188 504.964844 C 256.875 508.570312 280.367188 515.296875 280.367188 527.058594 C 280.367188 546.621094 224.347656 558.15625 200.515625 574.597656 C 188.945312 582.617188 182.726562 592.808594 182.726562 604.789062 C 182.726562 611.667969 183.527344 620.195312 195.601562 628.667969 C 199.027344 631.40625 203.785156 627.410156 201.5625 623.566406 C 193.582031 607.59375 202.054688 599.617188 218.507812 592.710938 L 218.507812 615.792969 C 218.507812 623.386719 224.667969 629.546875 232.261719 629.546875 C 239.855469 629.546875 246.019531 623.386719 246.019531 615.792969 L 246.019531 592.726562 C 261.824219 599.355469 271.769531 608.722656 262.921875 623.566406 C 260.730469 627.335938 265.398438 631.4375 268.867188 628.667969 C 280.558594 619.808594 281.480469 612.214844 281.480469 604.96875 C 281.480469 593.8125 275.375 582.988281 263.789062 574.691406 C 287.203125 566.234375 307.917969 551.996094 307.917969 527.085938 C 307.917969 509.875 296.984375 494.800781 278.082031 485.253906 C 286.914062 482.074219 291.355469 479.945312 297.257812 476.421875 C 323.105469 460.976562 326.957031 440.933594 326.957031 430.371094 Z M 326.957031 430.371094 " fill-opacity="1" fill-rule="nonzero"/><path fill="#4a4a4a" d="M 424.703125 258.191406 L 330.496094 258.191406 C 312.015625 258.191406 298.148438 266.359375 286.21875 278.289062 C 273.257812 291.253906 266.519531 320.0625 245.878906 320.0625 L 245.878906 281.859375 C 254.070312 277.09375 259.636719 268.324219 259.636719 258.164062 C 259.636719 242.96875 247.320312 230.652344 232.125 230.652344 C 216.929688 230.652344 204.613281 242.96875 204.613281 258.164062 C 204.613281 268.320312 210.179688 277.09375 218.371094 281.859375 L 218.371094 445.796875 C 226.859375 443.085938 236.175781 440.105469 245.878906 436.988281 L 245.878906 368.085938 C 251.847656 365.089844 256.664062 360.25 259.617188 354.257812 C 264.402344 362.433594 273.496094 368.234375 283.636719 368.234375 C 293.917969 368.234375 302.777344 362.527344 307.5 354.171875 C 323.613281 370.285156 353.566406 370.597656 369.679688 354.480469 L 346.304688 331.105469 L 357.027344 335.546875 C 378.085938 344.269531 402.222656 334.269531 410.945312 313.214844 L 377.738281 299.457031 C 409.910156 299.457031 424.703125 279.269531 424.703125 258.191406 Z M 178.03125 278.289062 C 166.101562 266.359375 152.234375 258.191406 133.753906 258.191406 L 39.546875 258.191406 C 39.546875 279.269531 54.339844 299.457031 86.511719 299.457031 L 53.304688 313.214844 C 62.027344 334.269531 86.164062 344.269531 107.222656 335.546875 L 117.945312 331.105469 L 94.570312 354.480469 C 110.683594 370.597656 140.636719 370.285156 156.75 354.167969 C 161.472656 362.527344 170.332031 368.234375 180.613281 368.234375 C 180.714844 368.234375 180.816406 368.234375 180.917969 368.234375 C 194.359375 368.082031 204.632812 355.9375 204.632812 342.5 L 204.632812 314.824219 C 193.789062 305.929688 187.582031 287.839844 178.03125 278.289062 Z M 178.03125 278.289062 " fill-opacity="1" fill-rule="nonzero"/><g fill="#000000" fill-opacity="1"><g transform="translate(334.238137, 513.047162)"><g><path d="M 90.972656 -73.164062 L 90.972656 -117.285156 L 114.074219 -117.285156 L 114.074219 0 L 90.972656 0 L 90.972656 -53.429688 L 38.425781 -53.429688 L 38.425781 0 L 15.242188 0 L 15.242188 -117.285156 L 38.425781 -117.285156 L 38.425781 -73.164062 Z M 90.972656 -73.164062 "/></g></g></g><g fill="#000000" fill-opacity="1"><g transform="translate(463.632203, 513.047162)"><g><path d="M 15.242188 -117.285156 L 38.425781 -117.285156 L 38.425781 0 L 15.242188 0 Z M 15.242188 -117.285156 "/></g></g></g><g fill="#000000" fill-opacity="1"><g transform="translate(517.379273, 513.047162)"><g><path d="M 60.566406 -117.285156 C 68.964844 -117.285156 76.144531 -115.746094 82.105469 -112.671875 C 88.070312 -109.597656 92.578125 -105.292969 95.625 -99.757812 C 98.671875 -94.222656 100.199219 -87.789062 100.199219 -80.460938 C 100.199219 -73.136719 98.671875 -66.71875 95.625 -61.210938 C 92.578125 -55.699219 88.070312 -51.410156 82.105469 -48.332031 C 76.144531 -45.257812 68.964844 -43.722656 60.566406 -43.722656 L 38.425781 -43.722656 L 38.425781 0 L 15.242188 0 L 15.242188 -117.285156 Z M 57.519531 -62.09375 C 70.410156 -62.09375 76.851562 -68.214844 76.851562 -80.460938 C 76.851562 -92.761719 70.410156 -98.914062 57.519531 -98.914062 L 38.425781 -98.914062 L 38.425781 -62.09375 Z M 57.519531 -62.09375 "/></g></g></g><g fill="#000000" fill-opacity="1"><g transform="translate(616.530322, 513.047162)"><g><path d="M 112.550781 0 L 88.164062 0 L 79.339844 -27.035156 L 34.414062 -27.035156 L 25.589844 0 L 1.765625 0 L 42.277344 -117.285156 L 72.039062 -117.285156 Z M 55.753906 -92.816406 L 40.671875 -46.527344 L 72.921875 -46.527344 L 57.761719 -92.816406 Z M 55.753906 -92.816406 "/></g></g></g><g fill="#000000" fill-opacity="1"><g transform="translate(730.84312, 513.047162)"><g><path d="M 112.550781 0 L 88.164062 0 L 79.339844 -27.035156 L 34.414062 -27.035156 L 25.589844 0 L 1.765625 0 L 42.277344 -117.285156 L 72.039062 -117.285156 Z M 55.753906 -92.816406 L 40.671875 -46.527344 L 72.921875 -46.527344 L 57.761719 -92.816406 Z M 55.753906 -92.816406 "/></g></g></g></svg>