<svg xmlns="http://www.w3.org/2000/svg" xmlns:xlink="http://www.w3.org/1999/xlink" width="1200" zoomAndPan="magnify" viewBox="0 0 900 899.99999" height="1200" preserveAspectRatio="xMidYMid meet" version="1.0"><defs><g/><clipPath id="5a09abab38"><path d="M 60.511719 24 L 839.761719 24 L 839.761719 884 L 60.511719 884 Z M 60.511719 24 " clip-rule="nonzero"/></clipPath><clipPath id="3432d56000"><path d="M 238 446.515625 L 662 446.515625 L 662 453.265625 L 238 453.265625 Z M 238 446.515625 " clip-rule="nonzero"/></clipPath><clipPath id="ba68a5fc0f"><rect x="0" width="411" y="0" height="187"/></clipPath><clipPath id="83b998be28"><rect x="0" width="392" y="0" height="187"/></clipPath></defs><rect x="-90" width="1080" fill="#ffffff" y="-89.999999" height="1079.999988" fill-opacity="1"/><rect x="-90" width="1080" fill="#ffffff" y="-89.999999" height="1079.999988" fill-opacity="1"/><g clip-path="url(#5a09abab38)"><path fill="#000000" d="M 450.179688 70.859375 C 429.367188 87.246094 403.152344 104.734375 371.148438 120.820312 C 340.847656 135.972656 305.265625 150.058594 264.15625 160.78125 C 232.066406 169.078125 198.785156 174.1875 167.886719 177.082031 C 142.648438 179.464844 119.03125 180.484375 98.855469 180.824219 C 103.070312 240.914062 112.390625 336.664062 131.5 427.992188 C 145.117188 493.101562 163.800781 555.957031 188.996094 601.195312 C 227.597656 670.476562 281.730469 725.585938 332.675781 766.738281 C 378.976562 804.1875 422.730469 830.105469 450.136719 844.828125 C 477.585938 830.1875 521.253906 804.355469 567.511719 766.992188 C 618.414062 725.925781 672.546875 670.6875 711.320312 601.195312 C 736.558594 555.914062 755.238281 493.015625 768.902344 427.863281 C 788.054688 336.582031 797.375 240.914062 801.585938 180.824219 C 781.414062 180.527344 757.792969 179.507812 732.472656 177.121094 C 701.574219 174.230469 668.292969 169.121094 636.289062 160.78125 C 589.6875 148.609375 550.320312 132.269531 517.675781 114.820312 C 490.949219 100.523438 468.523438 85.246094 450.179688 70.859375 Z M 354.976562 88.777344 C 390.300781 70.988281 417.960938 51.453125 438.476562 34.050781 L 450.050781 24.304688 L 461.628906 34.050781 C 480.097656 49.582031 504.230469 66.945312 534.53125 83.160156 C 564.960938 99.414062 601.730469 114.691406 645.3125 126.054688 C 675.144531 133.84375 706.554688 138.609375 735.875 141.375 C 764.984375 144.097656 792.691406 144.90625 815.121094 144.90625 L 839.804688 144.90625 L 838.65625 163.972656 C 835.121094 222.402344 825.84375 331.429688 804.054688 435.183594 C 789.753906 503.402344 769.921875 569.703125 742.644531 618.640625 C 701.191406 692.902344 643.863281 751.546875 589.984375 794.996094 C 536.445312 838.273438 486.011719 866.828125 458.351562 881.042969 L 454.351562 883.085938 L 445.839844 883.085938 L 441.878906 881.042969 C 414.257812 866.746094 363.785156 838.019531 310.203125 794.738281 C 256.28125 751.203125 198.957031 692.648438 157.671875 618.640625 C 130.4375 569.746094 110.601562 503.484375 96.347656 435.3125 C 74.597656 331.515625 65.320312 222.402344 61.746094 163.972656 L 60.597656 144.90625 L 85.238281 144.90625 C 107.667969 144.90625 135.414062 144.058594 164.484375 141.332031 C 193.804688 138.566406 225.257812 133.800781 255.132812 126.054688 C 293.648438 115.96875 326.84375 102.863281 354.976562 88.777344 Z M 354.976562 88.777344 " fill-opacity="1" fill-rule="nonzero"/></g><g clip-path="url(#3432d56000)"><path fill="#000000" d="M 661.328125 449.890625 C 661.328125 451.753906 659.769531 453.265625 657.847656 453.265625 L 242.394531 453.265625 C 240.472656 453.265625 238.910156 451.753906 238.910156 449.890625 C 238.910156 448.027344 240.472656 446.515625 242.394531 446.515625 L 657.847656 446.515625 C 659.769531 446.515625 661.328125 448.027344 661.328125 449.890625 Z M 661.328125 449.890625 " fill-opacity="1" fill-rule="nonzero"/></g><g transform="matrix(1, 0, 0, 1, 245, 234)"><g clip-path="url(#ba68a5fc0f)"><g fill="#000000" fill-opacity="1"><g transform="translate(0.496905, 145.969595)"><g><path d="M 92.703125 0 L 72.625 0 L 65.34375 -22.265625 L 28.34375 -22.265625 L 21.078125 0 L 1.453125 0 L 34.828125 -96.609375 L 59.34375 -96.609375 Z M 45.921875 -76.453125 L 33.5 -38.328125 L 60.0625 -38.328125 L 47.578125 -76.453125 Z M 45.921875 -76.453125 "/></g></g></g><g fill="#000000" fill-opacity="1"><g transform="translate(94.653454, 145.969595)"><g><path d="M 31.65625 0 L 12.5625 0 L 12.5625 -96.609375 L 31.65625 -96.609375 Z M 31.65625 0 "/></g></g></g><g fill="#000000" fill-opacity="1"><g transform="translate(138.923551, 145.969595)"><g><path d="M 52.796875 1.390625 C 43.898438 1.390625 36.054688 -0.457031 29.265625 -4.15625 C 22.484375 -7.863281 17.175781 -13.425781 13.34375 -20.84375 C 9.507812 -28.269531 7.59375 -37.421875 7.59375 -48.296875 C 7.59375 -59.179688 9.507812 -68.332031 13.34375 -75.75 C 17.175781 -83.175781 22.484375 -88.738281 29.265625 -92.4375 C 36.054688 -96.144531 43.898438 -98 52.796875 -98 C 62.085938 -98 69.984375 -96.179688 76.484375 -92.546875 C 82.984375 -88.910156 87.617188 -83.367188 90.390625 -75.921875 L 76.453125 -67.40625 L 74.796875 -67.46875 C 72.722656 -72.488281 69.914062 -76.085938 66.375 -78.265625 C 62.832031 -80.453125 58.304688 -81.546875 52.796875 -81.546875 C 44.773438 -81.546875 38.519531 -78.890625 34.03125 -73.578125 C 29.539062 -68.265625 27.296875 -59.835938 27.296875 -48.296875 C 27.296875 -36.804688 29.539062 -28.40625 34.03125 -23.09375 C 38.519531 -17.78125 44.773438 -15.125 52.796875 -15.125 C 65.347656 -15.125 73.035156 -21.226562 75.859375 -33.4375 L 77.515625 -33.4375 L 91.578125 -26.09375 C 88.941406 -16.9375 84.425781 -10.066406 78.03125 -5.484375 C 71.644531 -0.898438 63.234375 1.390625 52.796875 1.390625 Z M 52.796875 1.390625 "/></g></g></g><g fill="#000000" fill-opacity="1"><g transform="translate(233.674774, 145.969595)"><g><path d="M 49.890625 -96.609375 C 56.804688 -96.609375 62.71875 -95.335938 67.625 -92.796875 C 72.539062 -90.265625 76.253906 -86.71875 78.765625 -82.15625 C 81.273438 -77.601562 82.53125 -72.3125 82.53125 -66.28125 C 82.53125 -60.238281 81.273438 -54.945312 78.765625 -50.40625 C 76.253906 -45.875 72.539062 -42.34375 67.625 -39.8125 C 62.71875 -37.28125 56.804688 -36.015625 49.890625 -36.015625 L 31.65625 -36.015625 L 31.65625 0 L 12.5625 0 L 12.5625 -96.609375 Z M 47.375 -51.140625 C 57.988281 -51.140625 63.296875 -56.1875 63.296875 -66.28125 C 63.296875 -76.40625 57.988281 -81.46875 47.375 -81.46875 L 31.65625 -81.46875 L 31.65625 -51.140625 Z M 47.375 -51.140625 "/></g></g></g><g fill="#000000" fill-opacity="1"><g transform="translate(315.342957, 145.969595)"><g><path d="M 92.703125 0 L 72.625 0 L 65.34375 -22.265625 L 28.34375 -22.265625 L 21.078125 0 L 1.453125 0 L 34.828125 -96.609375 L 59.34375 -96.609375 Z M 45.921875 -76.453125 L 33.5 -38.328125 L 60.0625 -38.328125 L 47.578125 -76.453125 Z M 45.921875 -76.453125 "/></g></g></g></g></g><g transform="matrix(1, 0, 0, 1, 254, 478)"><g clip-path="url(#83b998be28)"><g fill="#000000" fill-opacity="1"><g transform="translate(0.846577, 145.890984)"><g><path d="M 42.8125 1.390625 C 36.125 1.390625 30.164062 0.566406 24.9375 -1.078125 C 19.71875 -2.734375 15.367188 -4.90625 11.890625 -7.59375 C 8.410156 -10.28125 5.75 -13.234375 3.90625 -16.453125 L 14.40625 -29.265625 L 16.0625 -29.265625 C 18.96875 -24.953125 22.65625 -21.515625 27.125 -18.953125 C 31.59375 -16.398438 36.820312 -15.125 42.8125 -15.125 C 47.925781 -15.125 51.78125 -16.203125 54.375 -18.359375 C 56.976562 -20.523438 58.28125 -23.503906 58.28125 -27.296875 C 58.28125 -29.578125 57.859375 -31.488281 57.015625 -33.03125 C 56.179688 -34.582031 54.796875 -35.90625 52.859375 -37 C 50.921875 -38.101562 48.300781 -39.050781 45 -39.84375 L 32.578125 -42.6875 C 23.898438 -44.664062 17.4375 -47.957031 13.1875 -52.5625 C 8.9375 -57.164062 6.8125 -63.144531 6.8125 -70.5 C 6.8125 -75.96875 8.175781 -80.769531 10.90625 -84.90625 C 13.632812 -89.050781 17.609375 -92.269531 22.828125 -94.5625 C 28.046875 -96.851562 34.289062 -98 41.5625 -98 C 49.007812 -98 55.382812 -97.015625 60.6875 -95.046875 C 66 -93.085938 70.484375 -90.082031 74.140625 -86.03125 L 64.6875 -73.078125 L 63.03125 -73.078125 C 60.300781 -75.941406 57.175781 -78.085938 53.65625 -79.515625 C 50.132812 -80.953125 46.101562 -81.671875 41.5625 -81.671875 C 36.320312 -81.671875 32.332031 -80.742188 29.59375 -78.890625 C 26.863281 -77.046875 25.5 -74.492188 25.5 -71.234375 C 25.5 -68.191406 26.457031 -65.765625 28.375 -63.953125 C 30.289062 -62.148438 33.609375 -60.742188 38.328125 -59.734375 L 51.015625 -57.09375 C 60.398438 -55.113281 67.207031 -51.753906 71.4375 -47.015625 C 75.664062 -42.273438 77.78125 -36.097656 77.78125 -28.484375 C 77.78125 -22.441406 76.476562 -17.1875 73.875 -12.71875 C 71.28125 -8.25 67.359375 -4.78125 62.109375 -2.3125 C 56.867188 0.15625 50.4375 1.390625 42.8125 1.390625 Z M 42.8125 1.390625 "/></g></g></g><g fill="#000000" fill-opacity="1"><g transform="translate(83.83649, 145.890984)"><g><path d="M 52.671875 1.390625 C 43.804688 1.390625 35.992188 -0.414062 29.234375 -4.03125 C 22.472656 -7.644531 17.175781 -13.160156 13.34375 -20.578125 C 9.507812 -28.003906 7.59375 -37.242188 7.59375 -48.296875 C 7.59375 -59.359375 9.507812 -68.597656 13.34375 -76.015625 C 17.175781 -83.441406 22.472656 -88.960938 29.234375 -92.578125 C 35.992188 -96.191406 43.804688 -98 52.671875 -98 C 61.523438 -98 69.320312 -96.203125 76.0625 -92.609375 C 82.800781 -89.015625 88.070312 -83.492188 91.875 -76.046875 C 95.6875 -68.609375 97.59375 -59.359375 97.59375 -48.296875 C 97.59375 -37.242188 95.6875 -27.992188 91.875 -20.546875 C 88.070312 -13.109375 82.800781 -7.59375 76.0625 -4 C 69.320312 -0.40625 61.523438 1.390625 52.671875 1.390625 Z M 52.671875 -15.203125 C 60.859375 -15.203125 67.109375 -17.832031 71.421875 -23.09375 C 75.742188 -28.351562 77.90625 -36.753906 77.90625 -48.296875 C 77.90625 -59.835938 75.742188 -68.25 71.421875 -73.53125 C 67.109375 -78.820312 60.859375 -81.46875 52.671875 -81.46875 C 44.429688 -81.46875 38.140625 -78.820312 33.796875 -73.53125 C 29.460938 -68.25 27.296875 -59.835938 27.296875 -48.296875 C 27.296875 -36.753906 29.460938 -28.351562 33.796875 -23.09375 C 38.140625 -17.832031 44.429688 -15.203125 52.671875 -15.203125 Z M 52.671875 -15.203125 "/></g></g></g><g fill="#000000" fill-opacity="1"><g transform="translate(189.093601, 145.890984)"><g><path d="M 52.796875 1.390625 C 43.898438 1.390625 36.054688 -0.457031 29.265625 -4.15625 C 22.484375 -7.863281 17.175781 -13.425781 13.34375 -20.84375 C 9.507812 -28.269531 7.59375 -37.421875 7.59375 -48.296875 C 7.59375 -59.179688 9.507812 -68.332031 13.34375 -75.75 C 17.175781 -83.175781 22.484375 -88.738281 29.265625 -92.4375 C 36.054688 -96.144531 43.898438 -98 52.796875 -98 C 62.085938 -98 69.984375 -96.179688 76.484375 -92.546875 C 82.984375 -88.910156 87.617188 -83.367188 90.390625 -75.921875 L 76.453125 -67.40625 L 74.796875 -67.46875 C 72.722656 -72.488281 69.914062 -76.085938 66.375 -78.265625 C 62.832031 -80.453125 58.304688 -81.546875 52.796875 -81.546875 C 44.773438 -81.546875 38.519531 -78.890625 34.03125 -73.578125 C 29.539062 -68.265625 27.296875 -59.835938 27.296875 -48.296875 C 27.296875 -36.804688 29.539062 -28.40625 34.03125 -23.09375 C 38.519531 -17.78125 44.773438 -15.125 52.796875 -15.125 C 65.347656 -15.125 73.035156 -21.226562 75.859375 -33.4375 L 77.515625 -33.4375 L 91.578125 -26.09375 C 88.941406 -16.9375 84.425781 -10.066406 78.03125 -5.484375 C 71.644531 -0.898438 63.234375 1.390625 52.796875 1.390625 Z M 52.796875 1.390625 "/></g></g></g><g fill="#000000" fill-opacity="1"><g transform="translate(283.844824, 145.890984)"><g/></g></g><g fill="#000000" fill-opacity="1"><g transform="translate(315.758939, 145.890984)"><g><path d="M 4.6875 -7.671875 C 4.6875 -12.992188 5.269531 -17.484375 6.4375 -21.140625 C 7.601562 -24.796875 9.507812 -28.132812 12.15625 -31.15625 C 14.800781 -34.175781 18.546875 -37.425781 23.390625 -40.90625 L 36.28125 -50.21875 C 39.800781 -52.726562 42.539062 -54.90625 44.5 -56.75 C 46.457031 -58.601562 47.929688 -60.539062 48.921875 -62.5625 C 49.921875 -64.59375 50.421875 -66.910156 50.421875 -69.515625 C 50.421875 -73.429688 49.226562 -76.457031 46.84375 -78.59375 C 44.46875 -80.738281 40.898438 -81.8125 36.140625 -81.8125 C 31.554688 -81.8125 27.476562 -80.71875 23.90625 -78.53125 C 20.34375 -76.351562 17.394531 -73.367188 15.0625 -69.578125 L 13.8125 -69.25 L 3.296875 -81.015625 C 6.734375 -86.117188 11.21875 -90.222656 16.75 -93.328125 C 22.28125 -96.441406 28.988281 -98 36.875 -98 C 44.09375 -98 50.132812 -96.804688 55 -94.421875 C 59.875 -92.046875 63.488281 -88.796875 65.84375 -84.671875 C 68.195312 -80.554688 69.375 -75.832031 69.375 -70.5 C 69.375 -65.925781 68.414062 -61.742188 66.5 -57.953125 C 64.59375 -54.160156 61.941406 -50.65625 58.546875 -47.4375 C 55.148438 -44.226562 50.8125 -40.769531 45.53125 -37.0625 L 34.09375 -29.078125 C 30.65625 -26.609375 28.253906 -24.414062 26.890625 -22.5 C 25.523438 -20.582031 24.84375 -18.410156 24.84375 -15.984375 L 68.453125 -15.984375 L 68.453125 0 L 4.6875 0 Z M 4.6875 -7.671875 "/></g></g></g></g></g></svg>