<svg width="171" height="200" viewBox="0 0 171 200" fill="none" xmlns="http://www.w3.org/2000/svg">
<path d="M2 98H132V163H2V98Z" fill="white"/>
<path d="M167.578 38.4L132.138 2.96C130.229 1.05111 127.691 0 124.991 0H30.3956C24.8222 0 20.2889 4.53333 20.2889 10.1067V92.5778H9.50445C4.26444 92.5778 0 96.7422 0 101.86V158.373C0 163.493 4.26444 167.658 9.50445 167.658H20.2889V189.893C20.2889 195.467 24.8222 200 30.3956 200H160.433C166.007 200 170.54 195.467 170.54 189.893V45.5467C170.538 42.8467 169.487 40.3111 167.578 38.4ZM131.131 11.38L159.158 39.4067H133.969C132.404 39.4067 131.131 38.1333 131.131 36.5689V11.38ZM6.66667 158.376V101.86C6.66667 100.418 7.94 99.2444 9.50445 99.2444H127.987C129.551 99.2444 130.824 100.418 130.824 101.86V158.373C130.824 159.816 129.551 160.991 127.987 160.991H9.50445C7.94 160.991 6.66667 159.818 6.66667 158.376ZM160.431 193.333H30.3956C28.4978 193.333 26.9556 191.791 26.9556 189.893V167.658H127.989C133.229 167.658 137.493 163.493 137.493 158.373V101.86C137.493 96.7422 133.229 92.5778 127.989 92.5778H26.9556V10.1067C26.9556 8.20889 28.4978 6.66667 30.3956 6.66667H124.464V36.5689C124.464 41.8089 128.729 46.0733 133.969 46.0733H163.871V189.893C163.871 191.791 162.329 193.333 160.431 193.333Z" fill="white"/>
<path d="M21.2614 152H5.7926V108.364H21.3892C25.7784 108.364 29.5568 109.237 32.7244 110.984C35.892 112.717 38.3281 115.21 40.0327 118.463C41.7514 121.716 42.6108 125.608 42.6108 130.139C42.6108 134.685 41.7514 138.591 40.0327 141.858C38.3281 145.125 35.8778 147.632 32.6818 149.379C29.5 151.126 25.6932 152 21.2614 152ZM15.0185 144.095H20.8778C23.6051 144.095 25.8991 143.612 27.7599 142.646C29.6349 141.666 31.0412 140.153 31.9787 138.108C32.9304 136.048 33.4062 133.392 33.4062 130.139C33.4062 126.915 32.9304 124.28 31.9787 122.234C31.0412 120.189 29.642 118.683 27.7812 117.717C25.9204 116.751 23.6264 116.268 20.8991 116.268H15.0185V144.095Z" fill="black"/>
<path d="M89.5444 130.182C89.5444 134.94 88.6424 138.989 86.8384 142.327C85.0486 145.665 82.6055 148.214 79.5089 149.976C76.4265 151.723 72.9606 152.597 69.1111 152.597C65.2333 152.597 61.7532 151.716 58.6708 149.955C55.5884 148.193 53.1523 145.643 51.3626 142.305C49.5728 138.967 48.6779 134.926 48.6779 130.182C48.6779 125.423 49.5728 121.375 51.3626 118.037C53.1523 114.699 55.5884 112.156 58.6708 110.409C61.7532 108.648 65.2333 107.767 69.1111 107.767C72.9606 107.767 76.4265 108.648 79.5089 110.409C82.6055 112.156 85.0486 114.699 86.8384 118.037C88.6424 121.375 89.5444 125.423 89.5444 130.182ZM80.1907 130.182C80.1907 127.099 79.729 124.5 78.8057 122.384C77.8967 120.267 76.6111 118.662 74.9492 117.568C73.2873 116.474 71.3413 115.928 69.1111 115.928C66.881 115.928 64.935 116.474 63.2731 117.568C61.6111 118.662 60.3185 120.267 59.3952 122.384C58.4861 124.5 58.0316 127.099 58.0316 130.182C58.0316 133.264 58.4861 135.864 59.3952 137.98C60.3185 140.097 61.6111 141.702 63.2731 142.795C64.935 143.889 66.881 144.436 69.1111 144.436C71.3413 144.436 73.2873 143.889 74.9492 142.795C76.6111 141.702 77.8967 140.097 78.8057 137.98C79.729 135.864 80.1907 133.264 80.1907 130.182Z" fill="black"/>
<path d="M134.88 123.641H125.548C125.377 122.433 125.029 121.361 124.504 120.423C123.978 119.472 123.303 118.662 122.479 117.994C121.656 117.327 120.704 116.815 119.624 116.46C118.559 116.105 117.401 115.928 116.151 115.928C113.893 115.928 111.925 116.489 110.249 117.611C108.573 118.719 107.273 120.338 106.35 122.469C105.427 124.585 104.965 127.156 104.965 130.182C104.965 133.293 105.427 135.906 106.35 138.023C107.288 140.139 108.594 141.737 110.271 142.817C111.947 143.896 113.886 144.436 116.087 144.436C117.323 144.436 118.467 144.273 119.518 143.946C120.583 143.619 121.528 143.143 122.352 142.518C123.175 141.879 123.857 141.105 124.397 140.196C124.951 139.287 125.335 138.25 125.548 137.085L134.88 137.128C134.638 139.131 134.035 141.062 133.069 142.923C132.117 144.77 130.832 146.425 129.212 147.888C127.607 149.337 125.69 150.487 123.46 151.339C121.244 152.178 118.736 152.597 115.938 152.597C112.046 152.597 108.566 151.716 105.498 149.955C102.444 148.193 100.029 145.643 98.2535 142.305C96.4922 138.967 95.6115 134.926 95.6115 130.182C95.6115 125.423 96.5064 121.375 98.2962 118.037C100.086 114.699 102.515 112.156 105.583 110.409C108.651 108.648 112.103 107.767 115.938 107.767C118.467 107.767 120.81 108.122 122.969 108.832C125.143 109.543 127.067 110.58 128.744 111.943C130.42 113.293 131.783 114.947 132.835 116.908C133.9 118.868 134.582 121.112 134.88 123.641Z" fill="black"/>
</svg>
