<svg width="171" height="200" viewBox="0 0 171 200" fill="none" xmlns="http://www.w3.org/2000/svg">
<path d="M2 98H132V163H2V98Z" fill="white"/>
<path d="M167.578 38.4L132.138 2.96C130.229 1.05111 127.691 0 124.991 0H30.3956C24.8222 0 20.2889 4.53333 20.2889 10.1067V92.5778H9.50445C4.26444 92.5778 0 96.7422 0 101.86V158.373C0 163.493 4.26444 167.658 9.50445 167.658H20.2889V189.893C20.2889 195.467 24.8222 200 30.3956 200H160.433C166.007 200 170.54 195.467 170.54 189.893V45.5467C170.538 42.8467 169.487 40.3111 167.578 38.4ZM131.131 11.38L159.158 39.4067H133.969C132.404 39.4067 131.131 38.1333 131.131 36.5689V11.38ZM6.66667 158.376V101.86C6.66667 100.418 7.94 99.2444 9.50445 99.2444H127.987C129.551 99.2444 130.824 100.418 130.824 101.86V158.373C130.824 159.816 129.551 160.991 127.987 160.991H9.50445C7.94 160.991 6.66667 159.818 6.66667 158.376ZM160.431 193.333H30.3956C28.4978 193.333 26.9556 191.791 26.9556 189.893V167.658H127.989C133.229 167.658 137.493 163.493 137.493 158.373V101.86C137.493 96.7422 133.229 92.5778 127.989 92.5778H26.9556V10.1067C26.9556 8.20889 28.4978 6.66667 30.3956 6.66667H124.464V36.5689C124.464 41.8089 128.729 46.0733 133.969 46.0733H163.871V189.893C163.871 191.791 162.329 193.333 160.431 193.333Z" fill="white"/>
<path d="M28.2642 108.364H37.3835V138.79C37.3835 141.602 36.7514 144.045 35.4872 146.119C34.2372 148.193 32.4972 149.791 30.267 150.913C28.0369 152.035 25.4446 152.597 22.4901 152.597C19.8622 152.597 17.4758 152.135 15.331 151.212C13.2003 150.274 11.5099 148.854 10.2599 146.95C9.00994 145.033 8.39204 142.625 8.40625 139.727H17.5895C17.6179 140.878 17.8523 141.865 18.2926 142.689C18.7472 143.499 19.3651 144.124 20.1463 144.564C20.9418 144.99 21.8793 145.203 22.9588 145.203C24.0952 145.203 25.054 144.962 25.8352 144.479C26.6307 143.982 27.2344 143.257 27.6463 142.305C28.0582 141.354 28.2642 140.182 28.2642 138.79V108.364Z" fill="black"/>
<path d="M45.0114 152V108.364H62.2273C65.5369 108.364 68.3565 108.996 70.6861 110.26C73.0156 111.51 74.7912 113.25 76.0128 115.48C77.2486 117.696 77.8665 120.253 77.8665 123.151C77.8665 126.048 77.2415 128.605 75.9915 130.821C74.7415 133.037 72.9304 134.763 70.5582 135.999C68.2003 137.234 65.3452 137.852 61.9929 137.852H51.0199V130.459H60.5014C62.277 130.459 63.7401 130.153 64.8906 129.543C66.0554 128.918 66.9219 128.058 67.4901 126.964C68.0724 125.857 68.3636 124.585 68.3636 123.151C68.3636 121.702 68.0724 120.437 67.4901 119.358C66.9219 118.264 66.0554 117.419 64.8906 116.822C63.7258 116.212 62.2486 115.906 60.4588 115.906H54.2372V152H45.0114Z" fill="black"/>
<path d="M112.794 122.469C112.495 121.432 112.076 120.516 111.537 119.72C110.997 118.91 110.336 118.229 109.555 117.675C108.788 117.107 107.907 116.673 106.913 116.375C105.933 116.077 104.846 115.928 103.653 115.928C101.423 115.928 99.4627 116.482 97.7724 117.589C96.0962 118.697 94.7894 120.31 93.8519 122.426C92.9144 124.528 92.4457 127.099 92.4457 130.139C92.4457 133.179 92.9073 135.764 93.8306 137.895C94.7539 140.026 96.0607 141.652 97.7511 142.774C99.4414 143.882 101.437 144.436 103.738 144.436C105.826 144.436 107.609 144.067 109.086 143.328C110.578 142.575 111.714 141.517 112.495 140.153C113.291 138.79 113.689 137.178 113.689 135.317L115.564 135.594H104.314V128.648H122.574V134.145C122.574 137.98 121.764 141.276 120.145 144.031C118.525 146.773 116.295 148.889 113.454 150.381C110.613 151.858 107.36 152.597 103.696 152.597C99.6048 152.597 96.011 151.695 92.9144 149.891C89.8178 148.072 87.403 145.494 85.6701 142.156C83.9513 138.804 83.092 134.827 83.092 130.224C83.092 126.687 83.6033 123.534 84.6261 120.764C85.663 117.98 87.1119 115.622 88.9726 113.69C90.8334 111.759 92.9996 110.288 95.4712 109.28C97.9428 108.271 100.62 107.767 103.504 107.767C105.975 107.767 108.277 108.129 110.407 108.854C112.538 109.564 114.427 110.572 116.075 111.879C117.737 113.186 119.093 114.741 120.145 116.545C121.196 118.335 121.87 120.31 122.169 122.469H112.794Z" fill="black"/>
</svg>
