<svg width="171" height="200" viewBox="0 0 171 200" fill="none" xmlns="http://www.w3.org/2000/svg">
<path d="M2 98H132V163H2V98Z" fill="white"/>
<path d="M167.578 38.4L132.138 2.96C130.229 1.05111 127.691 0 124.991 0H30.3956C24.8222 0 20.2889 4.53333 20.2889 10.1067V92.5778H9.50445C4.26444 92.5778 0 96.7422 0 101.86V158.373C0 163.493 4.26444 167.658 9.50445 167.658H20.2889V189.893C20.2889 195.467 24.8222 200 30.3956 200H160.433C166.007 200 170.54 195.467 170.54 189.893V45.5467C170.538 42.8467 169.487 40.3111 167.578 38.4ZM131.131 11.38L159.158 39.4067H133.969C132.404 39.4067 131.131 38.1333 131.131 36.5689V11.38ZM6.66667 158.376V101.86C6.66667 100.418 7.94 99.2444 9.50445 99.2444H127.987C129.551 99.2444 130.824 100.418 130.824 101.86V158.373C130.824 159.816 129.551 160.991 127.987 160.991H9.50445C7.94 160.991 6.66667 159.818 6.66667 158.376ZM160.431 193.333H30.3956C28.4978 193.333 26.9556 191.791 26.9556 189.893V167.658H127.989C133.229 167.658 137.493 163.493 137.493 158.373V101.86C137.493 96.7422 133.229 92.5778 127.989 92.5778H26.9556V10.1067C26.9556 8.20889 28.4978 6.66667 30.3956 6.66667H124.464V36.5689C124.464 41.8089 128.729 46.0733 133.969 46.0733H163.871V189.893C163.871 191.791 162.329 193.333 160.431 193.333Z" fill="white"/>
</svg>
