<svg width="171" height="200" viewBox="0 0 171 200" fill="none" xmlns="http://www.w3.org/2000/svg">
<path d="M2 98H132V163H2V98Z" fill="white"/>
<path d="M167.578 38.4L132.138 2.96C130.229 1.05111 127.691 0 124.991 0H30.3956C24.8222 0 20.2889 4.53333 20.2889 10.1067V92.5778H9.50445C4.26444 92.5778 0 96.7422 0 101.86V158.373C0 163.493 4.26444 167.658 9.50445 167.658H20.2889V189.893C20.2889 195.467 24.8222 200 30.3956 200H160.433C166.007 200 170.54 195.467 170.54 189.893V45.5467C170.538 42.8467 169.487 40.3111 167.578 38.4ZM131.131 11.38L159.158 39.4067H133.969C132.404 39.4067 131.131 38.1333 131.131 36.5689V11.38ZM6.66667 158.376V101.86C6.66667 100.418 7.94 99.2444 9.50445 99.2444H127.987C129.551 99.2444 130.824 100.418 130.824 101.86V158.373C130.824 159.816 129.551 160.991 127.987 160.991H9.50445C7.94 160.991 6.66667 159.818 6.66667 158.376ZM160.431 193.333H30.3956C28.4978 193.333 26.9556 191.791 26.9556 189.893V167.658H127.989C133.229 167.658 137.493 163.493 137.493 158.373V101.86C137.493 96.7422 133.229 92.5778 127.989 92.5778H26.9556V10.1067C26.9556 8.20889 28.4978 6.66667 30.3956 6.66667H124.464V36.5689C124.464 41.8089 128.729 46.0733 133.969 46.0733H163.871V189.893C163.871 191.791 162.329 193.333 160.431 193.333Z" fill="white"/>
<path d="M13.7926 152V108.364H31.0085C34.3182 108.364 37.1378 108.996 39.4673 110.26C41.7969 111.51 43.5724 113.25 44.794 115.48C46.0298 117.696 46.6477 120.253 46.6477 123.151C46.6477 126.048 46.0227 128.605 44.7727 130.821C43.5227 133.037 41.7117 134.763 39.3395 135.999C36.9815 137.234 34.1264 137.852 30.7742 137.852H19.8011V130.459H29.2827C31.0582 130.459 32.5213 130.153 33.6719 129.543C34.8367 128.918 35.7031 128.058 36.2713 126.965C36.8537 125.857 37.1449 124.585 37.1449 123.151C37.1449 121.702 36.8537 120.438 36.2713 119.358C35.7031 118.264 34.8367 117.419 33.6719 116.822C32.5071 116.212 31.0298 115.906 29.2401 115.906H23.0185V152H13.7926Z" fill="black"/>
<path d="M68.109 152H52.6403V108.364H68.2369C72.6261 108.364 76.4045 109.237 79.5721 110.984C82.7397 112.717 85.1758 115.21 86.8803 118.463C88.5991 121.716 89.4585 125.608 89.4585 130.139C89.4585 134.685 88.5991 138.591 86.8803 141.858C85.1758 145.125 82.7255 147.632 79.5295 149.379C76.3477 151.126 72.5408 152 68.109 152ZM61.8661 144.095H67.7255C70.4528 144.095 72.7468 143.612 74.6076 142.646C76.4826 141.666 77.8889 140.153 78.8264 138.108C79.7781 136.048 80.2539 133.392 80.2539 130.139C80.2539 126.915 79.7781 124.28 78.8264 122.234C77.8889 120.189 76.4897 118.683 74.6289 117.717C72.7681 116.751 70.4741 116.268 67.7468 116.268H61.8661V144.095Z" fill="black"/>
<path d="M96.2926 152V108.364H125.185V115.97H105.518V126.368H123.267V133.974H105.518V152H96.2926Z" fill="black"/>
</svg>
