<svg width="171" height="200" viewBox="0 0 171 200" fill="none" xmlns="http://www.w3.org/2000/svg">
<path d="M2 98H132V163H2V98Z" fill="white"/>
<path d="M167.578 38.4L132.138 2.96C130.229 1.05111 127.691 0 124.991 0H30.3956C24.8222 0 20.2889 4.53333 20.2889 10.1067V92.5778H9.50445C4.26444 92.5778 0 96.7422 0 101.86V158.373C0 163.493 4.26444 167.658 9.50445 167.658H20.2889V189.893C20.2889 195.467 24.8222 200 30.3956 200H160.433C166.007 200 170.54 195.467 170.54 189.893V45.5467C170.538 42.8467 169.487 40.3111 167.578 38.4ZM131.131 11.38L159.158 39.4067H133.969C132.404 39.4067 131.131 38.1333 131.131 36.5689V11.38ZM6.66667 158.376V101.86C6.66667 100.418 7.94 99.2444 9.50445 99.2444H127.987C129.551 99.2444 130.824 100.418 130.824 101.86V158.373C130.824 159.816 129.551 160.991 127.987 160.991H9.50445C7.94 160.991 6.66667 159.818 6.66667 158.376ZM160.431 193.333H30.3956C28.4978 193.333 26.9556 191.791 26.9556 189.893V167.658H127.989C133.229 167.658 137.493 163.493 137.493 158.373V101.86C137.493 96.7422 133.229 92.5778 127.989 92.5778H26.9556V10.1067C26.9556 8.20889 28.4978 6.66667 30.3956 6.66667H124.464V36.5689C124.464 41.8089 128.729 46.0733 133.969 46.0733H163.871V189.893C163.871 191.791 162.329 193.333 160.431 193.333Z" fill="white"/>
<path d="M14.7926 153V109.364H32.0085C35.3182 109.364 38.1378 109.996 40.4673 111.26C42.7969 112.51 44.5724 114.25 45.794 116.48C47.0298 118.696 47.6477 121.253 47.6477 124.151C47.6477 127.048 47.0227 129.605 45.7727 131.821C44.5227 134.037 42.7116 135.763 40.3395 136.999C37.9815 138.234 35.1264 138.852 31.7741 138.852H20.8011V131.459H30.2827C32.0582 131.459 33.5213 131.153 34.6719 130.543C35.8366 129.918 36.7031 129.058 37.2713 127.965C37.8537 126.857 38.1449 125.585 38.1449 124.151C38.1449 122.702 37.8537 121.438 37.2713 120.358C36.7031 119.264 35.8366 118.419 34.6719 117.822C33.5071 117.212 32.0298 116.906 30.24 116.906H24.0185V153H14.7926Z" fill="black"/>
<path d="M53.6403 153V109.364H70.8562C74.1658 109.364 76.9854 109.996 79.315 111.26C81.6445 112.51 83.4201 114.25 84.6417 116.48C85.8775 118.696 86.4954 121.253 86.4954 124.151C86.4954 127.048 85.8704 129.605 84.6204 131.821C83.3704 134.037 81.5593 135.763 79.1871 136.999C76.8292 138.234 73.9741 138.852 70.6218 138.852H59.6488V131.459H69.1303C70.9059 131.459 72.369 131.153 73.5195 130.543C74.6843 129.918 75.5508 129.058 76.119 127.965C76.7013 126.857 76.9925 125.585 76.9925 124.151C76.9925 122.702 76.7013 121.438 76.119 120.358C75.5508 119.264 74.6843 118.419 73.5195 117.822C72.3547 117.212 70.8775 116.906 69.0877 116.906H62.8661V153H53.6403Z" fill="black"/>
<path d="M90.826 116.97V109.364H126.664V116.97H113.305V153H104.185V116.97H90.826Z" fill="black"/>
</svg>
