<svg width="171" height="200" viewBox="0 0 171 200" fill="none" xmlns="http://www.w3.org/2000/svg">
<path d="M2 98H132V163H2V98Z" fill="white"/>
<path d="M167.578 38.4L132.138 2.96C130.229 1.05111 127.691 0 124.991 0H30.3956C24.8222 0 20.2889 4.53333 20.2889 10.1067V92.5778H9.50445C4.26444 92.5778 0 96.7422 0 101.86V158.373C0 163.493 4.26444 167.658 9.50445 167.658H20.2889V189.893C20.2889 195.467 24.8222 200 30.3956 200H160.433C166.007 200 170.54 195.467 170.54 189.893V45.5467C170.538 42.8467 169.487 40.3111 167.578 38.4ZM131.131 11.38L159.158 39.4067H133.969C132.404 39.4067 131.131 38.1333 131.131 36.5689V11.38ZM6.66667 158.376V101.86C6.66667 100.418 7.94 99.2444 9.50445 99.2444H127.987C129.551 99.2444 130.824 100.418 130.824 101.86V158.373C130.824 159.816 129.551 160.991 127.987 160.991H9.50445C7.94 160.991 6.66667 159.818 6.66667 158.376ZM160.431 193.333H30.3956C28.4978 193.333 26.9556 191.791 26.9556 189.893V167.658H127.989C133.229 167.658 137.493 163.493 137.493 158.373V101.86C137.493 96.7422 133.229 92.5778 127.989 92.5778H26.9556V10.1067C26.9556 8.20889 28.4978 6.66667 30.3956 6.66667H124.464V36.5689C124.464 41.8089 128.729 46.0733 133.969 46.0733H163.871V189.893C163.871 191.791 162.329 193.333 160.431 193.333Z" fill="white"/>
<path d="M23.4432 109.364L32.2429 124.236H32.5838L41.4261 109.364H51.8451L38.5284 131.182L52.1434 153H41.5326L32.5838 138.107H32.2429L23.294 153H12.7258L26.3835 131.182L12.9815 109.364H23.4432Z" fill="black"/>
<path d="M57.6832 153V109.364H66.9091V145.393H85.6165V153H57.6832Z" fill="black"/>
<path d="M115.398 121.913C115.228 120.195 114.496 118.859 113.203 117.908C111.911 116.956 110.157 116.48 107.941 116.48C106.435 116.48 105.164 116.693 104.127 117.119C103.09 117.531 102.294 118.107 101.74 118.845C101.201 119.584 100.931 120.422 100.931 121.359C100.902 122.141 101.066 122.822 101.421 123.405C101.79 123.987 102.294 124.491 102.934 124.918C103.573 125.33 104.311 125.692 105.149 126.004C105.988 126.303 106.882 126.558 107.834 126.771L111.755 127.709C113.658 128.135 115.405 128.703 116.996 129.413C118.587 130.124 119.965 130.997 121.13 132.034C122.294 133.071 123.196 134.293 123.836 135.699C124.489 137.105 124.823 138.717 124.837 140.535C124.823 143.206 124.141 145.521 122.792 147.482C121.456 149.428 119.524 150.94 116.996 152.02C114.482 153.085 111.449 153.618 107.898 153.618C104.375 153.618 101.307 153.078 98.6935 151.999C96.0941 150.919 94.0628 149.321 92.5998 147.205C91.1509 145.074 90.391 142.439 90.3199 139.3H99.2475C99.3469 140.763 99.766 141.984 100.505 142.964C101.257 143.93 102.259 144.662 103.509 145.159C104.773 145.642 106.201 145.884 107.792 145.884C109.354 145.884 110.711 145.656 111.861 145.202C113.026 144.747 113.928 144.115 114.567 143.305C115.206 142.496 115.526 141.565 115.526 140.514C115.526 139.534 115.235 138.71 114.652 138.043C114.084 137.375 113.246 136.807 112.138 136.338C111.044 135.869 109.702 135.443 108.111 135.06L103.36 133.866C99.6807 132.972 96.7759 131.572 94.6452 129.669C92.5145 127.766 91.4563 125.202 91.4705 121.977C91.4563 119.335 92.1594 117.027 93.5799 115.053C95.0145 113.078 96.9819 111.537 99.4819 110.429C101.982 109.321 104.823 108.767 108.005 108.767C111.243 108.767 114.07 109.321 116.485 110.429C118.914 111.537 120.803 113.078 122.152 115.053C123.502 117.027 124.198 119.314 124.24 121.913H115.398Z" fill="black"/>
</svg>
