<svg width="140" height="29" viewBox="0 0 140 29" fill="none" xmlns="http://www.w3.org/2000/svg">
<path d="M128.34 17.2912L128.351 11.8473H129.012L134.253 5.63637H139.463L132.421 13.8608H131.345L128.34 17.2912ZM124.228 22V0.181824H128.767V22H124.228ZM134.456 22L129.64 14.8729L132.666 11.6662L139.772 22H134.456Z" fill="black"/>
<path d="M114.353 22V5.63637H118.753V8.49148H118.923C119.221 7.47586 119.722 6.70881 120.425 6.19035C121.128 5.66478 121.938 5.40199 122.854 5.40199C123.082 5.40199 123.327 5.4162 123.589 5.44461C123.852 5.47302 124.083 5.51208 124.282 5.56179V9.58878C124.069 9.52486 123.774 9.46804 123.398 9.41833C123.021 9.36861 122.677 9.34375 122.364 9.34375C121.697 9.34375 121.1 9.48935 120.574 9.78055C120.056 10.0646 119.644 10.4624 119.339 10.9737C119.04 11.4851 118.891 12.0746 118.891 12.7422V22H114.353Z" fill="black"/>
<path d="M104.017 22.309C102.973 22.309 102.042 22.1279 101.226 21.7656C100.409 21.3963 99.7625 20.853 99.2866 20.1357C98.8179 19.4112 98.5835 18.5092 98.5835 17.4297C98.5835 16.5206 98.7504 15.7571 99.0842 15.1392C99.418 14.5213 99.8725 14.0242 100.448 13.6477C101.023 13.2713 101.677 12.9872 102.408 12.7955C103.147 12.6037 103.921 12.4688 104.73 12.3906C105.682 12.2912 106.449 12.1989 107.032 12.1136C107.614 12.0213 108.037 11.8864 108.299 11.7088C108.562 11.5313 108.694 11.2685 108.694 10.9205V10.8565C108.694 10.1818 108.48 9.65981 108.054 9.29049C107.635 8.92118 107.039 8.73652 106.265 8.73652C105.448 8.73652 104.798 8.91763 104.315 9.27984C103.832 9.63496 103.512 10.0824 103.356 10.6222L99.1588 10.2813C99.3718 9.28694 99.7909 8.42757 100.416 7.70314C101.041 6.9716 101.847 6.41052 102.834 6.0199C103.829 5.62217 104.979 5.42331 106.286 5.42331C107.195 5.42331 108.065 5.52984 108.896 5.74291C109.734 5.95598 110.476 6.28623 111.123 6.73368C111.776 7.18112 112.291 7.7564 112.667 8.45953C113.044 9.15555 113.232 9.99007 113.232 10.9631V22H108.928V19.7308H108.8C108.537 20.2422 108.186 20.6932 107.745 21.0838C107.305 21.4673 106.776 21.7692 106.158 21.9894C105.54 22.2024 104.826 22.309 104.017 22.309ZM105.316 19.1769C105.984 19.1769 106.574 19.0455 107.085 18.7827C107.596 18.5128 107.998 18.1506 108.289 17.696C108.58 17.2415 108.726 16.7266 108.726 16.1513V14.4148C108.583 14.5071 108.388 14.5923 108.14 14.6705C107.898 14.7415 107.625 14.809 107.319 14.8729C107.014 14.9297 106.708 14.983 106.403 15.0327C106.098 15.0753 105.821 15.1144 105.572 15.1499C105.039 15.228 104.574 15.3523 104.177 15.5227C103.779 15.6932 103.47 15.924 103.25 16.2152C103.03 16.4993 102.919 16.8544 102.919 17.2806C102.919 17.8985 103.143 18.3708 103.591 18.6975C104.045 19.0171 104.62 19.1769 105.316 19.1769Z" fill="black"/>
<path d="M74.3872 22V5.63638H78.7125V8.52345H78.9043C79.2452 7.56464 79.8134 6.80825 80.6088 6.25427C81.4043 5.7003 82.356 5.42331 83.464 5.42331C84.5861 5.42331 85.5414 5.70385 86.3297 6.26493C87.1181 6.8189 87.6436 7.57175 87.9064 8.52345H88.0769C88.4107 7.58595 89.0144 6.83666 89.888 6.27558C90.7686 5.7074 91.8091 5.42331 93.0094 5.42331C94.5364 5.42331 95.7757 5.90981 96.7274 6.88283C97.6862 7.84873 98.1657 9.21947 98.1657 10.995V22H93.638V11.8899C93.638 10.9808 93.3965 10.299 92.9135 9.84447C92.4306 9.38993 91.8269 9.16265 91.1024 9.16265C90.2786 9.16265 89.6358 9.42544 89.1742 9.95101C88.7125 10.4695 88.4817 11.1548 88.4817 12.0071V22H84.0818V11.794C84.0818 10.9915 83.851 10.3523 83.3894 9.87643C82.9348 9.40058 82.3347 9.16265 81.589 9.16265C81.0847 9.16265 80.6301 9.2905 80.2253 9.54618C79.8276 9.79476 79.5115 10.1463 79.2772 10.6009C79.0428 11.0483 78.9256 11.5739 78.9256 12.1776V22H74.3872Z" fill="black"/>
<path d="M64.5119 22V5.63637H68.9117V8.49148H69.0822C69.3805 7.47586 69.8812 6.70881 70.5843 6.19035C71.2874 5.66478 72.0971 5.40199 73.0133 5.40199C73.2405 5.40199 73.4856 5.4162 73.7484 5.44461C74.0111 5.47302 74.242 5.51208 74.4408 5.56179V9.58878C74.2278 9.52486 73.933 9.46804 73.5566 9.41833C73.1802 9.36861 72.8357 9.34375 72.5232 9.34375C71.8556 9.34375 71.259 9.48935 70.7334 9.78055C70.215 10.0646 69.803 10.4624 69.4977 10.9737C69.1994 11.4851 69.0502 12.0746 69.0502 12.7422V22H64.5119Z" fill="black"/>
<path d="M56.4396 22.3196C54.7563 22.3196 53.3074 21.9787 52.093 21.2969C50.8856 20.608 49.9552 19.635 49.3018 18.3779C48.6484 17.1136 48.3217 15.6186 48.3217 13.8928C48.3217 12.2095 48.6484 10.7323 49.3018 9.46095C49.9552 8.18964 50.8749 7.19888 52.061 6.48865C53.2542 5.77842 54.6533 5.42331 56.2584 5.42331C57.338 5.42331 58.343 5.59731 59.2734 5.94533C60.2109 6.28623 61.0276 6.80115 61.7236 7.49007C62.4268 8.17899 62.9736 9.04547 63.3643 10.0895C63.7549 11.1264 63.9502 12.3409 63.9502 13.733V14.9794H50.1327V12.1669H59.6782C59.6782 11.5135 59.5361 10.9347 59.2521 10.4304C58.968 9.92615 58.5738 9.53197 58.0695 9.24788C57.5724 8.95669 56.9935 8.81109 56.333 8.81109C55.6441 8.81109 55.0333 8.97089 54.5006 9.29049C53.9751 9.60299 53.5631 10.0256 53.2648 10.5583C52.9665 11.0838 52.8138 11.6698 52.8067 12.3161V14.9901C52.8067 15.7997 52.9559 16.4993 53.2542 17.0888C53.5596 17.6783 53.9893 18.1328 54.5432 18.4524C55.0972 18.772 55.7542 18.9318 56.5141 18.9318C57.0184 18.9318 57.48 18.8608 57.8991 18.7188C58.3181 18.5767 58.6768 18.3637 58.9751 18.0796C59.2734 17.7955 59.5006 17.4475 59.6569 17.0355L63.8543 17.3125C63.6413 18.321 63.2045 19.2017 62.544 19.9546C61.8905 20.7003 61.0454 21.2827 60.0084 21.7017C58.9786 22.1136 57.789 22.3196 56.4396 22.3196Z" fill="black"/>
<path d="M32.3978 28.1364V5.63638H36.8722V8.38496H37.0746C37.2735 7.94462 37.5611 7.49717 37.9376 7.04263C38.3211 6.58098 38.8183 6.19746 39.429 5.89206C40.0469 5.57956 40.814 5.42331 41.7302 5.42331C42.9234 5.42331 44.0242 5.73581 45.0327 6.36081C46.0413 6.97871 46.8474 7.91265 47.4511 9.16265C48.0548 10.4056 48.3566 11.9645 48.3566 13.8395C48.3566 15.6648 48.0619 17.206 47.4724 18.4631C46.89 19.7131 46.0945 20.6612 45.086 21.3075C44.0846 21.9467 42.9624 22.2663 41.7195 22.2663C40.8388 22.2663 40.0896 22.1208 39.4717 21.8296C38.8609 21.5384 38.3602 21.1726 37.9695 20.7323C37.5789 20.2848 37.2806 19.8338 37.0746 19.3793H36.9361V28.1364H32.3978ZM36.8403 13.8182C36.8403 14.7912 36.9752 15.6399 37.2451 16.3644C37.515 17.0888 37.9056 17.6534 38.417 18.0583C38.9283 18.456 39.5498 18.6548 40.2813 18.6548C41.02 18.6548 41.645 18.4524 42.1563 18.0476C42.6677 17.6357 43.0548 17.0675 43.3175 16.3431C43.5874 15.6115 43.7224 14.7699 43.7224 13.8182C43.7224 12.8736 43.591 12.0426 43.3282 11.3253C43.0654 10.608 42.6783 10.0469 42.167 9.64206C41.6556 9.23723 41.0271 9.03481 40.2813 9.03481C39.5427 9.03481 38.9177 9.23013 38.4063 9.62075C37.9021 10.0114 37.515 10.5654 37.2451 11.2827C36.9752 12 36.8403 12.8452 36.8403 13.8182Z" fill="black"/>
<path d="M22.0616 22.309C21.0176 22.309 20.0872 22.1279 19.2704 21.7656C18.4537 21.3963 17.8074 20.853 17.3315 20.1357C16.8628 19.4112 16.6284 18.5092 16.6284 17.4297C16.6284 16.5206 16.7953 15.7571 17.1291 15.1392C17.4629 14.5213 17.9175 14.0242 18.4927 13.6477C19.068 13.2713 19.7214 12.9872 20.453 12.7955C21.1916 12.6037 21.9658 12.4688 22.7754 12.3906C23.7271 12.2912 24.4942 12.1989 25.0766 12.1136C25.6589 12.0213 26.0815 11.8864 26.3443 11.7088C26.6071 11.5313 26.7385 11.2685 26.7385 10.9205V10.8565C26.7385 10.1818 26.5254 9.65981 26.0993 9.29049C25.6802 8.92118 25.0837 8.73652 24.3095 8.73652C23.4927 8.73652 22.8429 8.91763 22.3599 9.27984C21.877 9.63496 21.5574 10.0824 21.4011 10.6222L17.2037 10.2813C17.4168 9.28694 17.8358 8.42757 18.4608 7.70314C19.0858 6.9716 19.8919 6.41052 20.8791 6.0199C21.8734 5.62217 23.024 5.42331 24.3308 5.42331C25.2399 5.42331 26.1099 5.52984 26.9409 5.74291C27.779 5.95598 28.5212 6.28623 29.1675 6.73368C29.8209 7.18112 30.3358 7.7564 30.7122 8.45953C31.0886 9.15555 31.2768 9.99007 31.2768 10.9631V22H26.9729V19.7308H26.845C26.5822 20.2422 26.2307 20.6932 25.7903 21.0838C25.35 21.4673 24.8209 21.7692 24.203 21.9894C23.5851 22.2024 22.8713 22.309 22.0616 22.309ZM23.3614 19.1769C24.029 19.1769 24.6185 19.0455 25.1298 18.7827C25.6412 18.5128 26.0425 18.1506 26.3337 17.696C26.6249 17.2415 26.7704 16.7266 26.7704 16.1513V14.4148C26.6284 14.5071 26.4331 14.5923 26.1845 14.6705C25.943 14.7415 25.6696 14.809 25.3642 14.8729C25.0588 14.9297 24.7534 14.983 24.448 15.0327C24.1426 15.0753 23.8656 15.1144 23.617 15.1499C23.0844 15.228 22.6192 15.3523 22.2214 15.5227C21.8237 15.6932 21.5148 15.924 21.2946 16.2152C21.0744 16.4993 20.9643 16.8544 20.9643 17.2806C20.9643 17.8985 21.1881 18.3708 21.6355 18.6975C22.09 19.0171 22.6653 19.1769 23.3614 19.1769Z" fill="black"/>
<path d="M0.896301 22V0.181824H9.50426C11.1591 0.181824 12.5689 0.497875 13.7337 1.12998C14.8984 1.75498 15.7862 2.62501 16.397 3.74006C17.0149 4.84802 17.3239 6.12643 17.3239 7.57529C17.3239 9.02415 17.0114 10.3026 16.3864 11.4105C15.7614 12.5185 14.8558 13.3814 13.6697 13.9993C12.4908 14.6172 11.0632 14.9261 9.38707 14.9261H3.90056V11.2294H8.64133C9.52911 11.2294 10.2606 11.0767 10.8359 10.7713C11.4183 10.4588 11.8516 10.0291 12.1356 9.48225C12.4268 8.92827 12.5724 8.29262 12.5724 7.57529C12.5724 6.85086 12.4268 6.21875 12.1356 5.67898C11.8516 5.13211 11.4183 4.70952 10.8359 4.41123C10.2535 4.10583 9.51491 3.95313 8.62002 3.95313H5.50923V22H0.896301Z" fill="black"/>
</svg>
