<svg width="154" height="41" viewBox="0 0 154 41" fill="none" xmlns="http://www.w3.org/2000/svg">
<path d="M136.34 26.2912L136.351 20.8473H137.012L142.253 14.6364H147.463L140.421 22.8608H139.345L136.34 26.2912ZM132.228 31V9.18182H136.767V31H132.228ZM142.456 31L137.64 23.8729L140.666 20.6662L147.772 31H142.456Z" fill="black"/>
<path d="M122.353 31V14.6364H126.753V17.4915H126.923C127.221 16.4759 127.722 15.7088 128.425 15.1903C129.128 14.6648 129.938 14.402 130.854 14.402C131.082 14.402 131.327 14.4162 131.589 14.4446C131.852 14.473 132.083 14.5121 132.282 14.5618V18.5888C132.069 18.5249 131.774 18.468 131.398 18.4183C131.021 18.3686 130.677 18.3438 130.364 18.3438C129.697 18.3438 129.1 18.4894 128.574 18.7805C128.056 19.0646 127.644 19.4624 127.339 19.9737C127.04 20.4851 126.891 21.0746 126.891 21.7422V31H122.353Z" fill="black"/>
<path d="M112.017 31.309C110.973 31.309 110.042 31.1279 109.226 30.7656C108.409 30.3963 107.762 29.853 107.287 29.1357C106.818 28.4112 106.583 27.5092 106.583 26.4297C106.583 25.5206 106.75 24.7571 107.084 24.1392C107.418 23.5213 107.873 23.0242 108.448 22.6477C109.023 22.2713 109.677 21.9872 110.408 21.7955C111.147 21.6037 111.921 21.4688 112.73 21.3906C113.682 21.2912 114.449 21.1989 115.032 21.1136C115.614 21.0213 116.037 20.8864 116.299 20.7088C116.562 20.5313 116.694 20.2685 116.694 19.9205V19.8565C116.694 19.1818 116.48 18.6598 116.054 18.2905C115.635 17.9212 115.039 17.7365 114.265 17.7365C113.448 17.7365 112.798 17.9176 112.315 18.2798C111.832 18.635 111.512 19.0824 111.356 19.6222L107.159 19.2813C107.372 18.2869 107.791 17.4276 108.416 16.7031C109.041 15.9716 109.847 15.4105 110.834 15.0199C111.829 14.6222 112.979 14.4233 114.286 14.4233C115.195 14.4233 116.065 14.5298 116.896 14.7429C117.734 14.956 118.476 15.2862 119.123 15.7337C119.776 16.1811 120.291 16.7564 120.667 17.4595C121.044 18.1556 121.232 18.9901 121.232 19.9631V31H116.928V28.7308H116.8C116.537 29.2422 116.186 29.6932 115.745 30.0838C115.305 30.4673 114.776 30.7692 114.158 30.9894C113.54 31.2024 112.826 31.309 112.017 31.309ZM113.316 28.1769C113.984 28.1769 114.574 28.0455 115.085 27.7827C115.596 27.5128 115.998 27.1506 116.289 26.696C116.58 26.2415 116.726 25.7266 116.726 25.1513V23.4148C116.583 23.5071 116.388 23.5923 116.14 23.6705C115.898 23.7415 115.625 23.809 115.319 23.8729C115.014 23.9297 114.708 23.983 114.403 24.0327C114.098 24.0753 113.821 24.1144 113.572 24.1499C113.039 24.228 112.574 24.3523 112.177 24.5227C111.779 24.6932 111.47 24.924 111.25 25.2152C111.03 25.4993 110.919 25.8544 110.919 26.2806C110.919 26.8985 111.143 27.3708 111.591 27.6975C112.045 28.0171 112.62 28.1769 113.316 28.1769Z" fill="black"/>
<path d="M82.3872 31V14.6364H86.7125V17.5235H86.9043C87.2452 16.5646 87.8134 15.8083 88.6088 15.2543C89.4043 14.7003 90.356 14.4233 91.464 14.4233C92.5861 14.4233 93.5414 14.7038 94.3297 15.2649C95.1181 15.8189 95.6436 16.5717 95.9064 17.5235H96.0769C96.4107 16.586 97.0144 15.8367 97.888 15.2756C98.7686 14.7074 99.8091 14.4233 101.009 14.4233C102.536 14.4233 103.776 14.9098 104.727 15.8828C105.686 16.8487 106.166 18.2195 106.166 19.995V31H101.638V20.8899C101.638 19.9808 101.396 19.299 100.914 18.8445C100.431 18.3899 99.8269 18.1627 99.1024 18.1627C98.2786 18.1627 97.6358 18.4254 97.1742 18.951C96.7125 19.4695 96.4817 20.1548 96.4817 21.0071V31H92.0818V20.794C92.0818 19.9915 91.851 19.3523 91.3894 18.8764C90.9348 18.4006 90.3347 18.1627 89.589 18.1627C89.0847 18.1627 88.6301 18.2905 88.2253 18.5462C87.8276 18.7948 87.5115 19.1463 87.2772 19.6009C87.0428 20.0483 86.9256 20.5739 86.9256 21.1776V31H82.3872Z" fill="black"/>
<path d="M72.5119 31V14.6364H76.9117V17.4915H77.0822C77.3805 16.4759 77.8812 15.7088 78.5843 15.1903C79.2874 14.6648 80.0971 14.402 81.0133 14.402C81.2405 14.402 81.4856 14.4162 81.7484 14.4446C82.0111 14.473 82.242 14.5121 82.4408 14.5618V18.5888C82.2278 18.5249 81.933 18.468 81.5566 18.4183C81.1802 18.3686 80.8357 18.3438 80.5232 18.3438C79.8556 18.3438 79.259 18.4894 78.7334 18.7805C78.215 19.0646 77.803 19.4624 77.4977 19.9737C77.1994 20.4851 77.0502 21.0746 77.0502 21.7422V31H72.5119Z" fill="black"/>
<path d="M64.4396 31.3196C62.7563 31.3196 61.3074 30.9787 60.093 30.2969C58.8856 29.608 57.9552 28.635 57.3018 27.3779C56.6484 26.1136 56.3217 24.6186 56.3217 22.8928C56.3217 21.2095 56.6484 19.7323 57.3018 18.461C57.9552 17.1896 58.8749 16.1989 60.061 15.4886C61.2542 14.7784 62.6533 14.4233 64.2584 14.4233C65.338 14.4233 66.343 14.5973 67.2734 14.9453C68.2109 15.2862 69.0276 15.8011 69.7236 16.4901C70.4268 17.179 70.9736 18.0455 71.3643 19.0895C71.7549 20.1264 71.9502 21.3409 71.9502 22.733V23.9794H58.1327V21.1669H67.6782C67.6782 20.5135 67.5361 19.9347 67.2521 19.4304C66.968 18.9261 66.5738 18.532 66.0695 18.2479C65.5724 17.9567 64.9935 17.8111 64.333 17.8111C63.6441 17.8111 63.0333 17.9709 62.5006 18.2905C61.9751 18.603 61.5631 19.0256 61.2648 19.5583C60.9665 20.0838 60.8138 20.6698 60.8067 21.3161V23.9901C60.8067 24.7997 60.9559 25.4993 61.2542 26.0888C61.5596 26.6783 61.9893 27.1328 62.5432 27.4524C63.0972 27.772 63.7542 27.9318 64.5141 27.9318C65.0184 27.9318 65.48 27.8608 65.8991 27.7188C66.3181 27.5767 66.6768 27.3637 66.9751 27.0796C67.2734 26.7955 67.5006 26.4475 67.6569 26.0355L71.8543 26.3125C71.6413 27.321 71.2045 28.2017 70.544 28.9546C69.8905 29.7003 69.0454 30.2827 68.0084 30.7017C66.9786 31.1136 65.789 31.3196 64.4396 31.3196Z" fill="black"/>
<path d="M40.3978 37.1364V14.6364H44.8722V17.385H45.0746C45.2735 16.9446 45.5611 16.4972 45.9376 16.0426C46.3211 15.581 46.8183 15.1975 47.429 14.8921C48.0469 14.5796 48.814 14.4233 49.7302 14.4233C50.9234 14.4233 52.0242 14.7358 53.0327 15.3608C54.0413 15.9787 54.8474 16.9127 55.4511 18.1627C56.0548 19.4056 56.3566 20.9645 56.3566 22.8395C56.3566 24.6648 56.0619 26.206 55.4724 27.4631C54.89 28.7131 54.0945 29.6612 53.086 30.3075C52.0846 30.9467 50.9624 31.2663 49.7195 31.2663C48.8388 31.2663 48.0896 31.1208 47.4717 30.8296C46.8609 30.5384 46.3602 30.1726 45.9695 29.7323C45.5789 29.2848 45.2806 28.8338 45.0746 28.3793H44.9361V37.1364H40.3978ZM44.8403 22.8182C44.8403 23.7912 44.9752 24.6399 45.2451 25.3644C45.515 26.0888 45.9056 26.6534 46.417 27.0583C46.9283 27.456 47.5498 27.6548 48.2813 27.6548C49.02 27.6548 49.645 27.4524 50.1563 27.0476C50.6677 26.6357 51.0548 26.0675 51.3175 25.3431C51.5874 24.6115 51.7224 23.7699 51.7224 22.8182C51.7224 21.8736 51.591 21.0426 51.3282 20.3253C51.0654 19.608 50.6783 19.0469 50.167 18.6421C49.6556 18.2372 49.0271 18.0348 48.2813 18.0348C47.5427 18.0348 46.9177 18.2301 46.4063 18.6208C45.9021 19.0114 45.515 19.5654 45.2451 20.2827C44.9752 21 44.8403 21.8452 44.8403 22.8182Z" fill="black"/>
<path d="M30.0616 31.309C29.0176 31.309 28.0872 31.1279 27.2704 30.7656C26.4537 30.3963 25.8074 29.853 25.3315 29.1357C24.8628 28.4112 24.6284 27.5092 24.6284 26.4297C24.6284 25.5206 24.7953 24.7571 25.1291 24.1392C25.4629 23.5213 25.9175 23.0242 26.4927 22.6477C27.068 22.2713 27.7214 21.9872 28.453 21.7955C29.1916 21.6037 29.9658 21.4688 30.7754 21.3906C31.7271 21.2912 32.4942 21.1989 33.0766 21.1136C33.6589 21.0213 34.0815 20.8864 34.3443 20.7088C34.6071 20.5313 34.7385 20.2685 34.7385 19.9205V19.8565C34.7385 19.1818 34.5254 18.6598 34.0993 18.2905C33.6802 17.9212 33.0837 17.7365 32.3095 17.7365C31.4927 17.7365 30.8429 17.9176 30.3599 18.2798C29.877 18.635 29.5574 19.0824 29.4011 19.6222L25.2037 19.2813C25.4168 18.2869 25.8358 17.4276 26.4608 16.7031C27.0858 15.9716 27.8919 15.4105 28.8791 15.0199C29.8734 14.6222 31.024 14.4233 32.3308 14.4233C33.2399 14.4233 34.1099 14.5298 34.9409 14.7429C35.779 14.956 36.5212 15.2862 37.1675 15.7337C37.8209 16.1811 38.3358 16.7564 38.7122 17.4595C39.0886 18.1556 39.2768 18.9901 39.2768 19.9631V31H34.9729V28.7308H34.845C34.5822 29.2422 34.2307 29.6932 33.7903 30.0838C33.35 30.4673 32.8209 30.7692 32.203 30.9894C31.5851 31.2024 30.8713 31.309 30.0616 31.309ZM31.3614 28.1769C32.029 28.1769 32.6185 28.0455 33.1298 27.7827C33.6412 27.5128 34.0425 27.1506 34.3337 26.696C34.6249 26.2415 34.7704 25.7266 34.7704 25.1513V23.4148C34.6284 23.5071 34.4331 23.5923 34.1845 23.6705C33.943 23.7415 33.6696 23.809 33.3642 23.8729C33.0588 23.9297 32.7534 23.983 32.448 24.0327C32.1426 24.0753 31.8656 24.1144 31.617 24.1499C31.0844 24.228 30.6192 24.3523 30.2214 24.5227C29.8237 24.6932 29.5148 24.924 29.2946 25.2152C29.0744 25.4993 28.9643 25.8544 28.9643 26.2806C28.9643 26.8985 29.1881 27.3708 29.6355 27.6975C30.09 28.0171 30.6653 28.1769 31.3614 28.1769Z" fill="black"/>
<path d="M8.8963 31V9.18182H17.5043C19.1591 9.18182 20.5689 9.49788 21.7337 10.13C22.8984 10.755 23.7862 11.625 24.397 12.7401C25.0149 13.848 25.3239 15.1264 25.3239 16.5753C25.3239 18.0242 25.0114 19.3026 24.3864 20.4105C23.7614 21.5185 22.8558 22.3814 21.6697 22.9993C20.4908 23.6172 19.0632 23.9261 17.3871 23.9261H11.9006V20.2294H16.6413C17.5291 20.2294 18.2606 20.0767 18.8359 19.7713C19.4183 19.4588 19.8516 19.0291 20.1356 18.4823C20.4268 17.9283 20.5724 17.2926 20.5724 16.5753C20.5724 15.8509 20.4268 15.2188 20.1356 14.679C19.8516 14.1321 19.4183 13.7095 18.8359 13.4112C18.2535 13.1058 17.5149 12.9531 16.62 12.9531H13.5092V31H8.8963Z" fill="black"/>
</svg>
