<svg fill="#FFFFFF" width="800px" height="800px" viewBox="0 0 35 35" data-name="Layer 2" id="bd7cde45-0ae7-42a0-942c-e7941e4f9ae8" xmlns="http://www.w3.org/2000/svg">
<path d="M30.559,13.4H4.441A4.2,4.2,0,0,1,.25,9.206V4.441A4.2,4.2,0,0,1,4.441.25H30.559A4.2,4.2,0,0,1,34.75,4.441V9.206A4.2,4.2,0,0,1,30.559,13.4ZM4.441,2.75A1.693,1.693,0,0,0,2.75,4.441V9.206A1.693,1.693,0,0,0,4.441,10.9H30.559a1.693,1.693,0,0,0,1.691-1.69V4.441A1.693,1.693,0,0,0,30.559,2.75Z"/>
<path d="M8.174,8.9a1.25,1.25,0,0,1-1.25-1.25v-2a1.25,1.25,0,0,1,2.5,0v2A1.25,1.25,0,0,1,8.174,8.9Z"/>
<path d="M27.067,8.323a1.5,1.5,0,0,0,0-3,1.5,1.5,0,0,0,0,3Z"/>
<path d="M22.067,8.323a1.5,1.5,0,0,0,0-3,1.5,1.5,0,0,0,0,3Z"/>
<path d="M30.559,24.074H4.441A4.2,4.2,0,0,1,.25,19.882V15.118a4.2,4.2,0,0,1,4.191-4.191H30.559a4.2,4.2,0,0,1,4.191,4.191v4.764A4.2,4.2,0,0,1,30.559,24.074ZM4.441,13.427A1.693,1.693,0,0,0,2.75,15.118v4.764a1.694,1.694,0,0,0,1.691,1.692H30.559a1.694,1.694,0,0,0,1.691-1.692V15.118a1.693,1.693,0,0,0-1.691-1.691Z"/>
<path d="M8.174,19.577a1.25,1.25,0,0,1-1.25-1.25v-2a1.25,1.25,0,1,1,2.5,0v2A1.25,1.25,0,0,1,8.174,19.577Z"/>
<path d="M30.559,34.75H4.441A4.2,4.2,0,0,1,.25,30.559V25.794A4.2,4.2,0,0,1,4.441,21.6H30.559a4.2,4.2,0,0,1,4.191,4.19v4.765A4.2,4.2,0,0,1,30.559,34.75ZM4.441,24.1a1.693,1.693,0,0,0-1.691,1.69v4.765A1.693,1.693,0,0,0,4.441,32.25H30.559a1.693,1.693,0,0,0,1.691-1.691V25.794a1.693,1.693,0,0,0-1.691-1.69Z"/>
<path d="M8.174,30.253A1.25,1.25,0,0,1,6.924,29V27a1.25,1.25,0,0,1,2.5,0v2A1.249,1.249,0,0,1,8.174,30.253Z"/>
</svg>