<svg width="171" height="200" viewBox="0 0 171 200" fill="none" xmlns="http://www.w3.org/2000/svg">
<path d="M2 98H132V163H2V98Z" fill="white"/>
<path d="M167.578 38.4L132.138 2.96C130.229 1.05111 127.691 0 124.991 0H30.3956C24.8222 0 20.2889 4.53333 20.2889 10.1067V92.5778H9.50445C4.26444 92.5778 0 96.7422 0 101.86V158.373C0 163.493 4.26444 167.658 9.50445 167.658H20.2889V189.893C20.2889 195.467 24.8222 200 30.3956 200H160.433C166.007 200 170.54 195.467 170.54 189.893V45.5467C170.538 42.8467 169.487 40.3111 167.578 38.4ZM131.131 11.38L159.158 39.4067H133.969C132.404 39.4067 131.131 38.1333 131.131 36.5689V11.38ZM6.66667 158.376V101.86C6.66667 100.418 7.94 99.2444 9.50445 99.2444H127.987C129.551 99.2444 130.824 100.418 130.824 101.86V158.373C130.824 159.816 129.551 160.991 127.987 160.991H9.50445C7.94 160.991 6.66667 159.818 6.66667 158.376ZM160.431 193.333H30.3956C28.4978 193.333 26.9556 191.791 26.9556 189.893V167.658H127.989C133.229 167.658 137.493 163.493 137.493 158.373V101.86C137.493 96.7422 133.229 92.5778 127.989 92.5778H26.9556V10.1067C26.9556 8.20889 28.4978 6.66667 30.3956 6.66667H124.464V36.5689C124.464 41.8089 128.729 46.0733 133.969 46.0733H163.871V189.893C163.871 191.791 162.329 193.333 160.431 193.333Z" fill="white"/>
<path d="M51.7272 123.469C51.4289 122.432 51.0099 121.516 50.4701 120.72C49.9303 119.91 49.2698 119.229 48.4886 118.675C47.7215 118.107 46.8409 117.673 45.8465 117.375C44.8664 117.077 43.7798 116.928 42.5866 116.928C40.3565 116.928 38.3963 117.482 36.7059 118.589C35.0298 119.697 33.723 121.31 32.7855 123.426C31.848 125.528 31.3792 128.099 31.3792 131.139C31.3792 134.179 31.8409 136.764 32.7641 138.895C33.6874 141.026 34.9943 142.652 36.6846 143.774C38.3749 144.882 40.3707 145.436 42.6718 145.436C44.7599 145.436 46.5426 145.067 48.0198 144.328C49.5113 143.575 50.6477 142.517 51.4289 141.153C52.2244 139.79 52.6221 138.178 52.6221 136.317L54.4971 136.594H43.2471V129.648H61.507V135.145C61.507 138.98 60.6974 142.276 59.0781 145.031C57.4588 147.773 55.2286 149.889 52.3877 151.381C49.5468 152.858 46.294 153.597 42.6292 153.597C38.5383 153.597 34.9445 152.695 31.848 150.891C28.7514 149.072 26.3366 146.494 24.6036 143.156C22.8849 139.804 22.0255 135.827 22.0255 131.224C22.0255 127.687 22.5369 124.534 23.5596 121.764C24.5965 118.98 26.0454 116.622 27.9062 114.69C29.767 112.759 31.9332 111.288 34.4048 110.28C36.8764 109.271 39.5539 108.767 42.4374 108.767C44.909 108.767 47.2102 109.129 49.3409 109.854C51.4715 110.564 53.3607 111.572 55.0085 112.879C56.6704 114.186 58.0269 115.741 59.0781 117.545C60.1292 119.335 60.8039 121.31 61.1022 123.469H51.7272Z" fill="black"/>
<path d="M77.6629 109.364V153H68.4371V109.364H77.6629Z" fill="black"/>
<path d="M85.2535 153V109.364H114.146V116.97H94.4793V127.368H112.228V134.974H94.4793V153H85.2535Z" fill="black"/>
</svg>
