<svg width="171" height="200" viewBox="0 0 171 200" fill="none" xmlns="http://www.w3.org/2000/svg">
<path d="M2 98H132V163H2V98Z" fill="white"/>
<path d="M167.578 38.4L132.138 2.96C130.229 1.05111 127.691 0 124.991 0H30.3956C24.8222 0 20.2889 4.53333 20.2889 10.1067V92.5778H9.50445C4.26444 92.5778 0 96.7422 0 101.86V158.373C0 163.493 4.26444 167.658 9.50445 167.658H20.2889V189.893C20.2889 195.467 24.8222 200 30.3956 200H160.433C166.007 200 170.54 195.467 170.54 189.893V45.5467C170.538 42.8467 169.487 40.3111 167.578 38.4ZM131.131 11.38L159.158 39.4067H133.969C132.404 39.4067 131.131 38.1333 131.131 36.5689V11.38ZM6.66667 158.376V101.86C6.66667 100.418 7.94 99.2444 9.50445 99.2444H127.987C129.551 99.2444 130.824 100.418 130.824 101.86V158.373C130.824 159.816 129.551 160.991 127.987 160.991H9.50445C7.94 160.991 6.66667 159.818 6.66667 158.376ZM160.431 193.333H30.3956C28.4978 193.333 26.9556 191.791 26.9556 189.893V167.658H127.989C133.229 167.658 137.493 163.493 137.493 158.373V101.86C137.493 96.7422 133.229 92.5778 127.989 92.5778H26.9556V10.1067C26.9556 8.20889 28.4978 6.66667 30.3956 6.66667H124.464V36.5689C124.464 41.8089 128.729 46.0733 133.969 46.0733H163.871V189.893C163.871 191.791 162.329 193.333 160.431 193.333Z" fill="white"/>
<path d="M7.7926 153V109.364H25.0085C28.3182 109.364 31.1378 109.996 33.4673 111.26C35.7969 112.51 37.5724 114.25 38.794 116.48C40.0298 118.696 40.6477 121.253 40.6477 124.151C40.6477 127.048 40.0227 129.605 38.7727 131.821C37.5227 134.037 35.7116 135.763 33.3395 136.999C30.9815 138.234 28.1264 138.852 24.7741 138.852H13.8011V131.459H23.2827C25.0582 131.459 26.5213 131.153 27.6719 130.543C28.8366 129.918 29.7031 129.058 30.2713 127.964C30.8537 126.857 31.1449 125.585 31.1449 124.151C31.1449 122.702 30.8537 121.437 30.2713 120.358C29.7031 119.264 28.8366 118.419 27.6719 117.822C26.5071 117.212 25.0298 116.906 23.24 116.906H17.0185V153H7.7926Z" fill="black"/>
<path d="M83.1388 109.364V153H75.1701L56.1857 125.535H55.8661V153H46.6403V109.364H54.7369L73.5721 136.807H73.9556V109.364H83.1388Z" fill="black"/>
<path d="M119.696 123.469C119.398 122.432 118.979 121.516 118.439 120.72C117.899 119.91 117.239 119.229 116.457 118.675C115.69 118.107 114.81 117.673 113.815 117.375C112.835 117.077 111.749 116.928 110.555 116.928C108.325 116.928 106.365 117.482 104.675 118.589C102.999 119.697 101.692 121.31 100.754 123.426C99.8168 125.528 99.348 128.099 99.348 131.139C99.348 134.179 99.8097 136.764 100.733 138.895C101.656 141.026 102.963 142.652 104.653 143.774C106.344 144.882 108.339 145.436 110.641 145.436C112.729 145.436 114.511 145.067 115.989 144.328C117.48 143.575 118.616 142.517 119.398 141.153C120.193 139.79 120.591 138.178 120.591 136.317L122.466 136.594H111.216V129.648H129.476V135.145C129.476 138.98 128.666 142.276 127.047 145.031C125.428 147.773 123.197 149.889 120.357 151.381C117.516 152.858 114.263 153.597 110.598 153.597C106.507 153.597 102.913 152.695 99.8168 150.891C96.7202 149.072 94.3054 146.494 92.5724 143.156C90.8537 139.804 89.9943 135.827 89.9943 131.224C89.9943 127.687 90.5057 124.534 91.5284 121.764C92.5653 118.98 94.0142 116.622 95.875 114.69C97.7358 112.759 99.902 111.288 102.374 110.28C104.845 109.271 107.523 108.767 110.406 108.767C112.878 108.767 115.179 109.129 117.31 109.854C119.44 110.564 121.33 111.572 122.977 112.879C124.639 114.186 125.996 115.741 127.047 117.545C128.098 119.335 128.773 121.31 129.071 123.469H119.696Z" fill="black"/>
</svg>
