<?xml version="1.0" encoding="UTF-8"?>
<svg version="1.1" xmlns="http://www.w3.org/2000/svg" width="900" height="201">
<path d="M0 0 C297 0 594 0 900 0 C900 66.33 900 132.66 900 201 C603 201 306 201 0 201 C0 134.67 0 68.34 0 0 Z " fill="#FEFEFE" transform="translate(0,0)"/>
<path d="M0 0 C0.33 0 0.66 0 1 0 C4.71889699 21.41364881 2.89620028 47.19352194 -8.359375 66.30859375 C-9.51766239 67.91375127 -10.75548578 69.46073242 -12 71 C-12.59683594 72.08539063 -13.19367188 73.17078125 -13.80859375 74.2890625 C-24.4133304 93.12135671 -45.81992555 106.0107016 -65.93359375 112.1953125 C-103.49650839 122.05258691 -141.61625326 116.21027237 -176.5859375 100.03515625 C-180.9001844 98.18519601 -185.35299088 96.70803311 -189.78125 95.15625 C-192.09138667 94.32639508 -194.37082007 93.40912928 -196.625 92.4375 C-203.84693085 89.36149242 -211.15547362 86.76907121 -219 86 C-220.7325 85.7215625 -220.7325 85.7215625 -222.5 85.4375 C-230.58217048 84.42722869 -235.67602588 85.77368343 -243 89 C-243.81855469 89.2990625 -244.63710937 89.598125 -245.48046875 89.90625 C-248.36480812 91.15836632 -250.65654427 92.76411575 -253.1875 94.625 C-257.78163265 98 -257.78163265 98 -260 98 C-260 98.66 -260 99.32 -260 100 C-260.66 100 -261.32 100 -262 100 C-262 100.66 -262 101.32 -262 102 C-263.609375 103.5859375 -263.609375 103.5859375 -265.75 105.375 C-268.6243732 107.81617866 -271.38543992 110.27649992 -274 113 C-272.25404676 100.84380055 -260.99306754 89.81363684 -251.625 82.6875 C-243.45706714 77.11077343 -236.13085526 73.81644086 -226.3125 72.625 C-225.6311499 72.54008301 -224.9497998 72.45516602 -224.24780273 72.36767578 C-210.97221176 71.10130922 -197.7995617 73.30244543 -184.8125 75.8125 C-183.3709253 76.08376251 -181.92919114 76.3541788 -180.48730469 76.6237793 C-176.96688235 77.2842018 -173.44860268 77.9552708 -169.93096924 78.63037109 C-167.07882203 79.17633321 -164.2249499 79.7130529 -161.37109375 80.25 C-148.67869685 82.64473186 -148.67869685 82.64473186 -144.57397461 83.51342773 C-105.99972494 90.80532564 -66.50890189 80.83800419 -34 60 C-33.24074219 59.41734375 -32.48148438 58.8346875 -31.69921875 58.234375 C-30 57 -30 57 -28 57 C-27.77441406 56.44957031 -27.54882812 55.89914063 -27.31640625 55.33203125 C-25.60429473 52.29900283 -23.37941844 50.17063225 -20.9375 47.6875 C-8.4838284 34.4382571 -0.99907016 18.31628622 0 0 Z " fill="#3DEAA6" transform="translate(294,24)"/>
<path d="M0 0 C4.25171188 8.29375622 4.20038475 17.16074112 4.25 26.3125 C4.26377686 27.74505127 4.26377686 27.74505127 4.27783203 29.20654297 C4.25570185 34.24956847 3.8564981 38.25016712 2 43 C1.69677679 44.68198176 1.42553987 46.37006271 1.1875 48.0625 C-2.61498876 69.92681039 -16.82291354 91.13609787 -34.5 104.375 C-52.60906944 116.75464634 -71.46878651 123.1835207 -93.375 123.3125 C-94.27806885 123.31813965 -95.1811377 123.3237793 -96.11157227 123.32958984 C-101.48129938 123.27147485 -106.46663178 122.67273856 -111.70385742 121.48144531 C-114.11168889 120.97658155 -116.49224284 120.69680698 -118.9375 120.4375 C-141.47209592 116.31414841 -160.89119165 99.1908293 -173.6015625 81.0546875 C-174.06304687 80.37664062 -174.52453125 79.69859375 -175 79 C-174.505 78.01 -174.505 78.01 -174 77 C-173.44054687 77.42410156 -172.88109375 77.84820312 -172.3046875 78.28515625 C-149.29978284 95.11350291 -120.06339279 101.53505636 -91.87890625 97.3125 C-69.91830429 93.49381525 -50.27781598 85.16294211 -33 71 C-32.12601563 70.29101562 -31.25203125 69.58203125 -30.3515625 68.8515625 C-19.36353287 59.48638032 -12.24235618 47.82901499 -6 35 C-5.443125 33.86111328 -5.443125 33.86111328 -4.875 32.69921875 C-3.50469736 28.4720798 -3.02008348 24.14557696 -2.4375 19.75 C-2.31181641 18.84636719 -2.18613281 17.94273438 -2.05664062 17.01171875 C-1.27866334 11.34999926 -0.60881503 5.6822736 0 0 Z " fill="#271D57" transform="translate(307,75)"/>
<path d="M0 0 C0.78125 2.10546875 0.78125 2.10546875 1 4 C-0.134375 4.19335938 -1.26875 4.38671875 -2.4375 4.5859375 C-3.95836032 4.84880225 -5.47919214 5.11183192 -7 5.375 C-7.74378906 5.50132813 -8.48757812 5.62765625 -9.25390625 5.7578125 C-26.68837882 8.78989469 -42.3015519 13.88441249 -55.93359375 25.42578125 C-58 27 -58 27 -60 27 C-60 27.66 -60 28.32 -60 29 C-61.875 31.125 -61.875 31.125 -64 33 C-64.66 33 -65.32 33 -66 33 C-66.26554687 33.58136719 -66.53109375 34.16273437 -66.8046875 34.76171875 C-68.03761708 37.07043983 -69.43441909 38.81918716 -71.125 40.8125 C-84.1310392 57.39519998 -90.35495286 78.02551281 -90 99 C-93.52291486 100.19487316 -96.0694421 99.80817405 -99.68359375 99.07421875 C-100.77607422 98.85443359 -101.86855469 98.63464844 -102.99414062 98.40820312 C-104.13044922 98.17037109 -105.26675781 97.93253906 -106.4375 97.6875 C-108.13616211 97.3481543 -108.13616211 97.3481543 -109.86914062 97.00195312 C-114.78823821 95.99610347 -119.37218394 94.98682493 -124 93 C-122.16231557 70.3191053 -116.69087829 49.88454748 -102 32 C-101.40960938 31.2471875 -100.81921875 30.494375 -100.2109375 29.71875 C-85.07047228 11.42133671 -60.98625479 -1.08384439 -37.48046875 -3.76171875 C-10.86581547 -5.58382184 -10.86581547 -5.58382184 0 0 Z " fill="#F97A9E" transform="translate(240,8)"/>
<path d="M0 0 C6.414375 -0.0825 12.82875 -0.165 19.4375 -0.25 C21.44384521 -0.28641602 23.45019043 -0.32283203 25.51733398 -0.36035156 C27.13524308 -0.37205091 28.75316409 -0.38223977 30.37109375 -0.390625 C31.59753601 -0.4213208 31.59753601 -0.4213208 32.84875488 -0.45263672 C41.76041413 -0.45794839 48.72872578 3.00013226 55.20703125 9 C61.89043501 16.45512577 63.38244936 23.93402694 63.2734375 33.6796875 C62.57691314 42.13748325 58.00281772 48.25522195 52 54 C49.4375 55.8125 49.4375 55.8125 47 57 C46.05125 57.53625 45.1025 58.0725 44.125 58.625 C38.28141782 61.19617616 32.17533889 61.14378529 25.87890625 61.09765625 C25.2175769 61.09664917 24.55624756 61.09564209 23.87487793 61.09460449 C21.43740063 61.0894276 18.99994831 61.07546698 16.5625 61.0625 C8.3640625 61.0315625 8.3640625 61.0315625 0 61 C0 40.87 0 20.74 0 0 Z " fill="#241B55" transform="translate(369,71)"/>
<path d="M0 0 C6.455625 -0.061875 12.91125 -0.12375 19.5625 -0.1875 C21.58705322 -0.21481201 23.61160645 -0.24212402 25.69750977 -0.27026367 C27.32046921 -0.27903386 28.94343531 -0.28667654 30.56640625 -0.29296875 C31.80819641 -0.3159906 31.80819641 -0.3159906 33.07507324 -0.33947754 C41.57608984 -0.34327659 48.20264169 2.63332723 54.56640625 8.42578125 C60.19652026 14.33810648 63.11184833 21.86175338 63.5 30 C63.03077906 39.25245044 59.45532597 46.50308602 53.0859375 53.12109375 C46.01988114 59.4858374 39.10504449 60.15482834 29.98046875 60.09765625 C29.21883423 60.09664917 28.45719971 60.09564209 27.67248535 60.09460449 C24.84414145 60.08939679 22.01581911 60.07543561 19.1875 60.0625 C12.855625 60.041875 6.52375 60.02125 0 60 C0 40.2 0 20.4 0 0 Z " fill="#201752" transform="translate(818,71)"/>
<path d="M0 0 C2.44298478 2.1022251 4.24091015 4.30639367 6 7 C6.4125 7.61101562 6.825 8.22203125 7.25 8.8515625 C11.25558924 16.05605981 11.14844075 25.00440129 10 33 C8.82025854 36.75372284 7.23686431 39.77761867 5 43 C4.401875 43.928125 3.80375 44.85625 3.1875 45.8125 C-4.18308752 53.18308752 -13.07489791 55.41043543 -23.25 55.4375 C-32.06859957 55.40569869 -39.60151422 53.88437705 -46.40625 47.875 C-54.3179592 39.38997854 -56.37583636 31.99119746 -56.28125 20.6171875 C-55.67827068 12.86220346 -52.63567699 6.39064756 -47 1 C-32.69685811 -9.43878425 -14.91318773 -9.7271138 0 0 Z " fill="#231954" transform="translate(671,77)"/>
<path d="M0 0 C4.95 0 9.9 0 15 0 C18.06908387 7.45151444 20.738371 14.96918273 23.25 22.625 C23.61351562 23.72457031 23.97703125 24.82414062 24.3515625 25.95703125 C25.23715622 28.63711752 26.11991207 31.31810177 27 34 C29.14759748 30.77860378 30.25679985 27.82168127 31.56640625 24.1796875 C31.80536118 23.52042267 32.0443161 22.86115784 32.29051208 22.18191528 C33.05164817 20.08096254 33.80752117 17.97817249 34.5625 15.875 C35.32147328 13.76484792 36.08161737 11.65515028 36.84519958 9.54666138 C37.5359526 7.63880053 38.22230219 5.72934712 38.90844727 3.81982422 C40 1 40 1 41 0 C42.41570123 -0.08651611 43.835595 -0.10704904 45.25390625 -0.09765625 C46.53491211 -0.09282227 46.53491211 -0.09282227 47.84179688 -0.08789062 C48.73962891 -0.07951172 49.63746094 -0.07113281 50.5625 -0.0625 C51.46419922 -0.05798828 52.36589844 -0.05347656 53.29492188 -0.04882812 C55.53001314 -0.03700225 57.76497437 -0.0205222 60 0 C61.71529526 4.49998892 63.42410979 9.00236443 65.12695312 13.50708008 C65.70720588 15.03933028 66.28922699 16.57091204 66.87304688 18.10180664 C67.71168864 20.30181502 68.54395113 22.50414531 69.375 24.70703125 C69.63748535 25.39150833 69.8999707 26.07598541 70.17041016 26.78120422 C71.25519008 29.67292756 72 31.88315709 72 35 C72.66 35 73.32 35 74 35 C74.11786865 34.1529248 74.2357373 33.30584961 74.35717773 32.43310547 C75.03449011 28.81579948 76.07110424 25.54342331 77.28515625 22.0703125 C77.6159745 21.11751907 77.6159745 21.11751907 77.95347595 20.14547729 C78.65197419 18.13704545 79.35711478 16.13102206 80.0625 14.125 C80.54015618 12.75536262 81.0173741 11.38557232 81.49414062 10.015625 C82.65689539 6.67497999 83.82862282 3.33768089 85 0 C90.28 0 95.56 0 101 0 C100.2575 2.18625 99.515 4.3725 98.75 6.625 C97.07884053 11.59418782 95.52233799 16.5702817 94.125 21.625 C91.68456383 30.36076538 88.75033873 38.93114087 85.83544922 47.51806641 C85.26587363 49.21014866 84.70536458 50.90530343 84.15283203 52.60302734 C83.88712402 53.41852051 83.62141602 54.23401367 83.34765625 55.07421875 C83.11183838 55.80600342 82.87602051 56.53778809 82.63305664 57.29174805 C82 59 82 59 81 60 C78.64686445 60.07271741 76.29166332 60.08370868 73.9375 60.0625 C72.00197266 60.04896484 72.00197266 60.04896484 70.02734375 60.03515625 C69.02832031 60.02355469 68.02929688 60.01195312 67 60 C63.99118239 53.5106476 61.45093188 46.9269603 59.0625 40.1875 C56.25476361 32.35601472 53.34423911 24.62100643 50 17 C49.69707031 17.94359375 49.39414062 18.8871875 49.08203125 19.859375 C46.77577738 26.95768764 44.28719128 33.86536741 41.3359375 40.7265625 C38.61984694 47.38177854 36.34244269 54.20611123 34 61 C29.05 61 24.1 61 19 61 C14.84216783 48.71645521 10.75130864 36.43224064 7.09277344 23.98974609 C5.18474792 17.52541899 3.08028275 11.14471917 0.8828125 4.7734375 C0 2 0 2 0 0 Z " fill="#231953" transform="translate(515,71)"/>
<path d="M0 0 C6.26206481 -0.1018729 12.52391392 -0.17166281 18.78662109 -0.21972656 C20.91463202 -0.23977468 23.04258832 -0.26702054 25.17041016 -0.30175781 C28.23874433 -0.35057548 31.30634673 -0.37303726 34.375 -0.390625 C35.78954468 -0.42159271 35.78954468 -0.42159271 37.23266602 -0.45318604 C44.31483246 -0.4555626 49.56860081 1.09854663 55.0234375 5.7109375 C59.39632833 11.09490135 61.24539466 15.25494955 61 22.3125 C60.34036965 28.26546034 57.92002134 32.52888812 54 37 C53.01 37.495 53.01 37.495 52 38 C53.46882021 42.97852745 55.61908656 47.24289774 58.125 51.75 C62 58.73572664 62 58.73572664 62 61 C56.72 61 51.44 61 46 61 C45.46890625 59.78441406 44.9378125 58.56882813 44.390625 57.31640625 C43.67785228 55.73142481 42.96426835 54.146808 42.25 52.5625 C41.90195312 51.76005859 41.55390625 50.95761719 41.1953125 50.13085938 C40.84726562 49.36708984 40.49921875 48.60332031 40.140625 47.81640625 C39.82641602 47.10943604 39.51220703 46.40246582 39.18847656 45.67407227 C38.1206232 43.84126523 38.1206232 43.84126523 36.07104492 43.26538086 C31.87072659 42.72715782 27.63491585 42.99020465 23.41015625 43.0625 C20 43 20 43 15 42 C15 48.27 15 54.54 15 61 C4.16015625 61.09765625 4.16015625 61.09765625 1 61 C0 60 0 60 -0.12025452 57.60191345 C-0.11803391 56.53824051 -0.11581329 55.47456757 -0.11352539 54.37866211 C-0.11344986 53.17749252 -0.11337433 51.97632294 -0.11329651 50.73875427 C-0.10813522 49.4314888 -0.10297394 48.12422333 -0.09765625 46.77734375 C-0.09579198 45.43355868 -0.09436812 44.08977293 -0.09336853 42.74598694 C-0.08954402 39.20317723 -0.07971432 35.6604083 -0.06866455 32.11761475 C-0.05844899 28.50484773 -0.0538706 24.89207416 -0.04882812 21.27929688 C-0.03809198 14.1861812 -0.02101636 7.09309326 0 0 Z " fill="#241A54" transform="translate(688,71)"/>
<path d="M0 0 C5.97732771 -0.09931654 11.9541688 -0.17167995 17.93212891 -0.21972656 C19.96313857 -0.23976836 21.99409106 -0.26700947 24.02490234 -0.30175781 C26.95424556 -0.35060414 29.882822 -0.37304343 32.8125 -0.390625 C33.71178223 -0.41127014 34.61106445 -0.43191528 35.53759766 -0.45318604 C42.47164089 -0.4556212 47.72530661 1.17415455 53.0234375 5.74609375 C53.69246094 6.58333984 53.69246094 6.58333984 54.375 7.4375 C54.83648437 7.99308594 55.29796875 8.54867187 55.7734375 9.12109375 C59.83663254 15.34528743 59.68933898 21.79248107 59 29 C57.32574858 35.1957328 53.31106474 39.5329016 48 43 C44.00002406 44.93175622 40.80903982 45.23569899 36.38671875 45.1953125 C35.13955078 45.18886719 33.89238281 45.18242188 32.60742188 45.17578125 C30.66706055 45.15064453 30.66706055 45.15064453 28.6875 45.125 C27.37458984 45.11597656 26.06167969 45.10695312 24.70898438 45.09765625 C21.47247087 45.07411797 18.23632851 45.0412352 15 45 C15.01160156 46.07121094 15.02320313 47.14242187 15.03515625 48.24609375 C15.04453299 49.64322743 15.05363331 51.04036299 15.0625 52.4375 C15.07087891 53.14455078 15.07925781 53.85160156 15.08789062 54.58007812 C15.09653588 56.38693559 15.05220011 58.19387603 15 60 C14 61 14 61 11.09375 61.1328125 C9.9078125 61.13023437 8.721875 61.12765625 7.5 61.125 C6.3140625 61.12757813 5.128125 61.13015625 3.90625 61.1328125 C1 61 1 61 0 60 C-0.09386381 58.1281906 -0.11743804 56.2528194 -0.11352539 54.37866211 C-0.11344986 53.17749252 -0.11337433 51.97632294 -0.11329651 50.73875427 C-0.10813522 49.4314888 -0.10297394 48.12422333 -0.09765625 46.77734375 C-0.09579198 45.43355868 -0.09436812 44.08977293 -0.09336853 42.74598694 C-0.08954402 39.20317723 -0.07971432 35.6604083 -0.06866455 32.11761475 C-0.05844899 28.50484773 -0.0538706 24.89207416 -0.04882812 21.27929688 C-0.03809198 14.1861812 -0.02101636 7.09309326 0 0 Z " fill="#231954" transform="translate(438,71)"/>
<path d="M0 0 C2.44465432 1.92999025 3.25515654 3.03232046 4.375 5.875 C4.74625 6.6175 5.1175 7.36 5.5 8.125 C5.933125 8.99125 5.933125 8.99125 6.375 9.875 C5 11.875 5 11.875 3.375 13.875 C2.715 13.875 2.055 13.875 1.375 13.875 C1.375 13.215 1.375 12.555 1.375 11.875 C0.715 11.875 0.055 11.875 -0.625 11.875 C-0.625 12.535 -0.625 13.195 -0.625 13.875 C-1.285 13.875 -1.945 13.875 -2.625 13.875 C-2.233125 14.41125 -1.84125 14.9475 -1.4375 15.5 C-0.625 17.875 -0.625 17.875 -1.875 21 C-3.625 23.875 -3.625 23.875 -5.625 25.875 C-4.635 25.545 -3.645 25.215 -2.625 24.875 C-0.625 27.875 -0.625 27.875 0.375 29.875 C-0.615 29.875 -1.605 29.875 -2.625 29.875 C-1.14 34.33 -1.14 34.33 0.375 38.875 C1.035 38.545 1.695 38.215 2.375 37.875 C4.375 40.875 4.375 40.875 4.203125 43.01171875 C3.91695312 44.27435547 3.91695312 44.27435547 3.625 45.5625 C2.62643723 50.42563038 1.86572623 55.26453026 1.25 60.1875 C1.11899902 61.19139771 1.11899902 61.19139771 0.98535156 62.21557617 C0.5002131 66.12639619 0.28949729 69.93576789 0.375 73.875 C-3.14791486 75.06987316 -5.6944421 74.68317405 -9.30859375 73.94921875 C-10.40107422 73.72943359 -11.49355469 73.50964844 -12.61914062 73.28320312 C-13.75544922 73.04537109 -14.89175781 72.80753906 -16.0625 72.5625 C-17.76116211 72.2231543 -17.76116211 72.2231543 -19.49414062 71.87695312 C-24.41323821 70.87110347 -28.99718394 69.86182493 -33.625 67.875 C-31.77873014 45.08814306 -26.23521687 24.90997738 -11.625 6.875 C-11.13902344 6.23820312 -10.65304688 5.60140625 -10.15234375 4.9453125 C-4.70589647 -2.01681277 -4.70589647 -2.01681277 0 0 Z " fill="#E94073" transform="translate(149.625,33.125)"/>
<path d="M0 0 C0.94746094 0.63615234 0.94746094 0.63615234 1.9140625 1.28515625 C24.3983979 16.02632715 46.38079452 21.71611567 73.19580078 20.83911133 C78.47487744 20.72458497 81.58577246 20.8161033 86 24 C87.32 24 88.64 24 90 24 C90.495 25.485 90.495 25.485 91 27 C90.01 27 89.02 27 88 27 C90.51070754 30.66887552 90.51070754 30.66887552 94.25 32.8125 C95.11625 32.9053125 95.11625 32.9053125 96 33 C96 35.31 96 37.62 96 40 C97.65 40.33 99.3 40.66 101 41 C101 42.32 101 43.64 101 45 C94.67868048 45.92960581 88.51032292 46.18310844 82.125 46.1875 C81.19558594 46.19974609 80.26617187 46.21199219 79.30859375 46.22460938 C73.76941539 46.23619761 68.6794807 45.72946816 63.27856445 44.48583984 C60.8765164 43.97367059 58.50364658 43.69564948 56.0625 43.4375 C33.52598995 39.31379816 14.31302219 22.21811782 1.3984375 4.25 C0 2 0 2 0 0 Z M94 40 C95 42 95 42 95 42 Z " fill="#8B86A5" transform="translate(132,152)"/>
<path d="M0 0 C4.95 0 9.9 0 15 0 C15 15.51 15 31.02 15 47 C28.2 47 41.4 47 55 47 C55 51.62 55 56.24 55 61 C36.85 61 18.7 61 0 61 C0 40.87 0 20.74 0 0 Z " fill="#251B55" transform="translate(756,71)"/>
<path d="M0 0 C22.36263736 -0.62552832 22.36263736 -0.62552832 30.4375 6 C33.67717678 10.14678627 34.44931194 13.4307908 34.3125 18.62109375 C33.57645575 24.22423059 31.32210008 27.94771626 26.9375 31.4375 C23.10061478 33.47839639 20.39507156 34.12360649 16.11328125 34.09765625 C15.26805908 34.09515869 14.42283691 34.09266113 13.55200195 34.09008789 C12.48296631 34.08098389 11.41393066 34.07187988 10.3125 34.0625 C5.2078125 34.0315625 5.2078125 34.0315625 0 34 C0 22.78 0 11.56 0 0 Z " fill="#FAFAFB" transform="translate(832,84)"/>
<path d="M0 0 C4.27295432 2.54213738 6.85816689 5.57450066 8.4375 10.3125 C9.1302944 17.12497831 7.75780412 21.00335243 3.4375 26.3125 C-1.76378462 31.14226429 -5.89878831 31.61413208 -12.7734375 31.5234375 C-18.17437855 31.11496297 -21.85886819 29.40812616 -25.4375 25.25 C-29.23737499 19.99723164 -29.05790577 15.68071604 -28.5625 9.3125 C-26.918646 4.55397526 -24.71702617 2.11680517 -20.5625 -0.6875 C-14.17307915 -2.81730695 -6.16240967 -2.88354264 0 0 Z " fill="#FCFCFC" transform="translate(658.5625,86.6875)"/>
<path d="M0 0 C3.72901814 -0.08736736 7.45777165 -0.14051482 11.1875 -0.1875 C12.24259766 -0.21263672 13.29769531 -0.23777344 14.38476562 -0.26367188 C15.91713867 -0.27817383 15.91713867 -0.27817383 17.48046875 -0.29296875 C18.41785889 -0.3086792 19.35524902 -0.32438965 20.32104492 -0.34057617 C24.70108926 0.21625987 28.24186847 2.58517049 31 6 C33.68674874 10.66645834 33.52928471 15.7743637 33 21 C31.20646165 26.28097404 28.39000798 28.79895251 24 32 C20.99984088 33.00005304 19.02576244 33.11575585 15.89453125 33.09765625 C14.91162109 33.09443359 13.92871094 33.09121094 12.91601562 33.08789062 C11.89185547 33.07951172 10.86769531 33.07113281 9.8125 33.0625 C8.77673828 33.05798828 7.74097656 33.05347656 6.67382812 33.04882812 C4.11582734 33.0370401 1.55794267 33.02058515 -1 33 C-1.02469081 28.6217488 -1.04285557 24.24353433 -1.05493164 19.86523438 C-1.05996514 18.37531834 -1.06679242 16.88540726 -1.07543945 15.39550781 C-1.08754805 13.25584696 -1.09323807 11.11625132 -1.09765625 8.9765625 C-1.10289307 7.68830566 -1.10812988 6.40004883 -1.11352539 5.07275391 C-1 2 -1 2 0 0 Z " fill="#FDFDFD" transform="translate(384,85)"/>
<path d="M0 0 C0.66 0.33 1.32 0.66 2 1 C4.78918149 2.10540926 4.78918149 2.10540926 7 2 C7.33 1.34 7.66 0.68 8 0 C8.66 1.65 9.32 3.3 10 5 C9.01 5 8.02 5 7 5 C7.66 5.99 8.32 6.98 9 8 C12.08365871 8.2502157 12.08365871 8.2502157 15 8 C14.67 9.98 14.34 11.96 14 14 C14.66 14.33 15.32 14.66 16 15 C16.33 14.67 16.66 14.34 17 14 C18.32 15.65 19.64 17.3 21 19 C14.19167111 26.45468922 -0.43222607 31.53420043 -10.3046875 32.234375 C-13 32 -13 32 -15.375 30.4375 C-17.54227442 27.18658836 -17.21674573 24.82917465 -17 21 C-17.33 20.67 -17.66 20.34 -18 20 C-18 21.98 -18 23.96 -18 26 C-24 18.28571429 -24 18.28571429 -24 14 C-24.66 14 -25.32 14 -26 14 C-26.33 13.34 -26.66 12.68 -27 12 C-27.99 12.495 -27.99 12.495 -29 13 C-29.66 11.68 -30.32 10.36 -31 9 C-30.30962646 8.83395264 -29.61925293 8.66790527 -28.90795898 8.49682617 C-25.74957113 7.73337919 -22.59355695 6.96052379 -19.4375 6.1875 C-18.35146484 5.92646484 -17.26542969 5.66542969 -16.14648438 5.39648438 C-9.35834837 3.73309981 -9.35834837 3.73309981 -2.84765625 1.23828125 C-1.90792969 0.82964844 -0.96820313 0.42101562 0 0 Z " fill="#514977" transform="translate(244,164)"/>
<path d="M0 0 C0.94746094 0.63615234 0.94746094 0.63615234 1.9140625 1.28515625 C19.67757806 12.93126515 36.95467545 19.10223857 58 21 C58 21.33 58 21.66 58 22 C56.02 22 54.04 22 52 22 C51.67 22.66 51.34 23.32 51 24 C50.505 24.495 50.505 24.495 50 25 C51.32 25.33 52.64 25.66 54 26 C54 28 54 30 54 32 C54.639375 32.28875 55.27875 32.5775 55.9375 32.875 C58 34 58 34 59 36 C60.32 36 61.64 36 63 36 C62.34 36.99 61.68 37.98 61 39 C61 39.99 61 40.98 61 42 C60.505 42.99 60.505 42.99 60 44 C35.35491157 39.44137093 15.81793046 24.31190325 1.3984375 4.25 C0 2 0 2 0 0 Z " fill="#C2C9CE" transform="translate(132,152)"/>
<path d="M0 0 C0.33 0 0.66 0 1 0 C4.78385459 21.78767885 3.06755348 49.61496558 -9.75 68.5 C-10.4925 69.325 -11.235 70.15 -12 71 C-12.66 71 -13.32 71 -14 71 C-14.495 71.99 -14.495 71.99 -15 73 C-15 71.66666667 -15 70.33333333 -15 69 C-15.66 68.01 -16.32 67.02 -17 66 C-17.38499891 64.34450469 -17.72793135 62.6777567 -18 61 C-18.9590625 61.495 -18.9590625 61.495 -19.9375 62 C-22 63 -22 63 -23 63 C-24.34136367 63.65035814 -25.67532254 64.3162955 -27 65 C-27.99 63.02 -28.98 61.04 -30 59 C-29.34 59 -28.68 59 -28 59 C-27.66162109 57.68322266 -27.66162109 57.68322266 -27.31640625 56.33984375 C-25.78202407 52.446975 -23.89933965 50.49934523 -20.9375 47.5625 C-8.39929644 34.45513071 -0.99525533 18.24634778 0 0 Z M-19 67 C-18.34 67 -17.68 67 -17 67 C-17.33 67.66 -17.66 68.32 -18 69 C-18.33 68.34 -18.66 67.68 -19 67 Z " fill="#B0DACF" transform="translate(294,24)"/>
<path d="M0 0 C4.25171188 8.29375622 4.20038475 17.16074112 4.25 26.3125 C4.25918457 27.26753418 4.26836914 28.22256836 4.27783203 29.20654297 C4.25570185 34.24956847 3.8564981 38.25016712 2 43 C1.69677679 44.68198176 1.42553987 46.37006271 1.1875 48.0625 C-0.33565294 56.9112933 -3.92292942 65.0479294 -8 73 C-9.33333333 71 -10.66666667 69 -12 67 C-14.22189824 64.77810176 -16.08482708 64.07401108 -19 63 C-19 62.01 -19 61.02 -19 60 C-19.66 59.67 -20.32 59.34 -21 59 C-20.5875 58.52433594 -20.175 58.04867187 -19.75 57.55859375 C-10.60060378 46.46903538 -4.32523423 33.9929048 -2.4375 19.75 C-2.24897461 18.39455078 -2.24897461 18.39455078 -2.05664062 17.01171875 C-1.27866334 11.34999926 -0.60881503 5.6822736 0 0 Z " fill="#8D88A6" transform="translate(307,75)"/>
<path d="M0 0 C0.78125 2.10546875 0.78125 2.10546875 1 4 C-0.134375 4.19335938 -1.26875 4.38671875 -2.4375 4.5859375 C-3.95836032 4.84880225 -5.47919214 5.11183192 -7 5.375 C-7.74378906 5.50132813 -8.48757812 5.62765625 -9.25390625 5.7578125 C-16.91390251 7.08998576 -24.24874415 8.98638392 -31.625 11.4375 C-33.50058594 12.05431641 -33.50058594 12.05431641 -35.4140625 12.68359375 C-38.76027549 13.91199656 -41.85043138 15.33799687 -45 17 C-45.33 15.02 -45.66 13.04 -46 11 C-47.98 11.99 -47.98 11.99 -50 13 C-50.33 12.34 -50.66 11.68 -51 11 C-48.95312762 7.92969143 -46.90802461 6.21928194 -44 4 C-44.33 2.35 -44.66 0.7 -45 -1 C-45.99 -1.33 -46.98 -1.66 -48 -2 C-33.27055365 -4.54190754 -13.93620692 -7.16166189 0 0 Z " fill="#CFCDD2" transform="translate(240,8)"/>
<path d="M0 0 C3.54213083 -0.08118636 7.08238743 -0.14059277 10.625 -0.1875 C11.62402344 -0.21263672 12.62304688 -0.23777344 13.65234375 -0.26367188 C19.17275321 -0.31851038 23.28054692 -0.23776432 28 3 C29.72660813 6.45321627 29.49047852 10.22398729 29 14 C26.69660458 17.29056488 24.84658436 18.26935662 21 19 C19.34010718 19.07911543 17.6773713 19.10778885 16.015625 19.09765625 C15.08105469 19.09443359 14.14648438 19.09121094 13.18359375 19.08789062 C11.73146484 19.07532227 11.73146484 19.07532227 10.25 19.0625 C9.26644531 19.05798828 8.28289062 19.05347656 7.26953125 19.04882812 C4.84632806 19.037065 2.42315623 19.01913018 0 19 C0 12.73 0 6.46 0 0 Z " fill="#FCFDFD" transform="translate(453,84)"/>
<path d="M0 0 C2.05078125 0.03255208 4.1015625 0.06510417 6.15234375 0.09765625 C6.81234375 2.40765625 7.47234375 4.71765625 8.15234375 7.09765625 C8.81234375 7.09765625 9.47234375 7.09765625 10.15234375 7.09765625 C11.40899584 9.95368373 11.11690389 11.20840582 10.15234375 14.22265625 C6.49754613 21.99953156 0.8312841 28.7261622 -4.84765625 35.09765625 C-5.84765625 32.09765625 -5.84765625 32.09765625 -6.66015625 28.53515625 C-7.48521853 25.03312664 -7.48521853 25.03312664 -9.97265625 23.66015625 C-10.59140625 23.47453125 -11.21015625 23.28890625 -11.84765625 23.09765625 C-11.18765625 21.77765625 -10.52765625 20.45765625 -9.84765625 19.09765625 C-10.83765625 18.76765625 -11.82765625 18.43765625 -12.84765625 18.09765625 C-12.84765625 17.43765625 -12.84765625 16.77765625 -12.84765625 16.09765625 C-14.30598983 14.47251157 -14.30598983 14.47251157 -15.84765625 13.09765625 C-14.92082031 12.24300781 -13.99398438 11.38835937 -13.0390625 10.5078125 C-11.82941702 9.39193799 -10.61978215 8.27605198 -9.41015625 7.16015625 C-8.49266602 6.31420898 -8.49266602 6.31420898 -7.55664062 5.45117188 C-6.97333984 4.91298828 -6.39003906 4.37480469 -5.7890625 3.8203125 C-5.24967041 3.32281494 -4.71027832 2.82531738 -4.15454102 2.31274414 C-1.76755522 0.09342258 -1.76755522 0.09342258 0 0 Z " fill="#534B79" transform="translate(287.84765625,134.90234375)"/>
<path d="M0 0 C4.25067453 -0.10776358 8.49862759 -0.18721602 12.75 -0.25 C13.9565625 -0.28351563 15.163125 -0.31703125 16.40625 -0.3515625 C18.14648438 -0.37089844 18.14648438 -0.37089844 19.921875 -0.390625 C20.99018555 -0.41157227 22.05849609 -0.43251953 23.15917969 -0.45410156 C26.71064751 0.11359611 27.85476855 1.161207 30 4 C30.67688038 8.13649119 30.54040757 10.15774316 28.265625 13.703125 C23.18536671 17.27632103 18.23157709 16.53259244 12.1875 16.3125 C11.01767578 16.28994141 9.84785156 16.26738281 8.64257812 16.24414062 C5.76116952 16.18533637 2.88042058 16.09565972 0 16 C0 10.72 0 5.44 0 0 Z " fill="#FBFCFC" transform="translate(703,84)"/>
<path d="M0 0 C-0.33 0.99 -0.66 1.98 -1 3 C-1.66 3 -2.32 3 -3 3 C-4.4587688 4.29078411 -4.4587688 4.29078411 -6 6 C-7.051875 7.0209375 -7.051875 7.0209375 -8.125 8.0625 C-10.05820487 9.86588042 -10.05820487 9.86588042 -11 12 C-12.75 12.4921875 -12.75 12.4921875 -15 12.875 C-23.53026342 14.64034677 -29.98443068 18.43284664 -36.93359375 23.609375 C-39 25 -39 25 -41 25 C-41 25.66 -41 26.32 -41 27 C-41.66 27 -42.32 27 -43 27 C-43 27.66 -43 28.32 -43 29 C-44.609375 30.5859375 -44.609375 30.5859375 -46.75 32.375 C-49.6243732 34.81617866 -52.38543992 37.27649992 -55 40 C-53.25404676 27.84380055 -41.99306754 16.81363684 -32.625 9.6875 C-24.80193508 4.31660245 -9.64504218 -4.82252109 0 0 Z " fill="#64E4B4" transform="translate(75,97)"/>
<path d="M0 0 C0.66 0 1.32 0 2 0 C2 0.66 2 1.32 2 2 C1.34 2 0.68 2 0 2 C0 1.34 0 0.68 0 0 Z M-5 0 C-4.67 0.66 -4.34 1.32 -4 2 C-2.68 2 -1.36 2 0 2 C0.33 2.99 0.66 3.98 1 5 C0.195625 5.144375 -0.60875 5.28875 -1.4375 5.4375 C-3.92103706 5.74135249 -3.92103706 5.74135249 -5 7 C-5 7.99 -5 8.98 -5 10 C-3.02 9.67 -1.04 9.34 1 9 C2.81187329 11.53662261 4 13.20795712 4 16.375 C2.62233039 19.99138273 0.6341647 23.15247617 -2 26 C-2.66 26 -3.32 26 -4 26 C-4.33 26.66 -4.66 27.32 -5 28 C-5 26.66666667 -5 25.33333333 -5 24 C-5.66 23.01 -6.32 22.02 -7 21 C-7.38499891 19.34450469 -7.72793135 17.6777567 -8 16 C-8.639375 16.33 -9.27875 16.66 -9.9375 17 C-12 18 -12 18 -13 18 C-14.34136367 18.65035814 -15.67532254 19.3162955 -17 20 C-17.99 18.02 -18.98 16.04 -20 14 C-19.34 14 -18.68 14 -18 14 C-17.79375 13.13375 -17.5875 12.2675 -17.375 11.375 C-15.74654332 7.37787906 -13.60759734 4.43383361 -10 2 C-8.68 2 -7.36 2 -6 2 C-5.67 1.34 -5.34 0.68 -5 0 Z M-9 22 C-8.34 22 -7.68 22 -7 22 C-7.33 22.66 -7.66 23.32 -8 24 C-8.33 23.34 -8.66 22.68 -9 22 Z " fill="#6CE3B7" transform="translate(284,69)"/>
<path d="M0 0 C-0.51519045 3.81240932 -1.26029415 5.3794118 -4 8 C-4 8.99 -4 9.98 -4 11 C-4.33 11.66 -4.66 12.32 -5 13 C-5.33 13.99 -5.66 14.98 -6 16 C-8.21484375 17.1328125 -8.21484375 17.1328125 -10.9375 18.125 C-11.83339844 18.45757813 -12.72929687 18.79015625 -13.65234375 19.1328125 C-14.42707031 19.41898438 -15.20179688 19.70515625 -16 20 C-16.66 20.33 -17.32 20.66 -18 21 C-18.33 19.02 -18.66 17.04 -19 15 C-20.98 15.99 -20.98 15.99 -23 17 C-23.33 16.34 -23.66 15.68 -24 15 C-21.95312762 11.92969143 -19.90802461 10.21928194 -17 8 C-17.33 6.35 -17.66 4.7 -18 3 C-18.99 2.67 -19.98 2.34 -21 2 C-18.81347261 1.66034526 -16.62571975 1.32857523 -14.4375 1 C-13.21933594 0.814375 -12.00117188 0.62875 -10.74609375 0.4375 C-7.12372152 0.01444923 -3.64287954 -0.07501425 0 0 Z " fill="#E4A6BA" transform="translate(213,4)"/>
<path d="M0 0 C0.66 0 1.32 0 2 0 C2.05395478 1.62463842 2.09277195 3.24978541 2.125 4.875 C2.14820313 5.77992187 2.17140625 6.68484375 2.1953125 7.6171875 C2 10 2 10 0 12 C-0.28127623 14.33706139 -0.28127623 14.33706139 -0.1875 16.9375 C-0.18105469 17.81277344 -0.17460937 18.68804687 -0.16796875 19.58984375 C-0.09069243 22.1437675 -0.09069243 22.1437675 1 25 C0.5625 27.6875 0.5625 27.6875 0 30 C-0.928125 29.4740625 -0.928125 29.4740625 -1.875 28.9375 C-2.57625 28.628125 -3.2775 28.31875 -4 28 C-4.66 28.33 -5.32 28.66 -6 29 C-7.76371877 24.14977337 -8 20.07914452 -8 15 C-9.98 15.99 -9.98 15.99 -12 17 C-12 16.01 -12 15.02 -12 14 C-11.01 13.67 -10.02 13.34 -9 13 C-8.3185177 11.10820797 -8.3185177 11.10820797 -8 9 C-7.67 8.01 -7.34 7.02 -7 6 C-7.33 5.01 -7.66 4.02 -8 3 C-7.34 3 -6.68 3 -6 3 C-6 2.34 -6 1.68 -6 1 C-4.7934375 1.0309375 -4.7934375 1.0309375 -3.5625 1.0625 C-1.06645115 1.29633621 -1.06645115 1.29633621 0 0 Z " fill="#F65E8A" transform="translate(155,44)"/>
<path d="M0 0 C1.79244141 0.01740234 1.79244141 0.01740234 3.62109375 0.03515625 C5.41740234 0.04869141 5.41740234 0.04869141 7.25 0.0625 C8.17683594 0.07410156 9.10367188 0.08570313 10.05859375 0.09765625 C10.05859375 0.42765625 10.05859375 0.75765625 10.05859375 1.09765625 C8.07859375 1.09765625 6.09859375 1.09765625 4.05859375 1.09765625 C3.72859375 1.75765625 3.39859375 2.41765625 3.05859375 3.09765625 C2.72859375 3.42765625 2.39859375 3.75765625 2.05859375 4.09765625 C3.37859375 4.42765625 4.69859375 4.75765625 6.05859375 5.09765625 C6.05859375 7.09765625 6.05859375 9.09765625 6.05859375 11.09765625 C6.69796875 11.38640625 7.33734375 11.67515625 7.99609375 11.97265625 C10.05859375 13.09765625 10.05859375 13.09765625 11.05859375 15.09765625 C12.37859375 15.09765625 13.69859375 15.09765625 15.05859375 15.09765625 C14.06859375 16.58265625 14.06859375 16.58265625 13.05859375 18.09765625 C13.05859375 19.08765625 13.05859375 20.07765625 13.05859375 21.09765625 C12.72859375 21.75765625 12.39859375 22.41765625 12.05859375 23.09765625 C7.62243579 21.96687089 3.71440513 20.9178536 0.05859375 18.09765625 C-1.25390625 15.41015625 -1.25390625 15.41015625 -1.94140625 13.09765625 C-2.27140625 13.09765625 -2.60140625 13.09765625 -2.94140625 13.09765625 C-5.26030026 4.91332445 -5.26030026 4.91332445 -3.94140625 1.09765625 C-2.94140625 0.09765625 -2.94140625 0.09765625 0 0 Z " fill="#B2B7C3" transform="translate(179.94140625,172.90234375)"/>
<path d="M0 0 C0.99 0 1.98 0 3 0 C3.43684211 5.24210526 3.43684211 5.24210526 3 8 C0.625 10.5 0.625 10.5 -2 12 C-2.66 12 -3.32 12 -4 12 C-4 12.66 -4 13.32 -4 14 C-4.66 14 -5.32 14 -6 14 C-6 14.66 -6 15.32 -6 16 C-7.609375 17.5859375 -7.609375 17.5859375 -9.75 19.375 C-12.6243732 21.81617866 -15.38543992 24.27649992 -18 27 C-16.45673339 16.25500621 -7.38492114 7.38492114 0 0 Z " fill="#97DDC6" transform="translate(38,110)"/>
<path d="M0 0 C5.95152164 11.05282591 4.20889588 24.85672153 4 37 C1.8614515 34.8614515 1.57344937 33.86724686 1 31 C0.01 31 -0.98 31 -2 31 C-2.8941218 25.364514 -2.96553593 20.56472434 -2.125 14.9375 C-2.03347656 14.26912109 -1.94195312 13.60074219 -1.84765625 12.91210938 C-1.5755012 10.93994353 -1.28789758 8.96992931 -1 7 C-0.80940327 5.66803914 -0.61927053 4.33601177 -0.4296875 3.00390625 C-0.28789062 2.01261719 -0.14609375 1.02132812 0 0 Z " fill="#BAC2CA" transform="translate(307,75)"/>
<path d="M0 0 C0.99 0.33 1.98 0.66 3 1 C2.62875 1.7425 2.2575 2.485 1.875 3.25 C0.70484137 5.94283647 0.70484137 5.94283647 1.875 8.3125 C2.431875 9.1478125 2.431875 9.1478125 3 10 C1.68 11.32 0.36 12.64 -1 14 C-0.67 14.99 -0.34 15.98 0 17 C0.66 17 1.32 17 2 17 C2 17.66 2 18.32 2 19 C0.1875 19.6875 0.1875 19.6875 -2 20 C-4.01998276 18.52385875 -4.91047424 17.18464687 -6 14.9375 C-6.97325058 12.66757845 -6.97325058 12.66757845 -10 11 C-10.99 11 -11.98 11 -13 11 C-10.90603799 9.13305812 -8.80129803 7.28173824 -6.6875 5.4375 C-6.09259766 4.90447266 -5.49769531 4.37144531 -4.88476562 3.82226562 C-3.32180963 2.46886798 -1.66512254 1.2255136 0 0 Z " fill="#F65E8A" transform="translate(157,22)"/>
<path d="M0 0 C1.43410153 3.78819273 0.51009497 6.06521279 -0.9375 9.75 C-1.31777344 10.73484375 -1.69804687 11.7196875 -2.08984375 12.734375 C-2.39019531 13.48203125 -2.69054687 14.2296875 -3 15 C-6.3 15 -9.6 15 -13 15 C-15.125 8.25 -15.125 8.25 -14 6 C-12 6 -10 6 -8 6 C-5.81222534 4.0624994 -5.81222534 4.0624994 -4 2 C-3.34 2.33 -2.68 2.66 -2 3 C-1.67 2.34 -1.34 1.68 -1 1 C-0.67 0.67 -0.34 0.34 0 0 Z " fill="#93DEC4" transform="translate(292,68)"/>
<path d="M0 0 C0.66 0 1.32 0 2 0 C4.12169591 2.47531189 5.63055898 5.05043472 7 8 C6.01 9.485 6.01 9.485 5 11 C4.01 11 3.02 11 2 11 C2.20625 11.61875 2.4125 12.2375 2.625 12.875 C2.74875 13.57625 2.8725 14.2775 3 15 C1.04783565 16.95216435 -0.53199953 17.84826645 -3 19 C-3.33 17.02 -3.66 15.04 -4 13 C-5.98 13.99 -5.98 13.99 -8 15 C-8.33 14.34 -8.66 13.68 -9 13 C-7 10 -7 10 -3.9375 7.625 C-0.90594106 4.91594733 -0.22570097 3.94976703 0 0 Z " fill="#EF94AF" transform="translate(198,6)"/>
<path d="M0 0 C-0.33 0.99 -0.66 1.98 -1 3 C-1.66 3 -2.32 3 -3 3 C-4.4587688 4.29078411 -4.4587688 4.29078411 -6 6 C-6.70125 6.680625 -7.4025 7.36125 -8.125 8.0625 C-10.05820487 9.86588042 -10.05820487 9.86588042 -11 12 C-13.06640625 12.4140625 -13.06640625 12.4140625 -15.5625 12.625 C-16.80193359 12.73714844 -16.80193359 12.73714844 -18.06640625 12.8515625 C-19.02353516 12.92503906 -19.02353516 12.92503906 -20 13 C-19.1875 10.5625 -19.1875 10.5625 -18 8 C-17.01 7.67 -16.02 7.34 -15 7 C-14.9175 6.21625 -14.835 5.4325 -14.75 4.625 C-14 2 -14 2 -12.4375 0.75 C-8.52762774 -0.45303762 -3.77335321 -1.88667661 0 0 Z " fill="#5DE5B1" transform="translate(75,97)"/>
<path d="M0 0 C0.33 0.99 0.66 1.98 1 3 C2.65 3 4.3 3 6 3 C6.66 6.3 7.32 9.6 8 13 C9.32 13 10.64 13 12 13 C12 13.99 12 14.98 12 16 C7.76677156 15.37954537 4.47709705 13.89476441 0.6875 11.9375 C-0.38113281 11.38964844 -1.44976562 10.84179688 -2.55078125 10.27734375 C-3.35902344 9.85582031 -4.16726562 9.43429688 -5 9 C-3.46395304 5.85808576 -1.94268841 2.91403262 0 0 Z " fill="#C3CDD1" transform="translate(173,178)"/>
<path d="M0 0 C0.66 0 1.32 0 2 0 C2 0.66 2 1.32 2 2 C1.34 2 0.68 2 0 2 C0 1.34 0 0.68 0 0 Z M-5 0 C-4.67 0.66 -4.34 1.32 -4 2 C-2.68 2 -1.36 2 0 2 C0.33 2.99 0.66 3.98 1 5 C0.195625 5.144375 -0.60875 5.28875 -1.4375 5.4375 C-3.92103706 5.74135249 -3.92103706 5.74135249 -5 7 C-5.36760731 9.32817964 -5.70241581 11.6618385 -6 14 C-8.35171131 13.40138258 -10.6859378 12.73075648 -13 12 C-13.33 11.34 -13.66 10.68 -14 10 C-14.99 10.495 -14.99 10.495 -16 11 C-15.52697634 6.74278702 -13.18981069 4.67053918 -10 2 C-8.68 2 -7.36 2 -6 2 C-5.67 1.34 -5.34 0.68 -5 0 Z " fill="#8ADFC1" transform="translate(284,69)"/>
<path d="M0 0 C0.99 0.33 1.98 0.66 3 1 C2.34 1.66 1.68 2.32 1 3 C1.72403071 5.9788611 1.72403071 5.9788611 3.5625 7.4375 C5 9 5 9 5 13 C5.66 12.67 6.32 12.34 7 12 C7.66 12.33 8.32 12.66 9 13 C9 12.34 9 11.68 9 11 C9.66 11 10.32 11 11 11 C10.55090939 12.48199902 10.09043436 13.96055236 9.625 15.4375 C9.36976563 16.26121094 9.11453125 17.08492187 8.8515625 17.93359375 C8 20 8 20 6 21 C5.67 20.01 5.34 19.02 5 18 C2.31744887 13.9761733 0.46962834 12.64670518 -4 11 C-4 10.01 -4 9.02 -4 8 C-4.66 7.67 -5.32 7.34 -6 7 C-4.02 4.69 -2.04 2.38 0 0 Z " fill="#787296" transform="translate(292,127)"/>
<path d="M0 0 C2.5121785 0.85942949 3.53487167 1.97237167 5.375 3.8125 C5.375 7.33282428 4.67148649 8.2510343 2.375 10.8125 C1.715 10.8125 1.055 10.8125 0.375 10.8125 C-0.264375 9.9875 -0.90375 9.1625 -1.5625 8.3125 C-2.243125 7.4875 -2.92375 6.6625 -3.625 5.8125 C-4.615 5.8125 -5.605 5.8125 -6.625 5.8125 C-6.625 2.8125 -6.625 2.8125 -4.9375 1.0625 C-2.625 -0.1875 -2.625 -0.1875 0 0 Z " fill="#3A3166" transform="translate(272.625,149.1875)"/>
<path d="M0 0 C2.07804617 1.71664683 2.95027053 2.85081159 3.8125 5.4375 C4.02316906 8.31664378 3.51754003 9.58978936 2 12 C-0.875 11.75 -0.875 11.75 -4 11 C-5.4375 9.25 -5.4375 9.25 -6 7 C-5.625 4.25 -5.625 4.25 -5 2 C-4.01 2 -3.02 2 -2 2 C-1.34 1.34 -0.68 0.68 0 0 Z " fill="#6E678E" transform="translate(233,184)"/>
<path d="M0 0 C1.79244141 0.01740234 1.79244141 0.01740234 3.62109375 0.03515625 C5.41740234 0.04869141 5.41740234 0.04869141 7.25 0.0625 C8.17683594 0.07410156 9.10367188 0.08570313 10.05859375 0.09765625 C10.05859375 0.42765625 10.05859375 0.75765625 10.05859375 1.09765625 C8.07859375 1.09765625 6.09859375 1.09765625 4.05859375 1.09765625 C3.72859375 1.75765625 3.39859375 2.41765625 3.05859375 3.09765625 C2.39859375 3.75765625 1.73859375 4.41765625 1.05859375 5.09765625 C0.59853029 7.30016617 0.59853029 7.30016617 0.43359375 9.72265625 C0.35882813 10.53992188 0.2840625 11.3571875 0.20703125 12.19921875 C0.15804687 12.82570312 0.1090625 13.4521875 0.05859375 14.09765625 C-0.93140625 13.76765625 -1.92140625 13.43765625 -2.94140625 13.09765625 C-3.70703125 11.390625 -3.70703125 11.390625 -4.19140625 9.28515625 C-4.3615625 8.59808594 -4.53171875 7.91101563 -4.70703125 7.203125 C-4.9655858 4.8804433 -4.68711866 3.30133204 -3.94140625 1.09765625 C-2.94140625 0.09765625 -2.94140625 0.09765625 0 0 Z " fill="#A7ABBC" transform="translate(179.94140625,172.90234375)"/>
<path d="M0 0 C-1.08231478 2.52540116 -2.06855624 4.06647878 -4.0625 6 C-6.07607222 8.07852616 -6.59824094 9.18768658 -7 12 C-7.33 12 -7.66 12 -8 12 C-8 10.35 -8 8.7 -8 7 C-9.65 7.33 -11.3 7.66 -13 8 C-12.73828125 6.140625 -12.73828125 6.140625 -12 4 C-10.29296875 2.734375 -10.29296875 2.734375 -8.1875 1.75 C-7.50042969 1.41484375 -6.81335937 1.0796875 -6.10546875 0.734375 C-4 0 -4 0 0 0 Z " fill="#63E4B4" transform="translate(60,99)"/>
<path d="M0 0 C-0.33 0.66 -0.66 1.32 -1 2 C-0.67 2.33 -0.34 2.66 0 3 C-1 5 -1 5 -3 6 C-3.66 5.67 -4.32 5.34 -5 5 C-5.33 5.66 -5.66 6.32 -6 7 C-6.66 7 -7.32 7 -8 7 C-8.33 6.34 -8.66 5.68 -9 5 C-9.99 5.495 -9.99 5.495 -11 6 C-11.66 4.68 -12.32 3.36 -13 2 C-11.58461283 1.66127487 -10.16762037 1.32925376 -8.75 1 C-7.56664062 0.7215625 -7.56664062 0.7215625 -6.359375 0.4375 C-4 0 -4 0 0 0 Z " fill="#6B648C" transform="translate(226,171)"/>
<path d="M0 0 C1.65 0 3.3 0 5 0 C5.33 2.64 5.66 5.28 6 8 C5.34 8 4.68 8 4 8 C3.67 8.66 3.34 9.32 3 10 C0 10 0 10 -1.6875 8.5 C-2.120625 8.005 -2.55375 7.51 -3 7 C-2.01 4.69 -1.02 2.38 0 0 Z " fill="#9D9DB4" transform="translate(304,102)"/>
<path d="M0 0 C3.40320742 1.01176437 4.75725331 1.64843582 6.8125 4.625 C7.204375 5.40875 7.59625 6.1925 8 7 C7.01 8.485 7.01 8.485 6 10 C2.875 10.1875 2.875 10.1875 0 10 C-2.125 3.25 -2.125 3.25 -1 1 C-0.67 0.67 -0.34 0.34 0 0 Z " fill="#AEDACE" transform="translate(279,73)"/>
<path d="M0 0 C-0.33 0.99 -0.66 1.98 -1 3 C-1.66 3 -2.32 3 -3 3 C-4.62514468 4.45833358 -4.62514468 4.45833358 -6 6 C-6.99 5.01 -7.98 4.02 -9 3 C-8.01 2.67 -7.02 2.34 -6 2 C-6 1.34 -6 0.68 -6 0 C-2.25 -1.125 -2.25 -1.125 0 0 Z M-11 4 C-10.01 4.33 -9.02 4.66 -8 5 C-8.66 6.65 -9.32 8.3 -10 10 C-10.99 10 -11.98 10 -13 10 C-13.33 9.01 -13.66 8.02 -14 7 C-13.34 7 -12.68 7 -12 7 C-11.67 6.01 -11.34 5.02 -11 4 Z " fill="#66E4B5" transform="translate(75,97)"/>
<path d="M0 0 C0.33 3.3 0.66 6.6 1 10 C0.01 10.66 -0.98 11.32 -2 12 C-2.33 10.02 -2.66 8.04 -3 6 C-4.98 6.99 -4.98 6.99 -7 8 C-7.33 7.34 -7.66 6.68 -8 6 C-5.94509119 2.91763679 -3.95732331 0 0 0 Z " fill="#EA9DB4" transform="translate(197,13)"/>
<path d="M0 0 C0.99 0.33 1.98 0.66 3 1 C2.34 1.66 1.68 2.32 1 3 C0.67 2.01 0.34 1.02 0 0 Z M-1 2 C-0.01 2.66 0.98 3.32 2 4 C0.60485497 8.43909781 -1.47695811 10.98024981 -5 14 C-7.3125 14.8125 -7.3125 14.8125 -9 15 C-8.67 12.69 -8.34 10.38 -8 8 C-7.34 9.32 -6.68 10.64 -6 12 C-6 10.02 -6 8.04 -6 6 C-5.01 6 -4.02 6 -3 6 C-2.34 4.68 -1.68 3.36 -1 2 Z " fill="#93DEC4" transform="translate(59,98)"/>
<path d="M0 0 C3.26404813 3.57992376 4.7918461 6.10838332 5 11 C4.0625 13.375 4.0625 13.375 3 15 C1.68 14.01 0.36 13.02 -1 12 C-0.70703125 9.98177083 -0.4140625 7.96354167 -0.12109375 5.9453125 C0.1684297 3.91859333 0.1684297 3.91859333 -1 2 C-0.67 1.34 -0.34 0.68 0 0 Z " fill="#352C62" transform="translate(278,157)"/>
<path d="M0 0 C0.33 0 0.66 0 1 0 C1 5.94 1 11.88 1 18 C-1.553787 15.446213 -1.39513023 13.46513321 -1.65625 9.97265625 C-1.91804076 7.68567639 -1.91804076 7.68567639 -4 5 C-2.69254251 3.31295807 -1.35827971 1.64639965 0 0 Z " fill="#BFCACF" transform="translate(310,94)"/>
<path d="M0 0 C1.125 1.6875 1.125 1.6875 2 4 C1.125 6.75 1.125 6.75 0 9 C-1.32 8.67 -2.64 8.34 -4 8 C-4.33 5.69 -4.66 3.38 -5 1 C-3 0 -3 0 0 0 Z " fill="#F24E7E" transform="translate(153,50)"/>
<path d="M0 0 C1.32 0.33 2.64 0.66 4 1 C2.63629701 3.99220268 1.05091917 6.29026529 -1.125 8.75 C-1.93324219 9.67039063 -1.93324219 9.67039063 -2.7578125 10.609375 C-3.16773437 11.06828125 -3.57765625 11.5271875 -4 12 C-5 9 -5 9 -4.00390625 6.73828125 C-3.52824219 5.93777344 -3.05257813 5.13726562 -2.5625 4.3125 C-2.08941406 3.50425781 -1.61632812 2.69601563 -1.12890625 1.86328125 C-0.75636719 1.24839844 -0.38382813 0.63351563 0 0 Z " fill="#B0DBCF" transform="translate(25,125)"/>
<path d="M0 0 C1.32 0 2.64 0 4 0 C4.66 0.99 5.32 1.98 6 3 C6.66 2.34 7.32 1.68 8 1 C8.33 2.32 8.66 3.64 9 5 C8.01 5 7.02 5 6 5 C6 6.98 6 8.96 6 11 C0 3.28571429 0 3.28571429 0 0 Z " fill="#68618A" transform="translate(220,179)"/>
<path d="M0 0 C0.99 0 1.98 0 3 0 C3.44041451 5.37305699 3.44041451 5.37305699 3 8 C0.5 10 0.5 10 -2 11 C-2.33 9.35 -2.66 7.7 -3 6 C-2.01 6 -1.02 6 0 6 C-0.33 5.34 -0.66 4.68 -1 4 C-0.5625 1.875 -0.5625 1.875 0 0 Z " fill="#A6DBCB" transform="translate(38,110)"/>
<path d="M0 0 C1.125 2.3125 1.125 2.3125 2 5 C1.01 6.485 1.01 6.485 0 8 C-0.66 5.69 -1.32 3.38 -2 1 C-2.66 2.65 -3.32 4.3 -4 6 C-4.99 5.34 -5.98 4.68 -7 4 C-7 3.34 -7 2.68 -7 2 C-7.99 1.67 -8.98 1.34 -10 1 C-6.59437148 0.22157062 -3.49234244 -0.09978121 0 0 Z " fill="#D6BEC8" transform="translate(202,5)"/>
<path d="M0 0 C-0.99 1.485 -0.99 1.485 -2 3 C-2 3.99 -2 4.98 -2 6 C-3.98 6 -5.96 6 -8 6 C-7.67 4.02 -7.34 2.04 -7 0 C-3.98968256 -0.93423645 -3.13349732 -1.04449911 0 0 Z " fill="#A3A5B9" transform="translate(195,188)"/>
<path d="M0 0 C0.33 0.99 0.66 1.98 1 3 C1.66 3 2.32 3 3 3 C2.67 3.99 2.34 4.98 2 6 C1.34 6 0.68 6 0 6 C0.33 6.99 0.66 7.98 1 9 C-0.65 9.33 -2.3 9.66 -4 10 C-4 5.75354935 -2.18249194 3.61475228 0 0 Z " fill="#B5B3C1" transform="translate(173,178)"/>
<path d="M0 0 C0.99 0 1.98 0 3 0 C3 0.99 3 1.98 3 3 C3.99 3 4.98 3 6 3 C6.33 3.99 6.66 4.98 7 6 C5.02 6.66 3.04 7.32 1 8 C-1.125 3.375 -1.125 3.375 0 0 Z " fill="#D8BAC5" transform="translate(200,14)"/>
<path d="M0 0 C0.33 0 0.66 0 1 0 C1.66 2.31 2.32 4.62 3 7 C3.66 7 4.32 7 5 7 C5.92091738 9.57856865 6.18506902 10.5943287 5.0234375 13.140625 C4.51683594 14.06101563 4.51683594 14.06101563 4 15 C0.95842058 9.77228537 -0.50610724 6.07328688 0 0 Z " fill="#655E87" transform="translate(293,135)"/>
<path d="M0 0 C3.11227195 0 5.94152152 0.45627049 9 1 C9 2.32 9 3.64 9 5 C6.69 5 4.38 5 2 5 C1.34 3.35 0.68 1.7 0 0 Z " fill="#827C9E" transform="translate(224,192)"/>
<path d="M0 0 C0.33 0.66 0.66 1.32 1 2 C2.32 2 3.64 2 5 2 C5.33 2.99 5.66 3.98 6 5 C2.71303767 5.79953138 1.28976808 6.09658936 -2 5 C-1.34 3.35 -0.68 1.7 0 0 Z M5 0 C5.66 0 6.32 0 7 0 C7 0.66 7 1.32 7 2 C6.34 2 5.68 2 5 2 C5 1.34 5 0.68 5 0 Z " fill="#75E2BA" transform="translate(279,69)"/>
<path d="M0 0 C1.5 1.375 1.5 1.375 3 3 C3 3.66 3 4.32 3 5 C2.01 5 1.02 5 0 5 C0.33 6.65 0.66 8.3 1 10 C0.01 10.495 0.01 10.495 -1 11 C-1.54372951 7.94152152 -2 5.11227195 -2 2 C-1.34 2 -0.68 2 0 2 C0 1.34 0 0.68 0 0 Z " fill="#3E3669" transform="translate(251,164)"/>
<path d="M0 0 C0.99 0 1.98 0 3 0 C3.66 2.31 4.32 4.62 5 7 C2 7 2 7 0.25 5.75 C-1 4 -1 4 -0.6875 1.8125 C-0.460625 1.214375 -0.23375 0.61625 0 0 Z " fill="#F35382" transform="translate(151,62)"/>
<path d="M0 0 C1.32 1.65 2.64 3.3 4 5 C-0.455 5.495 -0.455 5.495 -5 6 C-4.1875 3.5625 -4.1875 3.5625 -3 1 C-2.01 0.67 -1.02 0.34 0 0 Z " fill="#49E8AB" transform="translate(60,104)"/>
<path d="M0 0 C1.5 1.1875 1.5 1.1875 3 3 C3.125 5.5625 3.125 5.5625 3 8 C3.33 8.66 3.66 9.32 4 10 C3.34 10.66 2.68 11.32 2 12 C1.4654744 10.75579353 0.94791389 9.50429064 0.4375 8.25 C0.14746094 7.55390625 -0.14257812 6.8578125 -0.44140625 6.140625 C-1.07831803 3.69987216 -0.80248831 2.3596345 0 0 Z " fill="#F589A8" transform="translate(197,11)"/>
<path d="M0 0 C2.475 0.99 2.475 0.99 5 2 C4.67 3.32 4.34 4.64 4 6 C3.01 6 2.02 6 1 6 C0.34 5.01 -0.32 4.02 -1 3 C-0.67 2.01 -0.34 1.02 0 0 Z M-3 4 C-2.34 4 -1.68 4 -1 4 C-1.33 4.66 -1.66 5.32 -2 6 C-2.33 5.34 -2.66 4.68 -3 4 Z " fill="#8CDFC2" transform="translate(278,87)"/>
<path d="M0 0 C1.32 1.65 2.64 3.3 4 5 C3.01 5.99 2.02 6.98 1 8 C0.34 7.67 -0.32 7.34 -1 7 C-1.625 4.9375 -1.625 4.9375 -2 3 C-1.34 3 -0.68 3 0 3 C0 2.01 0 1.02 0 0 Z " fill="#3E3569" transform="translate(261,178)"/>
<path d="M0 0 C0.66 0 1.32 0 2 0 C1.67 4.29 1.34 8.58 1 13 C0.67 13 0.34 13 0 13 C-2.31889401 4.8156682 -2.31889401 4.8156682 -1 1 C-0.67 0.67 -0.34 0.34 0 0 Z " fill="#A29CB3" transform="translate(177,173)"/>
<path d="M0 0 C2 2 2 2 2.3125 4.5 C2.209375 5.325 2.10625 6.15 2 7 C1.01 7.66 0.02 8.32 -1 9 C-1.33 6.36 -1.66 3.72 -2 1 C-1.34 0.67 -0.68 0.34 0 0 Z " fill="#E4A7BA" transform="translate(196,16)"/>
<path d="M0 0 C0.1875 2.875 0.1875 2.875 0 6 C-0.99 6.66 -1.98 7.32 -3 8 C-3.6875 5.6875 -3.6875 5.6875 -4 3 C-1.72413793 0 -1.72413793 0 0 0 Z M-6 6 C-5.34 6.66 -4.68 7.32 -4 8 C-4.66 8 -5.32 8 -6 8 C-6 7.34 -6 6.68 -6 6 Z " fill="#BAC5CC" transform="translate(177,181)"/>
<path d="M0 0 C0 1.32 0 2.64 0 4 C-0.66 4 -1.32 4 -2 4 C-2.33 4.99 -2.66 5.98 -3 7 C-3.99 5.68 -4.98 4.36 -6 3 C-2.25 0 -2.25 0 0 0 Z " fill="#332960" transform="translate(251,162)"/>
<path d="M0 0 C3 2 3 2 4 3 C4 3.99 4 4.98 4 6 C2.68 6 1.36 6 0 6 C-1.125 2.25 -1.125 2.25 0 0 Z " fill="#352C62" transform="translate(274,150)"/>
<path d="M0 0 C0.144375 0.61875 0.28875 1.2375 0.4375 1.875 C0.93152225 4.03258322 0.93152225 4.03258322 2 6 C1.34 6.66 0.68 7.32 0 8 C-0.33 7.34 -0.66 6.68 -1 6 C-1.99 6.495 -1.99 6.495 -3 7 C-3.33 6.01 -3.66 5.02 -4 4 C-2.68 2.68 -1.36 1.36 0 0 Z " fill="#68E4B5" transform="translate(37,111)"/>
<path d="M0 0 C-0.33 1.65 -0.66 3.3 -1 5 C-2.98 5.33 -4.96 5.66 -7 6 C-5.81636731 2.44910192 -3.99368042 0 0 0 Z " fill="#494171" transform="translate(272,149)"/>
<path d="M0 0 C2 1 2 1 2 1 Z M-1 1 C0.32 2.32 1.64 3.64 3 5 C2.01 5.495 2.01 5.495 1 6 C0.67 7.32 0.34 8.64 0 10 C-0.33 7.03 -0.66 4.06 -1 1 Z " fill="#A1A2B7" transform="translate(184,181)"/>
<path d="M0 0 C2.0625 1.75 2.0625 1.75 4 4 C3.75 6.25 3.75 6.25 3 8 C2.01 7.34 1.02 6.68 0 6 C0.33 5.01 0.66 4.02 1 3 C0.67 2.01 0.34 1.02 0 0 Z " fill="#C4D2D4" transform="translate(169,174)"/>
<path d="M0 0 C1.32 0 2.64 0 4 0 C4 2.31 4 4.62 4 7 C2 5.1875 2 5.1875 0 3 C0 2.01 0 1.02 0 0 Z " fill="#2E255C" transform="translate(251,169)"/>
<path d="M0 0 C0.99 0.33 1.98 0.66 3 1 C3 2.65 3 4.3 3 6 C2.01 6.33 1.02 6.66 0 7 C0 4.69 0 2.38 0 0 Z " fill="#A8DBCB" transform="translate(42,110)"/>
<path d="M0 0 C1.98 0 3.96 0 6 0 C5.67 0.99 5.34 1.98 5 3 C4.01 3 3.02 3 2 3 C2.33 3.66 2.66 4.32 3 5 C2.01 4.67 1.02 4.34 0 4 C0 2.68 0 1.36 0 0 Z " fill="#D1C6CD" transform="translate(206,4)"/>
</svg>
