<?xml version="1.0" standalone="no"?>
<!DOCTYPE svg PUBLIC "-//W3C//DTD SVG 20010904//EN"
 "http://www.w3.org/TR/2001/REC-SVG-20010904/DTD/svg10.dtd">
<svg version="1.0" xmlns="http://www.w3.org/2000/svg"
 width="500.000000pt" height="500.000000pt" viewBox="0 0 500.000000 500.000000"
 preserveAspectRatio="xMidYMid meet">

<g transform="translate(0.000000,500.000000) scale(0.100000,-0.100000)"
fill="#000000" stroke="none">
<path d="M486 4261 l-459 -356 344 -3 344 -2 177 -1107 178 -1107 -73 -93
c-97 -127 -103 -136 -92 -140 6 -2 528 -284 1160 -627 l1150 -623 9 136 8 137
796 429 c437 236 791 430 786 432 -5 2 -355 88 -777 192 -423 104 -770 191
-773 193 -2 3 4 258 14 568 l17 564 830 608 c457 335 839 615 850 623 17 12
-116 14 -1010 14 l-1030 1 -395 -511 c-217 -281 -398 -513 -402 -515 -8 -5
-720 914 -973 1256 -103 140 -195 262 -204 271 -15 15 -52 -11 -475 -340z
m512 -44 l83 -112 -121 -3 c-67 -1 -172 -1 -234 0 l-113 3 145 113 c80 61 148
112 151 112 4 -1 43 -51 89 -113z m612 -798 c206 -265 380 -489 387 -498 10
-15 -39 -83 -354 -492 -441 -572 -402 -523 -407 -518 -5 5 -316 1951 -316
1974 0 13 23 15 158 15 l157 0 375 -481z m2750 467 c-15 -13 -1166 -862 -1230
-906 -28 -20 -853 -626 -1268 -932 l-92 -69 60 -79 61 -80 47 35 c26 19 294
217 596 439 302 223 551 404 553 403 3 -4 -66 -2159 -70 -2163 -1 -1 -302 161
-668 360 -366 198 -774 420 -907 491 -133 72 -240 135 -237 141 2 6 414 543
917 1193 l913 1181 670 0 c565 0 667 -2 655 -14z m-598 -2496 c266 -66 487
-122 492 -123 5 -2 -221 -128 -503 -281 -282 -152 -515 -276 -517 -274 -2 2 2
183 8 401 9 305 15 397 24 397 7 0 230 -54 496 -120z"/>
</g>
</svg>
