<svg width="40" height="40" viewBox="0 0 40 40" fill="none" xmlns="http://www.w3.org/2000/svg">
<rect width="40" height="40" fill="white"/>
<path d="M12 30.8182V9H20.608C22.2628 9 23.6726 9.31605 24.8374 9.94815C26.0021 10.5732 26.8899 11.4432 27.5007 12.5582C28.1186 13.6662 28.4276 14.9446 28.4276 16.3935C28.4276 17.8423 28.1151 19.1207 27.4901 20.2287C26.8651 21.3366 25.9595 22.1996 24.7734 22.8175C23.5945 23.4354 22.1669 23.7443 20.4908 23.7443H15.0043V20.0476H19.745C20.6328 20.0476 21.3643 19.8949 21.9396 19.5895C22.522 19.277 22.9553 18.8473 23.2393 18.3004C23.5305 17.7464 23.6761 17.1108 23.6761 16.3935C23.6761 15.669 23.5305 15.0369 23.2393 14.4972C22.9553 13.9503 22.522 13.5277 21.9396 13.2294C21.3572 12.924 20.6186 12.7713 19.7237 12.7713H16.6129V30.8182H12Z" fill="black"/>
</svg>
