<svg width="1272" height="461" viewBox="0 0 1272 461" fill="none" xmlns="http://www.w3.org/2000/svg">
<rect width="1272" height="461" fill="#1A3C4F"/>
<path d="M360.5 148L310.5 106M360.5 148V247L276 325.5L186 247V106H310.5M360.5 148H310.5V106" stroke="white" stroke-width="16"/>
<rect x="213" y="139" width="60" height="18" rx="9" fill="white"/>
<rect x="213" y="173" width="120" height="18" rx="9" fill="white"/>
<rect x="213" y="207" width="120" height="18" rx="9" fill="white"/>
<rect x="243" y="246" width="60" height="18" rx="9" fill="white"/>
<path d="M439.091 255V161.909H475.818C482.879 161.909 488.894 163.258 493.864 165.955C498.833 168.621 502.621 172.333 505.227 177.091C507.864 181.818 509.182 187.273 509.182 193.455C509.182 199.636 507.848 205.091 505.182 209.818C502.515 214.545 498.652 218.227 493.591 220.864C488.561 223.5 482.47 224.818 475.318 224.818H451.909V209.045H472.136C475.924 209.045 479.045 208.394 481.5 207.091C483.985 205.758 485.833 203.924 487.045 201.591C488.288 199.227 488.909 196.515 488.909 193.455C488.909 190.364 488.288 187.667 487.045 185.364C485.833 183.03 483.985 181.227 481.5 179.955C479.015 178.652 475.864 178 472.045 178H458.773V255H439.091ZM537.076 256.318C532.622 256.318 528.652 255.545 525.167 254C521.682 252.424 518.925 250.106 516.895 247.045C514.895 243.955 513.895 240.106 513.895 235.5C513.895 231.621 514.607 228.364 516.031 225.727C517.455 223.091 519.395 220.97 521.849 219.364C524.304 217.758 527.092 216.545 530.213 215.727C533.364 214.909 536.667 214.333 540.122 214C544.182 213.576 547.455 213.182 549.94 212.818C552.425 212.424 554.228 211.848 555.349 211.091C556.47 210.333 557.031 209.212 557.031 207.727V207.455C557.031 204.576 556.122 202.348 554.304 200.773C552.516 199.197 549.97 198.409 546.667 198.409C543.182 198.409 540.41 199.182 538.349 200.727C536.288 202.242 534.925 204.152 534.258 206.455L516.349 205C517.258 200.758 519.046 197.091 521.713 194C524.379 190.879 527.819 188.485 532.031 186.818C536.273 185.121 541.182 184.273 546.758 184.273C550.637 184.273 554.349 184.727 557.895 185.636C561.47 186.545 564.637 187.955 567.395 189.864C570.182 191.773 572.379 194.227 573.985 197.227C575.592 200.197 576.395 203.758 576.395 207.909V255H558.031V245.318H557.485C556.364 247.5 554.864 249.424 552.985 251.091C551.107 252.727 548.849 254.015 546.213 254.955C543.576 255.864 540.531 256.318 537.076 256.318ZM542.622 242.955C545.47 242.955 547.985 242.394 550.167 241.273C552.349 240.121 554.061 238.576 555.304 236.636C556.546 234.697 557.167 232.5 557.167 230.045V222.636C556.561 223.03 555.728 223.394 554.667 223.727C553.637 224.03 552.47 224.318 551.167 224.591C549.864 224.833 548.561 225.061 547.258 225.273C545.955 225.455 544.773 225.621 543.713 225.773C541.44 226.106 539.455 226.636 537.758 227.364C536.061 228.091 534.743 229.076 533.804 230.318C532.864 231.53 532.395 233.045 532.395 234.864C532.395 237.5 533.349 239.515 535.258 240.909C537.198 242.273 539.652 242.955 542.622 242.955ZM588.857 281.182V185.182H607.948V196.909H608.812C609.66 195.03 610.888 193.121 612.494 191.182C614.13 189.212 616.251 187.576 618.857 186.273C621.494 184.939 624.766 184.273 628.675 184.273C633.766 184.273 638.463 185.606 642.766 188.273C647.069 190.909 650.509 194.894 653.085 200.227C655.66 205.53 656.948 212.182 656.948 220.182C656.948 227.97 655.691 234.545 653.175 239.909C650.691 245.242 647.297 249.288 642.994 252.045C638.721 254.773 633.933 256.136 628.63 256.136C624.872 256.136 621.675 255.515 619.039 254.273C616.433 253.03 614.297 251.47 612.63 249.591C610.963 247.682 609.691 245.758 608.812 243.818H608.221V281.182H588.857ZM607.812 220.091C607.812 224.242 608.388 227.864 609.539 230.955C610.691 234.045 612.357 236.455 614.539 238.182C616.721 239.879 619.372 240.727 622.494 240.727C625.645 240.727 628.312 239.864 630.494 238.136C632.675 236.379 634.327 233.955 635.448 230.864C636.6 227.742 637.175 224.152 637.175 220.091C637.175 216.061 636.615 212.515 635.494 209.455C634.372 206.394 632.721 204 630.539 202.273C628.357 200.545 625.675 199.682 622.494 199.682C619.342 199.682 616.675 200.515 614.494 202.182C612.342 203.848 610.691 206.212 609.539 209.273C608.388 212.333 607.812 215.939 607.812 220.091ZM699.115 256.364C691.934 256.364 685.752 254.909 680.57 252C675.418 249.061 671.449 244.909 668.661 239.545C665.873 234.152 664.479 227.773 664.479 220.409C664.479 213.227 665.873 206.924 668.661 201.5C671.449 196.076 675.373 191.848 680.434 188.818C685.525 185.788 691.494 184.273 698.343 184.273C702.949 184.273 707.237 185.015 711.206 186.5C715.206 187.955 718.691 190.152 721.661 193.091C724.661 196.03 726.994 199.727 728.661 204.182C730.328 208.606 731.161 213.788 731.161 219.727V225.045H672.206V213.045H712.934C712.934 210.258 712.328 207.788 711.115 205.636C709.903 203.485 708.222 201.803 706.07 200.591C703.949 199.348 701.479 198.727 698.661 198.727C695.722 198.727 693.115 199.409 690.843 200.773C688.6 202.106 686.843 203.909 685.57 206.182C684.297 208.424 683.646 210.924 683.615 213.682V225.091C683.615 228.545 684.252 231.53 685.525 234.045C686.828 236.561 688.661 238.5 691.025 239.864C693.388 241.227 696.191 241.909 699.434 241.909C701.585 241.909 703.555 241.606 705.343 241C707.131 240.394 708.661 239.485 709.934 238.273C711.206 237.061 712.176 235.576 712.843 233.818L730.752 235C729.843 239.303 727.979 243.061 725.161 246.273C722.373 249.455 718.767 251.939 714.343 253.727C709.949 255.485 704.873 256.364 699.115 256.364ZM741.237 255V185.182H760.01V197.364H760.737C762.01 193.03 764.146 189.758 767.146 187.545C770.146 185.303 773.601 184.182 777.51 184.182C778.48 184.182 779.525 184.242 780.646 184.364C781.768 184.485 782.752 184.652 783.601 184.864V202.045C782.692 201.773 781.434 201.53 779.828 201.318C778.222 201.106 776.752 201 775.419 201C772.571 201 770.025 201.621 767.783 202.864C765.571 204.076 763.813 205.773 762.51 207.955C761.237 210.136 760.601 212.652 760.601 215.5V255H741.237ZM791.052 255V185.182H809.507V197.5H810.325C811.78 193.409 814.204 190.182 817.598 187.818C820.992 185.455 825.052 184.273 829.78 184.273C834.567 184.273 838.643 185.47 842.007 187.864C845.37 190.227 847.613 193.439 848.734 197.5H849.461C850.886 193.5 853.461 190.303 857.189 187.909C860.946 185.485 865.386 184.273 870.507 184.273C877.022 184.273 882.31 186.348 886.37 190.5C890.461 194.621 892.507 200.47 892.507 208.045V255H873.189V211.864C873.189 207.985 872.158 205.076 870.098 203.136C868.037 201.197 865.461 200.227 862.37 200.227C858.855 200.227 856.113 201.348 854.143 203.591C852.174 205.803 851.189 208.727 851.189 212.364V255H832.416V211.455C832.416 208.03 831.431 205.303 829.461 203.273C827.522 201.242 824.961 200.227 821.78 200.227C819.628 200.227 817.689 200.773 815.961 201.864C814.264 202.924 812.916 204.424 811.916 206.364C810.916 208.273 810.416 210.515 810.416 213.091V255H791.052ZM925.151 256.318C920.697 256.318 916.727 255.545 913.242 254C909.757 252.424 907 250.106 904.97 247.045C902.97 243.955 901.97 240.106 901.97 235.5C901.97 231.621 902.682 228.364 904.106 225.727C905.53 223.091 907.47 220.97 909.924 219.364C912.379 217.758 915.167 216.545 918.288 215.727C921.439 214.909 924.742 214.333 928.197 214C932.257 213.576 935.53 213.182 938.015 212.818C940.5 212.424 942.303 211.848 943.424 211.091C944.545 210.333 945.106 209.212 945.106 207.727V207.455C945.106 204.576 944.197 202.348 942.379 200.773C940.591 199.197 938.045 198.409 934.742 198.409C931.257 198.409 928.485 199.182 926.424 200.727C924.363 202.242 923 204.152 922.333 206.455L904.424 205C905.333 200.758 907.121 197.091 909.788 194C912.454 190.879 915.894 188.485 920.106 186.818C924.348 185.121 929.257 184.273 934.833 184.273C938.712 184.273 942.424 184.727 945.97 185.636C949.545 186.545 952.712 187.955 955.47 189.864C958.257 191.773 960.454 194.227 962.06 197.227C963.667 200.197 964.47 203.758 964.47 207.909V255H946.106V245.318H945.56C944.439 247.5 942.939 249.424 941.06 251.091C939.182 252.727 936.924 254.015 934.288 254.955C931.651 255.864 928.606 256.318 925.151 256.318ZM930.697 242.955C933.545 242.955 936.06 242.394 938.242 241.273C940.424 240.121 942.136 238.576 943.379 236.636C944.621 234.697 945.242 232.5 945.242 230.045V222.636C944.636 223.03 943.803 223.394 942.742 223.727C941.712 224.03 940.545 224.318 939.242 224.591C937.939 224.833 936.636 225.061 935.333 225.273C934.03 225.455 932.848 225.621 931.788 225.773C929.515 226.106 927.53 226.636 925.833 227.364C924.136 228.091 922.818 229.076 921.879 230.318C920.939 231.53 920.47 233.045 920.47 234.864C920.47 237.5 921.424 239.515 923.333 240.909C925.273 242.273 927.727 242.955 930.697 242.955ZM976.932 255V185.182H995.705V197.364H996.432C997.705 193.03 999.841 189.758 1002.84 187.545C1005.84 185.303 1009.3 184.182 1013.21 184.182C1014.17 184.182 1015.22 184.242 1016.34 184.364C1017.46 184.485 1018.45 184.652 1019.3 184.864V202.045C1018.39 201.773 1017.13 201.53 1015.52 201.318C1013.92 201.106 1012.45 201 1011.11 201C1008.27 201 1005.72 201.621 1003.48 202.864C1001.27 204.076 999.508 205.773 998.205 207.955C996.932 210.136 996.296 212.652 996.296 215.5V255H976.932ZM1044.29 234.909L1044.34 211.682H1047.16L1069.52 185.182H1091.75L1061.7 220.273H1057.11L1044.29 234.909ZM1026.75 255V161.909H1046.11V255H1026.75ZM1070.38 255L1049.84 224.591L1062.75 210.909L1093.07 255H1070.38Z" fill="white"/>
<path d="M363.5 146.5L381 162V255.5L276.5 355L165 255.5V162L187 146.5" stroke="white" stroke-width="8"/>
</svg>
